<svg width="85" height="85" viewBox="0 0 85 85" fill="none" xmlns="http://www.w3.org/2000/svg">
<path d="M5.3125 18.5938V66.4062H79.6875V18.5938H5.3125ZM10.625 23.9062H74.375V61.0938H10.625V23.9062ZM15.9375 29.2188V55.7812H23.9062C28.2997 55.7812 31.875 52.2059 31.875 47.8125V37.1875C31.875 32.7941 28.2997 29.2188 23.9062 29.2188H15.9375ZM42.5 29.2188C39.5702 29.2188 37.1875 31.6014 37.1875 34.5312V50.4688C37.1875 53.3986 39.5702 55.7812 42.5 55.7812H47.8125V50.4688H42.5V45.1562H47.8125V39.8438H42.5V34.5312H47.8125V29.2188H42.5ZM52.3053 29.2188L57.8409 53.1924C58.1915 54.7065 59.5398 55.7812 61.0938 55.7812C62.6477 55.7812 63.996 54.7065 64.3466 53.1924L69.8822 29.2188H64.4296L61.0938 43.6673L57.7579 29.2188H52.3053ZM21.25 34.5312H23.9062C25.3725 34.5312 26.5625 35.7213 26.5625 37.1875V47.8125C26.5625 49.2787 25.3725 50.4688 23.9062 50.4688H21.25V34.5312Z" fill="white"/>
</svg>
