<svg width="1180" height="966" viewBox="0 0 1180 966" fill="none" xmlns="http://www.w3.org/2000/svg">
<path d="M382.463 703.972H303.396C303.099 703.972 302.815 703.855 302.605 703.645C302.395 703.435 302.277 703.151 302.277 702.854V643.911C302.277 643.614 302.395 643.33 302.605 643.12C302.815 642.91 303.099 642.792 303.396 642.792H382.463C382.76 642.792 383.045 642.91 383.255 643.12C383.465 643.33 383.582 643.614 383.582 643.911V702.854C383.582 703.151 383.465 703.435 383.255 703.645C383.045 703.855 382.76 703.972 382.463 703.972ZM303.396 643.597C303.313 643.6 303.235 643.633 303.177 643.692C303.118 643.75 303.085 643.829 303.082 643.911V702.854C303.085 702.936 303.118 703.015 303.177 703.073C303.235 703.132 303.313 703.165 303.396 703.167H381.264C381.346 703.165 381.423 703.131 381.48 703.072C381.538 703.014 381.57 702.936 381.57 702.854V643.911C381.57 643.829 381.538 643.751 381.48 643.692C381.423 643.634 381.346 643.6 381.264 643.597H303.396Z" fill="#D65A31"/>
<path opacity="0.2" d="M382.463 703.972H303.396C303.099 703.972 302.815 703.855 302.605 703.645C302.395 703.435 302.277 703.151 302.277 702.854V643.911C302.277 643.614 302.395 643.33 302.605 643.12C302.815 642.91 303.099 642.792 303.396 642.792H382.463C382.76 642.792 383.045 642.91 383.255 643.12C383.465 643.33 383.582 643.614 383.582 643.911V702.854C383.582 703.151 383.465 703.435 383.255 703.645C383.045 703.855 382.76 703.972 382.463 703.972ZM303.396 643.597C303.313 643.6 303.235 643.633 303.177 643.692C303.118 643.75 303.085 643.829 303.082 643.911V702.854C303.085 702.936 303.118 703.015 303.177 703.073C303.235 703.132 303.313 703.165 303.396 703.167H381.264C381.346 703.165 381.423 703.131 381.48 703.072C381.538 703.014 381.57 702.936 381.57 702.854V643.911C381.57 643.829 381.538 643.751 381.48 643.692C381.423 643.634 381.346 643.6 381.264 643.597H303.396Z" fill="black"/>
<path d="M381.103 703.972H303.396C303.099 703.972 302.815 703.855 302.605 703.645C302.395 703.435 302.277 703.151 302.277 702.854V643.911C302.277 643.614 302.395 643.33 302.605 643.12C302.815 642.91 303.099 642.792 303.396 642.792H381.103C381.4 642.792 381.684 642.91 381.894 643.12C382.104 643.33 382.222 643.614 382.222 643.911V702.854C382.222 703.151 382.104 703.435 381.894 703.645C381.684 703.855 381.4 703.972 381.103 703.972ZM303.396 643.597C303.354 643.597 303.313 643.604 303.275 643.619C303.236 643.634 303.201 643.658 303.172 643.687C303.143 643.717 303.119 643.751 303.104 643.79C303.089 643.829 303.082 643.87 303.082 643.911V702.854C303.082 702.895 303.089 702.936 303.104 702.975C303.119 703.014 303.143 703.048 303.172 703.078C303.201 703.107 303.236 703.13 303.275 703.146C303.313 703.161 303.354 703.168 303.396 703.167H381.103C381.186 703.167 381.266 703.134 381.325 703.076C381.384 703.017 381.417 702.936 381.417 702.854V643.911C381.417 643.829 381.384 643.748 381.325 643.689C381.266 643.63 381.186 643.597 381.103 643.597H303.396Z" fill="#D65A31"/>
<path d="M381.024 652.05H303.397V652.855H381.024V652.05Z" fill="#D65A31"/>
<path d="M308.717 648.83C309.384 648.83 309.925 648.289 309.925 647.623C309.925 646.956 309.384 646.415 308.717 646.415C308.051 646.415 307.51 646.956 307.51 647.623C307.51 648.289 308.051 648.83 308.717 648.83Z" fill="#D65A31"/>
<path d="M312.743 648.83C313.409 648.83 313.95 648.289 313.95 647.623C313.95 646.956 313.409 646.415 312.743 646.415C312.076 646.415 311.535 646.956 311.535 647.623C311.535 648.289 312.076 648.83 312.743 648.83Z" fill="#D65A31"/>
<path d="M316.767 648.83C317.434 648.83 317.975 648.289 317.975 647.623C317.975 646.956 317.434 646.415 316.767 646.415C316.101 646.415 315.56 646.956 315.56 647.623C315.56 648.289 316.101 648.83 316.767 648.83Z" fill="#D65A31"/>
<path d="M331.835 675.395L334.774 676.329C334.451 677.76 333.66 679.043 332.528 679.975C331.369 680.805 329.967 681.225 328.543 681.167C327.621 681.196 326.702 681.026 325.851 680.669C324.999 680.312 324.235 679.777 323.608 679.098C322.264 677.557 321.573 675.553 321.684 673.511C321.684 671.016 322.331 669.076 323.625 667.691C324.273 667.002 325.063 666.461 325.94 666.105C326.816 665.747 327.759 665.583 328.704 665.622C330.35 665.545 331.96 666.124 333.18 667.232C333.936 667.995 334.468 668.949 334.717 669.993L331.715 670.71C331.576 669.981 331.181 669.325 330.601 668.863C330.02 668.4 329.293 668.162 328.551 668.19C328.039 668.174 327.53 668.274 327.062 668.482C326.594 668.689 326.178 669 325.846 669.39C325.154 670.189 324.808 671.483 324.808 673.27C324.808 675.17 325.146 676.49 325.83 677.295C326.152 677.687 326.56 678 327.022 678.211C327.484 678.422 327.988 678.524 328.495 678.51C329.264 678.517 330.007 678.229 330.572 677.705C331.218 677.082 331.659 676.276 331.835 675.395Z" fill="#D65A31"/>
<path d="M336.609 675.998L339.556 675.708C339.653 676.538 340.035 677.308 340.634 677.89C341.256 678.386 342.038 678.636 342.832 678.59C343.617 678.645 344.397 678.426 345.038 677.97C345.263 677.8 345.446 677.581 345.575 677.331C345.703 677.08 345.773 676.803 345.778 676.521C345.787 676.19 345.675 675.867 345.464 675.611C345.164 675.305 344.79 675.08 344.378 674.959C344.023 674.839 343.21 674.621 341.963 674.307C340.727 674.081 339.559 673.575 338.549 672.826C337.818 672.203 337.339 671.333 337.203 670.381C337.069 669.429 337.287 668.461 337.817 667.658C338.282 666.974 338.941 666.443 339.709 666.137C340.65 665.77 341.654 665.595 342.663 665.621C344.184 665.51 345.695 665.947 346.921 666.853C347.392 667.266 347.77 667.775 348.028 668.346C348.287 668.916 348.42 669.535 348.419 670.162L345.392 670.299C345.336 669.663 345.051 669.071 344.587 668.632C344.02 668.254 343.343 668.076 342.663 668.125C341.937 668.086 341.216 668.275 340.602 668.664C340.451 668.767 340.327 668.907 340.242 669.07C340.159 669.233 340.116 669.415 340.119 669.598C340.12 669.774 340.161 669.948 340.239 670.105C340.317 670.263 340.431 670.401 340.57 670.508C341.426 671.017 342.372 671.358 343.355 671.514C344.484 671.744 345.58 672.107 346.624 672.593C347.307 672.94 347.88 673.469 348.282 674.122C348.698 674.864 348.906 675.704 348.885 676.554C348.863 677.403 348.614 678.233 348.161 678.952C347.679 679.706 346.972 680.289 346.141 680.619C345.098 681.015 343.987 681.201 342.872 681.166C341.305 681.272 339.751 680.806 338.501 679.854C337.393 678.864 336.715 677.481 336.609 675.998Z" fill="#D65A31"/>
<path d="M350.594 675.998L353.54 675.708C353.637 676.538 354.018 677.308 354.619 677.89C355.239 678.386 356.022 678.636 356.816 678.59C357.6 678.645 358.381 678.426 359.022 677.97C359.247 677.8 359.43 677.581 359.558 677.331C359.686 677.08 359.756 676.803 359.763 676.521C359.771 676.19 359.659 675.867 359.449 675.611C359.148 675.305 358.773 675.08 358.362 674.959C358.008 674.839 357.195 674.621 355.947 674.307C354.711 674.081 353.542 673.575 352.534 672.826C351.801 672.203 351.322 671.333 351.187 670.381C351.053 669.429 351.271 668.461 351.801 667.658C352.259 666.977 352.909 666.448 353.669 666.137C354.609 665.77 355.614 665.595 356.623 665.621C358.144 665.51 359.655 665.947 360.882 666.853C361.352 667.266 361.729 667.775 361.988 668.346C362.246 668.916 362.379 669.535 362.379 670.162L359.352 670.298C359.296 669.663 359.01 669.071 358.547 668.632C357.975 668.261 357.295 668.091 356.615 668.149C355.888 668.11 355.168 668.298 354.554 668.689C354.402 668.792 354.278 668.931 354.194 669.094C354.11 669.258 354.067 669.439 354.071 669.622C354.071 669.799 354.112 669.972 354.191 670.129C354.269 670.287 354.382 670.425 354.522 670.532C355.378 671.041 356.323 671.382 357.307 671.538C358.435 671.768 359.532 672.131 360.576 672.617C361.258 672.965 361.832 673.494 362.234 674.146C362.649 674.888 362.857 675.728 362.836 676.578C362.814 677.428 362.565 678.257 362.113 678.976C361.631 679.73 360.924 680.313 360.093 680.643C359.05 681.04 357.939 681.226 356.824 681.19C355.256 681.296 353.703 680.83 352.453 679.878C351.351 678.877 350.684 677.484 350.594 675.998Z" fill="#D65A31"/>
<path d="M543.504 334.478H410.832C409.786 334.478 408.94 333.978 408.94 333.359V274.416C408.94 273.797 409.786 273.297 410.832 273.297H543.504C544.543 273.297 545.388 273.797 545.388 274.416V333.359C545.388 333.978 544.543 334.478 543.504 334.478ZM410.824 274.102C410.534 274.102 410.301 274.247 410.301 274.416V333.359C410.301 333.528 410.534 333.673 410.824 333.673H541.492C541.773 333.673 542.007 333.528 542.007 333.359V274.416C542.007 274.247 541.773 274.102 541.492 274.102H410.824Z" fill="#D65A31"/>
<path opacity="0.2" d="M543.504 334.478H410.832C409.786 334.478 408.94 333.978 408.94 333.359V274.416C408.94 273.797 409.786 273.297 410.832 273.297H543.504C544.543 273.297 545.388 273.797 545.388 274.416V333.359C545.388 333.978 544.543 334.478 543.504 334.478ZM410.824 274.102C410.534 274.102 410.301 274.247 410.301 274.416V333.359C410.301 333.528 410.534 333.673 410.824 333.673H541.492C541.773 333.673 542.007 333.528 542.007 333.359V274.416C542.007 274.247 541.773 274.102 541.492 274.102H410.824Z" fill="black"/>
<path d="M541.227 334.478H410.817C409.786 334.478 408.949 333.978 408.949 333.359V274.416C408.949 273.797 409.754 273.297 410.817 273.297H541.227C542.257 273.297 543.094 273.797 543.094 274.416V333.359C543.094 333.978 542.257 334.478 541.227 334.478ZM410.817 274.102C410.535 274.102 410.302 274.239 410.302 274.416V333.359C410.302 333.536 410.535 333.673 410.817 333.673H541.227C541.509 333.673 541.742 333.536 541.742 333.359V274.416C541.742 274.239 541.509 274.102 541.227 274.102H410.817Z" fill="#D65A31"/>
<path d="M541.088 282.555H410.823V283.36H541.088V282.555Z" fill="#D65A31"/>
<path d="M414.977 279.335C415.644 279.335 416.185 278.794 416.185 278.127C416.185 277.461 415.644 276.92 414.977 276.92C414.31 276.92 413.77 277.461 413.77 278.127C413.77 278.794 414.31 279.335 414.977 279.335Z" fill="#D65A31"/>
<path d="M419.002 279.335C419.669 279.335 420.21 278.794 420.21 278.127C420.21 277.461 419.669 276.92 419.002 276.92C418.336 276.92 417.795 277.461 417.795 278.127C417.795 278.794 418.336 279.335 419.002 279.335Z" fill="#D65A31"/>
<path d="M423.028 279.335C423.694 279.335 424.235 278.794 424.235 278.127C424.235 277.461 423.694 276.92 423.028 276.92C422.361 276.92 421.82 277.461 421.82 278.127C421.82 278.794 422.361 279.335 423.028 279.335Z" fill="#D65A31"/>
<path d="M423.043 299.346H425.772V307.928C425.804 308.802 425.704 309.676 425.474 310.52C425.218 311.296 424.712 311.965 424.033 312.42C423.208 312.93 422.249 313.18 421.28 313.136C420.715 313.173 420.148 313.092 419.616 312.898C419.084 312.704 418.598 312.401 418.189 312.009C417.407 311.098 417.014 309.915 417.094 308.717L419.678 308.419C419.667 308.974 419.783 309.525 420.016 310.029C420.162 310.237 420.352 310.41 420.572 310.536C420.792 310.662 421.038 310.738 421.292 310.757C421.544 310.777 421.799 310.741 422.036 310.652C422.274 310.562 422.489 310.421 422.665 310.238C422.984 309.564 423.115 308.816 423.043 308.073V299.346Z" fill="#D65A31"/>
<path d="M440.916 312.903H437.921L436.738 309.828H431.312L430.193 312.903H427.295L432.576 299.346H435.506L440.916 312.903ZM435.868 307.509L434.001 302.478L432.173 307.509H435.868Z" fill="#D65A31"/>
<path d="M444.416 312.903L439.586 299.346H442.556L445.97 309.377L449.286 299.346H452.192L447.362 312.903H444.416Z" fill="#D65A31"/>
<path d="M464.412 312.903H461.434L460.251 309.828H454.825L453.706 312.903H450.8L456.081 299.346H458.971L464.412 312.903ZM459.373 307.509L457.505 302.478L455.67 307.509H459.373Z" fill="#D65A31"/>
<path d="M465.171 308.493L467.835 308.235C467.918 308.986 468.263 309.685 468.809 310.208C469.371 310.65 470.075 310.873 470.79 310.835C471.501 310.889 472.207 310.689 472.786 310.272C472.989 310.12 473.155 309.923 473.271 309.697C473.387 309.471 473.45 309.221 473.454 308.968C473.461 308.674 473.36 308.388 473.173 308.163C472.9 307.886 472.562 307.683 472.19 307.575C471.868 307.463 471.136 307.269 470.001 306.988C468.881 306.781 467.823 306.321 466.91 305.643C466.513 305.308 466.196 304.89 465.98 304.418C465.764 303.946 465.655 303.433 465.662 302.914C465.66 302.224 465.865 301.548 466.25 300.974C466.66 300.357 467.25 299.879 467.94 299.606C468.787 299.269 469.693 299.108 470.605 299.131C471.98 299.032 473.345 299.429 474.453 300.25C474.878 300.622 475.22 301.08 475.453 301.596C475.687 302.111 475.807 302.67 475.805 303.236L473.068 303.357C473.01 302.781 472.74 302.248 472.311 301.86C471.802 301.518 471.192 301.356 470.58 301.401C469.921 301.361 469.267 301.534 468.713 301.892C468.581 301.981 468.472 302.101 468.397 302.241C468.321 302.381 468.281 302.538 468.278 302.697C468.281 302.852 468.318 303.005 468.388 303.144C468.458 303.284 468.558 303.406 468.681 303.502C469.456 303.961 470.311 304.269 471.2 304.412C472.219 304.629 473.207 304.967 474.147 305.418C474.759 305.735 475.276 306.21 475.644 306.794C476.015 307.462 476.201 308.218 476.182 308.982C476.164 309.746 475.942 310.492 475.539 311.141C475.099 311.824 474.457 312.352 473.704 312.655C472.763 313.01 471.762 313.177 470.758 313.146C469.339 313.241 467.934 312.817 466.805 311.954C465.835 311.054 465.25 309.814 465.171 308.493Z" fill="#D65A31"/>
<path d="M487.171 307.921L489.828 308.726C489.535 310.022 488.819 311.184 487.791 312.026C486.567 312.85 485.097 313.223 483.629 313.084C482.161 312.944 480.787 312.301 479.741 311.261C478.524 309.871 477.9 308.059 478.002 306.214C477.9 304.308 478.537 302.437 479.781 300.989C480.369 300.366 481.083 299.877 481.876 299.553C482.669 299.23 483.522 299.08 484.378 299.114C485.861 299.056 487.307 299.586 488.403 300.587C489.081 301.278 489.56 302.141 489.787 303.082L487.074 303.735C486.951 303.075 486.595 302.482 486.07 302.063C485.545 301.646 484.887 301.43 484.217 301.456C483.759 301.446 483.305 301.538 482.888 301.724C482.47 301.91 482.099 302.187 481.802 302.535C481.084 303.558 480.75 304.801 480.86 306.045C480.86 307.759 481.166 308.975 481.786 309.708C482.078 310.062 482.447 310.344 482.867 310.533C483.285 310.721 483.742 310.81 484.201 310.794C484.893 310.808 485.565 310.561 486.084 310.102C486.663 309.505 487.043 308.743 487.171 307.921Z" fill="#D65A31"/>
<path d="M492.176 312.904V299.348H497.94C499.007 299.299 500.075 299.421 501.103 299.71C501.773 299.949 502.34 300.41 502.713 301.014C503.114 301.653 503.321 302.394 503.309 303.148C503.345 304.073 503.022 304.975 502.407 305.667C501.692 306.39 500.741 306.835 499.727 306.923C500.269 307.227 500.763 307.609 501.192 308.058C501.777 308.746 502.3 309.484 502.753 310.264L504.412 312.904H501.135L499.099 309.926C498.662 309.23 498.181 308.563 497.658 307.929C497.437 307.681 497.162 307.488 496.853 307.366C496.403 307.242 495.935 307.19 495.468 307.213H494.921V312.848L492.176 312.904ZM494.921 305.08H496.941C497.766 305.118 498.592 305.064 499.405 304.919C499.731 304.822 500.016 304.618 500.21 304.339C500.406 304.038 500.505 303.684 500.491 303.325C500.51 302.924 500.378 302.53 500.121 302.222C499.853 301.927 499.488 301.738 499.091 301.691C498.865 301.691 498.205 301.642 497.094 301.642H494.961L494.921 305.08Z" fill="#D65A31"/>
<path d="M505.767 312.903V299.346H508.504V312.903H505.767Z" fill="#D65A31"/>
<path d="M511.112 312.903V299.346H515.508C516.585 299.304 517.664 299.371 518.728 299.548C519.511 299.758 520.2 300.226 520.684 300.876C521.241 301.641 521.524 302.571 521.489 303.516C521.511 304.243 521.356 304.964 521.038 305.617C520.766 306.148 520.371 306.606 519.887 306.954C519.461 307.259 518.98 307.477 518.47 307.598C517.531 307.747 516.579 307.813 515.628 307.791H513.841V312.903H511.112ZM513.849 301.633V305.481H515.347C516.075 305.522 516.806 305.449 517.512 305.263C517.858 305.138 518.157 304.907 518.365 304.603C518.575 304.292 518.686 303.924 518.679 303.549C518.697 303.1 518.542 302.662 518.245 302.325C517.956 302.005 517.567 301.791 517.142 301.721C516.487 301.646 515.828 301.617 515.17 301.633H513.849Z" fill="#D65A31"/>
<path d="M526.791 312.903V301.633H522.766V299.339H533.537V301.633H529.512V312.903H526.791Z" fill="#D65A31"/>
<path opacity="0.1" d="M589.164 527.131V539.544H386.844V404.079H400.344" fill="black"/>
<path d="M603.292 390.988H400.963V526.453H603.292V390.988Z" fill="white"/>
<path d="M408.94 396.978C408.94 397.296 408.846 397.608 408.669 397.873C408.492 398.138 408.24 398.344 407.946 398.465C407.652 398.588 407.328 398.619 407.016 398.557C406.704 398.495 406.416 398.342 406.192 398.117C405.966 397.891 405.813 397.605 405.75 397.292C405.689 396.98 405.721 396.656 405.842 396.362C405.965 396.068 406.171 395.816 406.436 395.64C406.7 395.463 407.011 395.368 407.33 395.368C407.757 395.368 408.166 395.537 408.468 395.839C408.77 396.141 408.94 396.551 408.94 396.978Z" fill="#D65A31"/>
<path d="M414.502 396.978C414.502 397.296 414.408 397.608 414.231 397.873C414.054 398.138 413.803 398.344 413.509 398.465C413.214 398.588 412.891 398.619 412.578 398.557C412.266 398.495 411.979 398.342 411.754 398.117C411.528 397.891 411.376 397.605 411.314 397.292C411.251 396.98 411.283 396.656 411.405 396.362C411.527 396.068 411.733 395.816 411.998 395.64C412.263 395.463 412.574 395.368 412.892 395.368C413.32 395.368 413.729 395.537 414.03 395.839C414.332 396.141 414.502 396.551 414.502 396.978Z" fill="#D65A31"/>
<path d="M419.984 396.978C419.984 397.296 419.889 397.608 419.713 397.873C419.535 398.138 419.284 398.344 418.99 398.465C418.696 398.588 418.372 398.619 418.06 398.557C417.748 398.495 417.46 398.342 417.236 398.117C417.01 397.891 416.856 397.605 416.794 397.292C416.732 396.98 416.765 396.656 416.886 396.362C417.008 396.068 417.215 395.816 417.479 395.64C417.744 395.463 418.055 395.368 418.374 395.368C418.8 395.368 419.21 395.537 419.512 395.839C419.814 396.141 419.984 396.551 419.984 396.978Z" fill="#D65A31"/>
<g opacity="0.6">
<path opacity="0.6" d="M408.94 396.978C408.94 397.296 408.846 397.608 408.669 397.873C408.492 398.138 408.24 398.344 407.946 398.465C407.652 398.588 407.328 398.619 407.016 398.557C406.704 398.495 406.416 398.342 406.192 398.117C405.966 397.891 405.813 397.605 405.75 397.292C405.689 396.98 405.721 396.656 405.842 396.362C405.965 396.068 406.171 395.816 406.436 395.64C406.7 395.463 407.011 395.368 407.33 395.368C407.757 395.368 408.166 395.537 408.468 395.839C408.77 396.141 408.94 396.551 408.94 396.978Z" fill="white"/>
<path opacity="0.6" d="M414.502 396.978C414.502 397.296 414.408 397.608 414.231 397.873C414.054 398.138 413.803 398.344 413.509 398.465C413.214 398.588 412.891 398.619 412.578 398.557C412.266 398.495 411.979 398.342 411.754 398.117C411.528 397.891 411.376 397.605 411.314 397.292C411.251 396.98 411.283 396.656 411.405 396.362C411.527 396.068 411.733 395.816 411.998 395.64C412.263 395.463 412.574 395.368 412.892 395.368C413.32 395.368 413.729 395.537 414.03 395.839C414.332 396.141 414.502 396.551 414.502 396.978Z" fill="white"/>
<path opacity="0.6" d="M419.984 396.978C419.984 397.296 419.889 397.608 419.713 397.873C419.535 398.138 419.284 398.344 418.99 398.465C418.696 398.588 418.372 398.619 418.06 398.557C417.748 398.495 417.46 398.342 417.236 398.117C417.01 397.891 416.856 397.605 416.794 397.292C416.732 396.98 416.765 396.656 416.886 396.362C417.008 396.068 417.215 395.816 417.479 395.64C417.744 395.463 418.055 395.368 418.374 395.368C418.8 395.368 419.21 395.537 419.512 395.839C419.814 396.141 419.984 396.551 419.984 396.978Z" fill="white"/>
</g>
<path d="M400.504 390.531V526.914H603.75V390.531H400.504ZM602.833 391.448V402.614H401.422V391.448H602.833ZM401.422 525.996V403.531H602.833V525.996H401.422Z" fill="#D65A31"/>
<path opacity="0.6" d="M400.504 390.531V526.914H603.75V390.531H400.504ZM602.833 391.448V402.614H401.422V391.448H602.833ZM401.422 525.996V403.531H602.833V525.996H401.422Z" fill="white"/>
<path d="M472.727 417.199H418.76V471.166H472.727V417.199Z" fill="#D65A31"/>
<g opacity="0.6">
<path opacity="0.6" d="M472.727 417.199H418.76V471.166H472.727V417.199Z" fill="white"/>
</g>
<path d="M447.506 489.368H422.141V514.733H447.506V489.368Z" fill="#D65A31"/>
<path opacity="0.6" d="M447.506 489.368H422.141V514.733H447.506V489.368Z" fill="white"/>
<path d="M493.504 489.368H468.139V514.733H493.504V489.368Z" fill="#D65A31"/>
<path opacity="0.6" d="M493.504 489.368H468.139V514.733H493.504V489.368Z" fill="white"/>
<path d="M539.503 489.368H514.138V514.733H539.503V489.368Z" fill="#D65A31"/>
<path opacity="0.6" d="M539.503 489.368H514.138V514.733H539.503V489.368Z" fill="white"/>
<path d="M585.5 489.368H560.135V514.733H585.5V489.368Z" fill="#D65A31"/>
<path opacity="0.6" d="M585.5 489.368H560.135V514.733H585.5V489.368Z" fill="white"/>
<g opacity="0.6">
<path opacity="0.6" d="M575.882 426.827H481.858C481.737 426.826 481.622 426.776 481.536 426.69C481.45 426.605 481.401 426.49 481.399 426.368C481.399 426.308 481.411 426.248 481.434 426.193C481.457 426.137 481.491 426.087 481.534 426.044C481.577 426.001 481.626 425.967 481.683 425.945C481.738 425.922 481.798 425.909 481.858 425.909H575.882C575.943 425.909 576.003 425.92 576.059 425.942C576.115 425.965 576.166 425.999 576.209 426.041C576.252 426.084 576.286 426.136 576.308 426.191C576.331 426.248 576.342 426.308 576.341 426.368C576.341 426.429 576.329 426.488 576.306 426.544C576.283 426.599 576.249 426.65 576.207 426.693C576.164 426.735 576.113 426.769 576.058 426.793C576.002 426.815 575.943 426.827 575.882 426.827Z" fill="#D65A31"/>
<path opacity="0.6" d="M575.882 436.921H481.858C481.737 436.92 481.622 436.87 481.536 436.784C481.45 436.699 481.401 436.584 481.399 436.462C481.399 436.402 481.411 436.342 481.434 436.287C481.457 436.231 481.491 436.181 481.534 436.138C481.577 436.095 481.626 436.061 481.683 436.039C481.738 436.016 481.798 436.003 481.858 436.003H575.882C575.943 436.003 576.003 436.014 576.059 436.036C576.115 436.059 576.166 436.093 576.209 436.135C576.252 436.178 576.286 436.23 576.308 436.286C576.331 436.342 576.342 436.402 576.341 436.462C576.341 436.584 576.293 436.701 576.207 436.787C576.12 436.873 576.004 436.921 575.882 436.921Z" fill="#D65A31"/>
<path opacity="0.6" d="M575.882 447.017H481.858C481.737 447.015 481.622 446.966 481.536 446.88C481.45 446.794 481.401 446.679 481.399 446.558C481.399 446.436 481.448 446.32 481.534 446.233C481.62 446.147 481.737 446.099 481.858 446.099H575.882C575.943 446.098 576.003 446.109 576.059 446.132C576.115 446.154 576.166 446.188 576.209 446.231C576.252 446.274 576.286 446.325 576.308 446.381C576.331 446.437 576.342 446.497 576.341 446.558C576.341 446.679 576.293 446.796 576.207 446.882C576.12 446.968 576.004 447.017 575.882 447.017Z" fill="#D65A31"/>
<path opacity="0.6" d="M536.381 457.111H481.858C481.798 457.111 481.738 457.099 481.683 457.076C481.626 457.053 481.577 457.019 481.534 456.976C481.491 456.933 481.457 456.884 481.434 456.827C481.411 456.772 481.399 456.712 481.399 456.652C481.401 456.531 481.45 456.415 481.536 456.33C481.622 456.244 481.737 456.195 481.858 456.193H536.381C536.502 456.195 536.618 456.244 536.703 456.33C536.788 456.415 536.837 456.531 536.84 456.652C536.84 456.712 536.828 456.772 536.804 456.827C536.782 456.884 536.748 456.933 536.705 456.976C536.663 457.019 536.612 457.053 536.556 457.076C536.501 457.099 536.441 457.111 536.381 457.111Z" fill="#D65A31"/>
</g>
<path d="M663.32 615.954H760.162C761.393 615.954 762.575 616.443 763.446 617.314C764.317 618.185 764.807 619.367 764.807 620.599C764.807 621.83 764.317 623.012 763.446 623.883C762.575 624.754 761.393 625.244 760.162 625.244H663.32" fill="#868A91"/>
<path opacity="0.2" d="M663.32 615.954H760.162C761.393 615.954 762.575 616.443 763.446 617.314C764.317 618.185 764.807 619.367 764.807 620.599C764.807 621.83 764.317 623.012 763.446 623.883C762.575 624.754 761.393 625.244 760.162 625.244H663.32" fill="black"/>
<path d="M418.534 615.955H708.399C709.041 615.901 709.688 615.981 710.298 616.191C710.908 616.399 711.468 616.733 711.942 617.169C712.417 617.606 712.795 618.136 713.054 618.726C713.313 619.317 713.447 619.955 713.447 620.6C713.447 621.244 713.313 621.882 713.054 622.472C712.795 623.062 712.417 623.593 711.942 624.029C711.468 624.466 710.908 624.799 710.298 625.009C709.688 625.217 709.041 625.298 708.399 625.244H418.534C417.892 625.298 417.246 625.217 416.635 625.009C416.026 624.799 415.466 624.466 414.992 624.029C414.518 623.593 414.138 623.062 413.879 622.472C413.621 621.882 413.486 621.244 413.486 620.6C413.486 619.955 413.621 619.317 413.879 618.726C414.138 618.136 414.518 617.606 414.992 617.169C415.466 616.733 416.026 616.399 416.635 616.191C417.246 615.981 417.892 615.901 418.534 615.955Z" fill="#868A91"/>
<path d="M429.072 625.34H424.298V818.21H429.072V625.34Z" fill="#868A91"/>
<path d="M704.51 625.243H699.736V818.218H704.51V625.243Z" fill="#868A91"/>
<path d="M602.59 625.033L699.737 625.243V656.485L602.59 656.276V625.033Z" fill="#868A91"/>
<path opacity="0.2" d="M695.939 653.104L606.584 652.943V629.131L695.939 629.284V653.104ZM607.317 652.218L695.215 652.371V630.008L607.317 629.855V652.218Z" fill="black"/>
<path d="M653.66 640.176C653.786 640.717 653.733 641.284 653.508 641.791C653.283 642.299 652.899 642.72 652.413 642.989C651.928 643.259 651.368 643.363 650.818 643.285C650.268 643.207 649.759 642.952 649.367 642.558C648.974 642.165 648.722 641.654 648.647 641.105C648.571 640.555 648.677 639.994 648.949 639.51C649.22 639.026 649.643 638.644 650.151 638.421C650.66 638.198 651.228 638.147 651.768 638.276C652.228 638.386 652.649 638.622 652.983 638.958C653.317 639.293 653.551 639.715 653.66 640.176Z" fill="#61656D"/>
<path opacity="0.2" d="M653.661 640.176C653.554 639.715 653.32 639.292 652.986 638.957C652.652 638.621 652.231 638.385 651.769 638.276C651.453 638.216 651.128 638.216 650.812 638.276H651.045C651.625 638.409 652.14 638.741 652.5 639.214C652.861 639.688 653.044 640.272 653.018 640.866C652.992 641.46 652.759 642.027 652.359 642.467C651.959 642.908 651.417 643.193 650.828 643.276C651.237 643.333 651.654 643.291 652.044 643.151C652.434 643.012 652.783 642.779 653.062 642.473C653.341 642.168 653.541 641.799 653.646 641.399C653.751 640.998 653.755 640.579 653.661 640.176Z" fill="black"/>
<path d="M602.59 653.208L699.737 653.418V684.66L602.59 684.451V653.208Z" fill="#868A91"/>
<path opacity="0.2" d="M695.939 681.279L606.584 681.118V657.306L695.939 657.459V681.279ZM607.317 680.393L695.215 680.546V658.183L607.317 658.03V680.393Z" fill="black"/>
<path d="M653.66 668.35C653.786 668.891 653.733 669.459 653.508 669.966C653.283 670.474 652.899 670.895 652.413 671.164C651.928 671.433 651.368 671.537 650.818 671.46C650.268 671.382 649.759 671.127 649.367 670.733C648.974 670.34 648.722 669.829 648.647 669.279C648.571 668.729 648.677 668.169 648.949 667.685C649.22 667.201 649.643 666.818 650.151 666.595C650.66 666.372 651.228 666.322 651.768 666.451C652.228 666.561 652.649 666.797 652.983 667.132C653.317 667.468 653.551 667.89 653.66 668.35Z" fill="#61656D"/>
<path opacity="0.2" d="M653.661 668.351C653.554 667.89 653.32 667.467 652.986 667.132C652.652 666.796 652.231 666.56 651.769 666.452C651.453 666.391 651.128 666.391 650.812 666.452H651.045C651.625 666.584 652.14 666.916 652.5 667.389C652.861 667.863 653.044 668.447 653.018 669.041C652.992 669.635 652.759 670.202 652.359 670.642C651.959 671.083 651.417 671.368 650.828 671.451C651.237 671.509 651.654 671.466 652.044 671.326C652.434 671.187 652.783 670.954 653.062 670.648C653.341 670.343 653.541 669.974 653.646 669.574C653.751 669.173 653.755 668.754 653.661 668.351Z" fill="black"/>
<path d="M602.59 682.188L699.737 682.398V713.64L602.59 713.431V682.188Z" fill="#868A91"/>
<path opacity="0.2" d="M695.939 710.259L606.584 710.098V686.286L695.939 686.439V710.259ZM607.317 709.373L695.215 709.526V687.163L607.317 687.01V709.373Z" fill="black"/>
<path d="M653.66 697.33C653.786 697.871 653.733 698.439 653.508 698.946C653.283 699.454 652.899 699.875 652.413 700.144C651.928 700.413 651.368 700.517 650.818 700.44C650.268 700.362 649.759 700.107 649.367 699.713C648.974 699.32 648.722 698.809 648.647 698.259C648.571 697.709 648.677 697.149 648.949 696.665C649.22 696.181 649.643 695.798 650.151 695.575C650.66 695.352 651.228 695.302 651.768 695.43C652.228 695.541 652.649 695.777 652.983 696.112C653.317 696.448 653.551 696.87 653.66 697.33Z" fill="#61656D"/>
<path d="M614.215 800.17H602.945V817.88H614.215V800.17Z" fill="#868A91"/>
<path opacity="0.2" d="M614.215 800.17H608.58V817.848H614.215V800.17Z" fill="black"/>
<path d="M666.54 800.17H655.27V817.88H666.54V800.17Z" fill="#868A91"/>
<path opacity="0.2" d="M666.54 800.17H660.905V817.848H666.54V800.17Z" fill="black"/>
<path opacity="0.2" d="M653.661 697.331C653.554 696.87 653.32 696.447 652.986 696.112C652.652 695.776 652.231 695.54 651.769 695.432C651.453 695.371 651.128 695.371 650.812 695.432H651.045C651.625 695.564 652.14 695.896 652.5 696.369C652.861 696.843 653.044 697.427 653.018 698.021C652.992 698.615 652.759 699.182 652.359 699.622C651.959 700.063 651.417 700.348 650.828 700.431C651.237 700.488 651.654 700.446 652.044 700.306C652.434 700.166 652.783 699.934 653.062 699.628C653.341 699.323 653.541 698.954 653.646 698.554C653.751 698.153 653.755 697.734 653.661 697.331Z" fill="black"/>
<path d="M602.59 711.168L699.737 711.378V742.62L602.59 742.41V711.168Z" fill="#868A91"/>
<path opacity="0.2" d="M695.939 739.239L606.584 739.078V715.266L695.939 715.419V739.239ZM607.317 738.353L695.215 738.506V716.143L607.317 715.99V738.353Z" fill="black"/>
<path d="M653.66 726.31C653.786 726.851 653.733 727.419 653.508 727.926C653.283 728.434 652.899 728.855 652.413 729.124C651.928 729.393 651.368 729.497 650.818 729.42C650.268 729.342 649.759 729.087 649.367 728.693C648.974 728.3 648.722 727.789 648.647 727.239C648.571 726.689 648.677 726.129 648.949 725.645C649.22 725.161 649.643 724.778 650.151 724.555C650.66 724.332 651.228 724.282 651.768 724.41C652.228 724.521 652.649 724.757 652.983 725.092C653.317 725.428 653.551 725.85 653.66 726.31Z" fill="#61656D"/>
<path opacity="0.2" d="M653.661 726.311C653.554 725.85 653.32 725.427 652.986 725.092C652.652 724.756 652.231 724.52 651.769 724.411C651.453 724.351 651.128 724.351 650.812 724.411H651.045C651.625 724.544 652.14 724.876 652.5 725.349C652.861 725.823 653.044 726.407 653.018 727.001C652.992 727.595 652.759 728.162 652.359 728.602C651.959 729.043 651.417 729.328 650.828 729.411C651.237 729.469 651.654 729.426 652.044 729.286C652.434 729.147 652.783 728.914 653.062 728.608C653.341 728.303 653.541 727.934 653.646 727.534C653.751 727.133 653.755 726.714 653.661 726.311Z" fill="black"/>
<path d="M602.59 740.148L699.737 740.358V771.6L602.59 771.391V740.148Z" fill="#868A91"/>
<path opacity="0.2" d="M695.939 768.219L606.584 768.058V744.246L695.939 744.399V768.219ZM607.317 767.333L695.215 767.486V745.123L607.317 744.97V767.333Z" fill="black"/>
<path d="M653.66 755.29C653.786 755.831 653.733 756.399 653.508 756.906C653.283 757.414 652.899 757.835 652.413 758.104C651.928 758.373 651.368 758.477 650.818 758.4C650.268 758.322 649.759 758.067 649.367 757.673C648.974 757.28 648.722 756.769 648.647 756.219C648.571 755.669 648.677 755.109 648.949 754.625C649.22 754.141 649.643 753.758 650.151 753.535C650.66 753.312 651.228 753.262 651.768 753.39C652.228 753.501 652.649 753.737 652.983 754.072C653.317 754.408 653.551 754.83 653.66 755.29Z" fill="#61656D"/>
<path opacity="0.2" d="M653.661 755.291C653.554 754.83 653.32 754.407 652.986 754.072C652.652 753.736 652.231 753.5 651.769 753.391C651.453 753.331 651.128 753.331 650.812 753.391H651.045C651.625 753.524 652.14 753.856 652.5 754.329C652.861 754.803 653.044 755.387 653.018 755.981C652.992 756.575 652.759 757.142 652.359 757.582C651.959 758.023 651.417 758.308 650.828 758.39C651.237 758.448 651.654 758.406 652.044 758.266C652.434 758.126 652.783 757.894 653.062 757.588C653.341 757.283 653.541 756.914 653.646 756.514C653.751 756.113 653.755 755.694 653.661 755.291Z" fill="black"/>
<path d="M602.59 769.128L699.737 769.338V800.58L602.59 800.37V769.128Z" fill="#868A91"/>
<path opacity="0.2" d="M695.939 797.199L606.584 797.038V773.226L695.939 773.379V797.199ZM607.317 796.313L695.215 796.466V774.103L607.317 773.95V796.313Z" fill="black"/>
<path d="M653.66 784.271C653.786 784.811 653.733 785.379 653.508 785.886C653.283 786.394 652.899 786.815 652.413 787.084C651.928 787.354 651.368 787.457 650.818 787.38C650.268 787.302 649.759 787.047 649.367 786.653C648.974 786.26 648.722 785.749 648.647 785.199C648.571 784.65 648.677 784.089 648.949 783.605C649.22 783.121 649.643 782.739 650.151 782.516C650.66 782.293 651.228 782.242 651.768 782.371C652.228 782.481 652.649 782.717 652.983 783.053C653.317 783.388 653.551 783.81 653.66 784.271Z" fill="#61656D"/>
<path opacity="0.2" d="M653.661 784.271C653.554 783.81 653.32 783.387 652.986 783.052C652.652 782.716 652.231 782.48 651.769 782.371C651.453 782.311 651.128 782.311 650.812 782.371H651.045C651.625 782.504 652.14 782.836 652.5 783.309C652.861 783.783 653.044 784.367 653.018 784.961C652.992 785.555 652.759 786.122 652.359 786.562C651.959 787.003 651.417 787.288 650.828 787.37C651.237 787.428 651.654 787.386 652.044 787.246C652.434 787.106 652.783 786.874 653.062 786.568C653.341 786.263 653.541 785.894 653.646 785.494C653.751 785.093 653.755 784.674 653.661 784.271Z" fill="black"/>
<path opacity="0.2" d="M754.952 625.243H602.59V627.891H754.952V625.243Z" fill="black"/>
<path opacity="0.2" d="M479.716 625.243H424.509V627.891H479.716V625.243Z" fill="black"/>
<path opacity="0.2" d="M464.017 699.465H424.298V704.101H465.184L464.017 699.465Z" fill="black"/>
<path opacity="0.2" d="M479.515 699.465H468.205L467.561 704.101H479.515V699.465Z" fill="black"/>
<path d="M704.504 625.243V818.21H711.379V800.58H744.062V818.21H754.953V625.243H704.504Z" fill="#868A91"/>
<path d="M429.065 625.34V818.21H436.069V800.581H468.752V818.21H479.515V625.34H429.065Z" fill="#868A91"/>
<path opacity="0.2" d="M429.065 625.34V818.21H436.069V800.581H468.752V818.21H479.515V625.34H429.065Z" fill="black"/>
<path opacity="0.2" d="M704.504 625.243V818.21H711.379V800.58H744.062V818.21H754.953V625.243H704.504Z" fill="black"/>
<path d="M748.651 800.581H744.062V818.21H748.651V800.581Z" fill="#868A91"/>
<path d="M473.34 800.581H468.752V818.21H473.34V800.581Z" fill="#868A91"/>
<path d="M596.182 614.996H572.958L553.139 535.526H576.363L596.182 614.996Z" fill="#3F4249"/>
<path opacity="0.2" d="M596.182 614.996H572.958L553.139 535.526H576.363L596.182 614.996Z" fill="black"/>
<path d="M594.573 614.996H571.356L551.529 535.526H574.754L594.573 614.996Z" fill="#3F4249"/>
<path opacity="0.2" d="M592.166 598.895H567.299L566.261 594.71H591.119L592.166 598.895Z" fill="black"/>
<path d="M640.322 513.613H507.996V594.701H640.322V513.613Z" fill="#3F4249"/>
<path opacity="0.7" d="M635.693 517.349H512.625V590.959H635.693V517.349Z" fill="black"/>
<path d="M642.134 513.59H640.314V594.694H642.134V513.59Z" fill="#3F4249"/>
<path opacity="0.2" d="M642.134 513.59H640.314V594.694H642.134V513.59Z" fill="black"/>
<path d="M625.487 611.8H541.903V616.091H625.487V611.8Z" fill="#3F4249"/>
<path d="M559.771 522.742H520.825V525.801H559.771V522.742Z" fill="#D65A31"/>
<path d="M550.594 527.959H520.825V531.018H550.594V527.959Z" fill="#D65A31"/>
<path d="M556.422 533.167H520.825V536.226H556.422V533.167Z" fill="#D65A31"/>
<path d="M549.62 538.385H520.825V541.444H549.62V538.385Z" fill="#D65A31"/>
<path d="M562.663 543.592H530.117V546.651H562.663V543.592Z" fill="#D65A31"/>
<path d="M559.765 549.864H530.117V552.923H559.765V549.864Z" fill="#D65A31"/>
<path d="M550.594 555.079H520.825V558.138H550.594V555.079Z" fill="#D65A31"/>
<path d="M556.422 560.288H520.825V563.347H556.422V560.288Z" fill="#D65A31"/>
<path d="M549.62 565.496H520.825V568.556H549.62V565.496Z" fill="#D65A31"/>
<path d="M562.669 570.714H520.825V573.773H562.669V570.714Z" fill="#D65A31"/>
<path d="M569.193 576.687H533.596V579.746H569.193V576.687Z" fill="#D65A31"/>
<path d="M562.669 582.66H520.825V585.719H562.669V582.66Z" fill="#D65A31"/>
<g opacity="0.2">
<path opacity="0.2" d="M559.771 522.742H520.825V525.801H559.771V522.742Z" fill="black"/>
<path opacity="0.2" d="M550.594 527.959H520.825V531.019H550.594V527.959Z" fill="black"/>
<path opacity="0.2" d="M556.422 533.166H520.825V536.225H556.422V533.166Z" fill="black"/>
<path opacity="0.2" d="M549.62 538.383H520.825V541.442H549.62V538.383Z" fill="black"/>
<path opacity="0.2" d="M562.66 543.593H530.114V546.652H562.66V543.593Z" fill="black"/>
<path opacity="0.2" d="M559.762 549.863H530.114V552.922H559.762V549.863Z" fill="black"/>
<path opacity="0.2" d="M550.594 555.079H520.825V558.138H550.594V555.079Z" fill="black"/>
<path opacity="0.2" d="M556.422 560.288H520.825V563.347H556.422V560.288Z" fill="black"/>
<path opacity="0.2" d="M549.62 565.496H520.825V568.555H549.62V565.496Z" fill="black"/>
<path opacity="0.2" d="M562.669 570.712H520.825V573.771H562.669V570.712Z" fill="black"/>
<path opacity="0.2" d="M569.19 576.685H533.593V579.744H569.19V576.685Z" fill="black"/>
<path opacity="0.2" d="M562.669 582.658H520.825V585.717H562.669V582.658Z" fill="black"/>
</g>
<path d="M618.272 522.742H579.326V525.801H618.272V522.742Z" fill="#D65A31"/>
<path d="M609.095 527.959H579.326V531.018H609.095V527.959Z" fill="#D65A31"/>
<path d="M614.923 533.167H579.326V536.226H614.923V533.167Z" fill="#D65A31"/>
<path d="M608.121 538.385H579.326V541.444H608.121V538.385Z" fill="#D65A31"/>
<path d="M621.161 543.592H588.615V546.651H621.161V543.592Z" fill="#D65A31"/>
<path d="M618.263 549.864H588.615V552.923H618.263V549.864Z" fill="#D65A31"/>
<path d="M609.095 555.079H579.326V558.138H609.095V555.079Z" fill="#D65A31"/>
<path d="M614.923 560.288H579.326V563.347H614.923V560.288Z" fill="#D65A31"/>
<path d="M608.121 565.496H579.326V568.556H608.121V565.496Z" fill="#D65A31"/>
<path d="M621.17 570.714H579.326V573.773H621.17V570.714Z" fill="#D65A31"/>
<path d="M627.691 576.687H592.094V579.746H627.691V576.687Z" fill="#D65A31"/>
<path d="M621.17 582.66H579.326V585.719H621.17V582.66Z" fill="#D65A31"/>
<g opacity="0.2">
<path opacity="0.2" d="M618.272 522.742H579.326V525.801H618.272V522.742Z" fill="white"/>
<path opacity="0.2" d="M609.095 527.959H579.326V531.019H609.095V527.959Z" fill="white"/>
<path opacity="0.2" d="M614.923 533.166H579.326V536.225H614.923V533.166Z" fill="white"/>
<path opacity="0.2" d="M608.121 538.383H579.326V541.442H608.121V538.383Z" fill="white"/>
<path opacity="0.2" d="M621.161 543.593H588.615V546.652H621.161V543.593Z" fill="white"/>
<path opacity="0.2" d="M618.263 549.863H588.615V552.922H618.263V549.863Z" fill="white"/>
<path opacity="0.2" d="M609.095 555.079H579.326V558.138H609.095V555.079Z" fill="white"/>
<path opacity="0.2" d="M614.923 560.288H579.326V563.347H614.923V560.288Z" fill="white"/>
<path opacity="0.2" d="M608.121 565.496H579.326V568.555H608.121V565.496Z" fill="white"/>
<path opacity="0.2" d="M621.17 570.712H579.326V573.771H621.17V570.712Z" fill="white"/>
<path opacity="0.2" d="M627.691 576.685H592.094V579.744H627.691V576.685Z" fill="white"/>
<path opacity="0.2" d="M621.17 582.658H579.326V585.717H621.17V582.658Z" fill="white"/>
</g>
<path d="M997.685 356.163H750.163V544.179H997.685V356.163Z" fill="white"/>
<path opacity="0.13" d="M997.685 356.163H750.163V544.179H997.685V356.163Z" fill="black"/>
<path d="M984 366.628H736.478V554.644H984V366.628Z" fill="white"/>
<path opacity="0.08" d="M984 366.628H736.478V554.644H984V366.628Z" fill="black"/>
<path d="M971.12 380.313H723.598V568.329H971.12V380.313Z" fill="white"/>
<path d="M971.12 393.629H723.598V394.836H971.12V393.629Z" fill="#D65A31"/>
<path opacity="0.6" d="M971.12 393.629H723.695V394.836H971.12V393.629Z" fill="white"/>
<path d="M971.723 568.933H722.978V379.71H971.723V568.933ZM724.201 567.726H970.532V380.917H724.201V567.726Z" fill="#D65A31"/>
<path opacity="0.6" d="M971.723 568.933H722.978V379.71H971.723V568.933ZM724.201 567.726H970.532V380.917H724.201V567.726Z" fill="white"/>
<path d="M731.962 387.269C731.962 387.6 731.864 387.925 731.68 388.2C731.496 388.475 731.234 388.689 730.928 388.817C730.622 388.943 730.286 388.976 729.962 388.912C729.636 388.847 729.338 388.688 729.104 388.454C728.87 388.219 728.711 387.921 728.645 387.596C728.581 387.271 728.614 386.934 728.741 386.629C728.868 386.323 729.082 386.061 729.358 385.878C729.633 385.693 729.957 385.595 730.288 385.595C730.732 385.595 731.158 385.771 731.472 386.085C731.786 386.399 731.962 386.825 731.962 387.269Z" fill="#D65A31"/>
<path d="M737.7 387.269C737.7 387.6 737.602 387.925 737.418 388.2C737.234 388.475 736.973 388.689 736.667 388.817C736.361 388.943 736.024 388.976 735.699 388.912C735.375 388.847 735.076 388.688 734.842 388.454C734.608 388.219 734.449 387.921 734.384 387.596C734.319 387.271 734.352 386.934 734.479 386.629C734.606 386.323 734.821 386.061 735.096 385.878C735.371 385.693 735.695 385.595 736.026 385.595C736.47 385.595 736.896 385.771 737.21 386.085C737.524 386.399 737.7 386.825 737.7 387.269Z" fill="#D65A31"/>
<path d="M743.355 387.269C743.355 387.6 743.257 387.925 743.072 388.2C742.889 388.475 742.627 388.689 742.321 388.817C742.015 388.943 741.678 388.976 741.354 388.912C741.028 388.847 740.731 388.688 740.496 388.454C740.262 388.219 740.103 387.921 740.038 387.596C739.973 387.271 740.007 386.934 740.133 386.629C740.26 386.323 740.475 386.061 740.75 385.878C741.025 385.693 741.349 385.595 741.68 385.595C742.124 385.595 742.55 385.771 742.864 386.085C743.179 386.399 743.355 386.825 743.355 387.269Z" fill="#D65A31"/>
<path opacity="0.6" d="M731.962 387.269C731.962 387.6 731.864 387.925 731.68 388.2C731.496 388.475 731.234 388.689 730.928 388.817C730.622 388.943 730.286 388.976 729.962 388.912C729.636 388.847 729.338 388.688 729.104 388.454C728.87 388.219 728.711 387.921 728.645 387.596C728.581 387.271 728.614 386.934 728.741 386.629C728.868 386.323 729.082 386.061 729.358 385.878C729.633 385.693 729.957 385.595 730.288 385.595C730.732 385.595 731.158 385.771 731.472 386.085C731.786 386.399 731.962 386.825 731.962 387.269Z" fill="white"/>
<path opacity="0.6" d="M737.7 387.269C737.7 387.6 737.602 387.925 737.418 388.2C737.234 388.475 736.973 388.689 736.667 388.817C736.361 388.943 736.024 388.976 735.699 388.912C735.375 388.847 735.076 388.688 734.842 388.454C734.608 388.219 734.449 387.921 734.384 387.596C734.319 387.271 734.352 386.934 734.479 386.629C734.606 386.323 734.821 386.061 735.096 385.878C735.371 385.693 735.695 385.595 736.026 385.595C736.47 385.595 736.896 385.771 737.21 386.085C737.524 386.399 737.7 386.825 737.7 387.269Z" fill="white"/>
<path opacity="0.6" d="M743.355 387.269C743.355 387.6 743.257 387.925 743.072 388.2C742.889 388.475 742.627 388.689 742.321 388.817C742.015 388.943 741.678 388.976 741.354 388.912C741.028 388.847 740.731 388.688 740.496 388.454C740.262 388.219 740.103 387.921 740.038 387.596C739.973 387.271 740.007 386.934 740.133 386.629C740.26 386.323 740.475 386.061 740.75 385.878C741.025 385.693 741.349 385.595 741.68 385.595C742.124 385.595 742.55 385.771 742.864 386.085C743.179 386.399 743.355 386.825 743.355 387.269Z" fill="white"/>
<path d="M743.234 423.486H734.701V426.602H743.234V423.486Z" fill="#DADDDF"/>
<path d="M876.138 423.486H749.455V426.602H876.138V423.486Z" fill="#DADDDF"/>
<path d="M895.861 423.486H880.96V426.602H895.861V423.486Z" fill="#D65A31"/>
<path d="M919.704 465.202H904.804V468.318H919.704V465.202Z" fill="#DADDDF"/>
<path d="M949.329 423.486H899.097V426.602H949.329V423.486Z" fill="#B2B6BB"/>
<path d="M751.765 431.826H743.232V434.942H751.765V431.826Z" fill="#DADDDF"/>
<path d="M815.465 431.826H757.778V434.942H815.465V431.826Z" fill="#B2B6BB"/>
<path d="M901.262 465.202H878.923V468.318H901.262V465.202Z" fill="#B2B6BB"/>
<path d="M810.828 456.861H749.455V459.976H810.828V456.861Z" fill="#B2B6BB"/>
<path d="M800.83 440.175H757.778V443.29H800.83V440.175Z" fill="#D65A31"/>
<path d="M930.484 448.514H890.918V451.629H930.484V448.514Z" fill="#B2B6BB"/>
<path d="M900.948 440.175H805V443.29H900.948V440.175Z" fill="#B2B6BB"/>
<path d="M873.82 465.202H749.455V468.318H873.82V465.202Z" fill="#D65A31"/>
<path d="M962.78 431.826H897.43V434.942H962.78V431.826Z" fill="#D65A31"/>
<path d="M894.194 431.826H819.853V434.942H894.194V431.826Z" fill="#DADDDF"/>
<path d="M953.78 440.175H928.391V443.29H953.78V440.175Z" fill="#DADDDF"/>
<path d="M751.765 440.175H743.232V443.29H751.765V440.175Z" fill="#DADDDF"/>
<path d="M743.234 448.514H734.701V451.629H743.234V448.514Z" fill="#B2B6BB"/>
<path d="M799.896 448.514H749.455V451.629H799.896V448.514Z" fill="#DADDDF"/>
<path d="M808.22 473.549H757.778V476.665H808.22V473.549Z" fill="#DADDDF"/>
<path d="M939.966 481.888H880.251V485.004H939.966V481.888Z" fill="#D65A31"/>
<path d="M890.419 473.549H812.245V476.665H890.419V473.549Z" fill="#D65A31"/>
<path d="M876.194 481.888H782.46V485.004H876.194V481.888Z" fill="#DADDDF"/>
<path d="M772.381 481.888H757.778V485.004H772.381V481.888Z" fill="#B2B6BB"/>
<path d="M895.852 456.861H815.465V459.976H895.852V456.861Z" fill="#DADDDF"/>
<path d="M955.447 456.861H899.097V459.976H955.447V456.861Z" fill="#D65A31"/>
<path d="M887.271 448.514H804.195V451.629H887.271V448.514Z" fill="#D65A31"/>
<path d="M743.234 456.861H734.701V459.976H743.234V456.861Z" fill="#DADDDF"/>
<path d="M743.234 465.202H734.701V468.318H743.234V465.202Z" fill="#DADDDF"/>
<path d="M751.765 473.549H743.232V476.665H751.765V473.549Z" fill="#B2B6BB"/>
<path d="M751.765 481.888H743.232V485.004H751.765V481.888Z" fill="#DADDDF"/>
<path d="M743.234 488.877H734.701V491.993H743.234V488.877Z" fill="#DADDDF"/>
<path d="M849.533 488.877H749.455V491.993H849.533V488.877Z" fill="#DADDDF"/>
<path d="M751.765 497.224H743.232V500.34H751.765V497.224Z" fill="#DADDDF"/>
<path d="M822.033 497.224H757.778V500.34H822.033V497.224Z" fill="#B2B6BB"/>
<path d="M810.828 522.252H749.455V525.367H810.828V522.252Z" fill="#B2B6BB"/>
<path d="M800.83 505.563H757.778V508.679H800.83V505.563Z" fill="#D65A31"/>
<path d="M900.948 505.563H805V508.679H900.948V505.563Z" fill="#B2B6BB"/>
<path d="M873.82 530.601H749.455V533.716H873.82V530.601Z" fill="#D65A31"/>
<path d="M962.78 497.224H897.43V500.34H962.78V497.224Z" fill="#D65A31"/>
<path d="M894.194 497.224H825.93V500.34H894.194V497.224Z" fill="#DADDDF"/>
<path d="M953.78 505.563H928.391V508.679H953.78V505.563Z" fill="#DADDDF"/>
<path d="M751.765 505.563H743.232V508.679H751.765V505.563Z" fill="#DADDDF"/>
<path d="M743.234 513.912H734.701V517.028H743.234V513.912Z" fill="#B2B6BB"/>
<path d="M799.896 513.912H749.455V517.028H799.896V513.912Z" fill="#DADDDF"/>
<path d="M895.852 522.252H814.66V525.367H895.852V522.252Z" fill="#DADDDF"/>
<path d="M887.271 513.912H804.195V517.028H887.271V513.912Z" fill="#D65A31"/>
<path d="M743.234 522.252H734.701V525.367H743.234V522.252Z" fill="#DADDDF"/>
<path d="M742.959 415.646L745.824 408.819C745.857 408.74 745.906 408.669 745.967 408.609C746.028 408.55 746.101 408.503 746.18 408.472C746.259 408.439 746.344 408.424 746.43 408.426C746.515 408.428 746.6 408.447 746.678 408.481C746.826 408.546 746.943 408.667 747.005 408.817C747.066 408.967 747.067 409.135 747.008 409.286L744.134 416.129C744.082 416.243 743.999 416.341 743.893 416.41C743.787 416.478 743.664 416.515 743.538 416.515C743.458 416.518 743.377 416.501 743.305 416.467C743.228 416.435 743.157 416.39 743.099 416.332C743.04 416.274 742.992 416.204 742.96 416.128C742.928 416.051 742.912 415.969 742.911 415.887C742.911 415.804 742.927 415.722 742.959 415.646Z" fill="#D65A31"/>
<path d="M752.676 412.892C752.65 412.922 752.62 412.95 752.587 412.972L749.295 416.313C749.154 416.448 748.966 416.523 748.771 416.522C748.576 416.525 748.388 416.449 748.248 416.313C748.177 416.245 748.121 416.163 748.082 416.072C748.044 415.982 748.024 415.885 748.024 415.786C748.024 415.688 748.044 415.59 748.082 415.499C748.121 415.409 748.177 415.327 748.248 415.259L751.017 412.457L748.248 409.656C748.177 409.587 748.121 409.506 748.082 409.415C748.044 409.325 748.024 409.228 748.024 409.129C748.024 409.03 748.044 408.933 748.082 408.843C748.121 408.752 748.177 408.67 748.248 408.601C748.389 408.467 748.577 408.391 748.771 408.391C748.966 408.391 749.154 408.467 749.295 408.601L752.587 411.942C752.62 411.965 752.65 411.992 752.676 412.022C752.697 412.056 752.716 412.091 752.732 412.127C752.727 412.162 752.727 412.197 752.732 412.232C752.732 412.232 752.732 412.232 752.732 412.272V412.353C752.732 412.353 752.732 412.353 752.732 412.409V412.562C752.728 412.597 752.728 412.632 752.732 412.667C752.726 412.745 752.706 412.82 752.676 412.892Z" fill="#D65A31"/>
<path d="M743.763 548.471L746.629 541.644C746.662 541.565 746.71 541.494 746.772 541.434C746.833 541.375 746.905 541.328 746.985 541.296C747.064 541.264 747.149 541.249 747.235 541.251C747.32 541.253 747.404 541.272 747.482 541.306C747.631 541.371 747.747 541.492 747.809 541.642C747.87 541.792 747.872 541.96 747.813 542.111L744.939 548.954C744.887 549.068 744.803 549.166 744.698 549.235C744.592 549.303 744.469 549.34 744.343 549.34C744.262 549.343 744.182 549.326 744.109 549.292C744.032 549.26 743.962 549.214 743.903 549.156C743.845 549.099 743.797 549.029 743.765 548.953C743.733 548.876 743.717 548.794 743.716 548.712C743.716 548.629 743.732 548.547 743.763 548.471Z" fill="#D65A31"/>
<path d="M753.481 545.717C753.455 545.747 753.426 545.775 753.393 545.797L750.1 549.138C749.959 549.272 749.772 549.348 749.577 549.347C749.381 549.35 749.194 549.274 749.054 549.138C748.983 549.07 748.927 548.988 748.888 548.897C748.849 548.807 748.83 548.71 748.83 548.611C748.83 548.513 748.849 548.415 748.888 548.324C748.927 548.234 748.983 548.152 749.054 548.084L751.823 545.282L749.054 542.481C748.983 542.412 748.927 542.331 748.888 542.24C748.849 542.15 748.83 542.052 748.83 541.953C748.83 541.855 748.849 541.758 748.888 541.667C748.927 541.577 748.983 541.495 749.054 541.426C749.195 541.292 749.382 541.216 749.577 541.216C749.772 541.216 749.959 541.292 750.1 541.426L753.393 544.767C753.426 544.79 753.455 544.817 753.481 544.847C753.503 544.881 753.521 544.916 753.538 544.952C753.533 544.987 753.533 545.022 753.538 545.057C753.538 545.057 753.538 545.057 753.538 545.097V545.177C753.538 545.177 753.538 545.177 753.538 545.234V545.387C753.534 545.422 753.534 545.457 753.538 545.491C753.531 545.57 753.512 545.645 753.481 545.717Z" fill="#D65A31"/>
<path opacity="0.4" d="M895.861 423.486H880.96V426.602H895.861V423.486Z" fill="white"/>
<path opacity="0.4" d="M800.83 440.175H757.778V443.29H800.83V440.175Z" fill="white"/>
<path opacity="0.4" d="M873.82 465.202H749.455V468.318H873.82V465.202Z" fill="white"/>
<path opacity="0.4" d="M962.78 431.826H897.43V434.942H962.78V431.826Z" fill="white"/>
<path opacity="0.4" d="M939.966 481.888H880.251V485.004H939.966V481.888Z" fill="white"/>
<path opacity="0.4" d="M890.419 473.549H812.245V476.665H890.419V473.549Z" fill="white"/>
<path opacity="0.4" d="M955.447 456.861H899.097V459.976H955.447V456.861Z" fill="white"/>
<path opacity="0.4" d="M887.271 448.514H804.195V451.629H887.271V448.514Z" fill="white"/>
<path opacity="0.4" d="M800.83 505.563H757.778V508.679H800.83V505.563Z" fill="white"/>
<path opacity="0.4" d="M873.82 530.601H749.455V533.716H873.82V530.601Z" fill="white"/>
<path opacity="0.4" d="M962.78 497.224H897.43V500.34H962.78V497.224Z" fill="white"/>
<path opacity="0.4" d="M887.271 513.912H804.195V517.028H887.271V513.912Z" fill="white"/>
<g opacity="0.4">
<path opacity="0.4" d="M742.959 415.646L745.824 408.819C745.857 408.74 745.906 408.669 745.967 408.609C746.028 408.55 746.101 408.503 746.18 408.472C746.259 408.439 746.344 408.424 746.43 408.426C746.515 408.428 746.6 408.447 746.678 408.481C746.826 408.546 746.943 408.667 747.005 408.817C747.066 408.967 747.067 409.135 747.008 409.286L744.134 416.129C744.082 416.243 743.999 416.341 743.893 416.41C743.787 416.478 743.664 416.515 743.538 416.515C743.458 416.518 743.377 416.501 743.305 416.467C743.228 416.435 743.157 416.39 743.099 416.332C743.04 416.274 742.992 416.204 742.96 416.128C742.928 416.051 742.912 415.969 742.911 415.887C742.911 415.804 742.927 415.722 742.959 415.646Z" fill="white"/>
<path opacity="0.4" d="M752.673 412.892C752.647 412.922 752.617 412.95 752.584 412.972L749.292 416.313C749.151 416.448 748.963 416.523 748.769 416.522C748.574 416.525 748.385 416.449 748.245 416.313C748.174 416.245 748.118 416.163 748.079 416.072C748.041 415.982 748.021 415.885 748.021 415.786C748.021 415.688 748.041 415.59 748.079 415.499C748.118 415.409 748.174 415.327 748.245 415.259L751.014 412.457L748.245 409.656C748.174 409.587 748.118 409.506 748.079 409.415C748.041 409.325 748.021 409.228 748.021 409.129C748.021 409.03 748.041 408.933 748.079 408.843C748.118 408.752 748.174 408.67 748.245 408.601C748.386 408.467 748.574 408.391 748.769 408.391C748.963 408.391 749.151 408.467 749.292 408.601L752.584 411.942C752.617 411.965 752.647 411.992 752.673 412.022C752.695 412.056 752.713 412.091 752.729 412.127C752.724 412.162 752.724 412.197 752.729 412.232C752.729 412.232 752.729 412.232 752.729 412.272V412.353C752.729 412.353 752.729 412.353 752.729 412.409V412.562C752.725 412.597 752.725 412.632 752.729 412.667C752.723 412.745 752.704 412.82 752.673 412.892Z" fill="white"/>
</g>
<g opacity="0.4">
<path opacity="0.4" d="M743.763 548.471L746.629 541.644C746.662 541.565 746.71 541.494 746.772 541.434C746.833 541.375 746.905 541.328 746.985 541.296C747.064 541.264 747.149 541.249 747.235 541.251C747.32 541.253 747.404 541.272 747.482 541.306C747.631 541.371 747.747 541.492 747.809 541.642C747.87 541.792 747.872 541.96 747.813 542.111L744.939 548.954C744.887 549.068 744.803 549.166 744.698 549.235C744.592 549.303 744.469 549.34 744.343 549.34C744.262 549.343 744.182 549.326 744.109 549.292C744.032 549.26 743.962 549.214 743.903 549.156C743.845 549.099 743.797 549.029 743.765 548.953C743.733 548.876 743.717 548.794 743.716 548.712C743.716 548.629 743.732 548.547 743.763 548.471Z" fill="white"/>
<path opacity="0.4" d="M753.477 545.717C753.452 545.747 753.422 545.775 753.389 545.797L750.096 549.138C749.956 549.272 749.768 549.348 749.573 549.347C749.378 549.35 749.19 549.274 749.05 549.138C748.979 549.07 748.923 548.988 748.884 548.897C748.846 548.807 748.826 548.71 748.826 548.611C748.826 548.513 748.846 548.415 748.884 548.324C748.923 548.234 748.979 548.152 749.05 548.084L751.819 545.282L749.05 542.481C748.979 542.412 748.923 542.331 748.884 542.24C748.846 542.15 748.826 542.052 748.826 541.953C748.826 541.855 748.846 541.758 748.884 541.667C748.923 541.577 748.979 541.495 749.05 541.426C749.191 541.292 749.378 541.216 749.573 541.216C749.768 541.216 749.956 541.292 750.096 541.426L753.389 544.767C753.422 544.79 753.452 544.817 753.477 544.847C753.499 544.881 753.518 544.916 753.534 544.952C753.529 544.987 753.529 545.022 753.534 545.057C753.534 545.057 753.534 545.057 753.534 545.097V545.177C753.534 545.177 753.534 545.177 753.534 545.234V545.387C753.53 545.422 753.53 545.457 753.534 545.491C753.527 545.57 753.509 545.645 753.477 545.717Z" fill="white"/>
</g>
<path d="M537.999 759.259C535.23 766.746 531.745 774.868 530.449 780.495C529.998 782.427 529.861 784.415 530.988 786.05L547.04 810.265C552.208 823.499 519.67 794.768 515.926 793.198L514.815 792.723C510.573 790.936 497.58 786.017 503.755 778.499L508.045 771.632C510.098 767.816 513.189 757.947 515.097 752.626L537.999 759.259Z" fill="#FC9D9D"/>
<path opacity="0.15" d="M526.994 745.945L524.724 737.581L514.822 752.812C512.914 758.133 510.097 767.817 508.044 771.633L503.753 778.499C501.636 781.083 501.628 783.273 502.715 785.1L507.617 787.427C517.181 768.292 526.994 745.945 526.994 745.945Z" fill="black"/>
<path d="M511.416 788.241C511.724 788.241 512.019 788.118 512.236 787.901C512.454 787.684 512.575 787.389 512.575 787.082C512.575 786.774 512.454 786.479 512.236 786.262C512.019 786.044 511.724 785.922 511.416 785.922C511.109 785.922 510.814 786.044 510.597 786.262C510.379 786.479 510.257 786.774 510.257 787.082C510.257 787.389 510.379 787.684 510.597 787.901C510.814 788.118 511.109 788.241 511.416 788.241Z" fill="#FC9D9D"/>
<path d="M452.152 637.73H572.275C575.201 637.731 578.077 638.486 580.627 639.921C583.177 641.355 585.316 643.422 586.836 645.922C588.357 648.422 589.209 651.271 589.311 654.195C589.412 657.12 588.76 660.021 587.417 662.62L532.854 777.993L508.527 766.997L537.128 678.865H469.049L452.152 637.73Z" fill="#3F4249"/>
<path opacity="0.3" d="M452.152 637.73H563.991C565.2 637.734 566.39 638.036 567.454 638.61C568.518 639.184 569.425 640.011 570.093 641.019C570.761 642.027 571.17 643.184 571.284 644.389C571.398 645.592 571.213 646.806 570.745 647.921L569.24 651.463L569.819 652.268C572.613 656.293 573.844 662.636 574.762 667.837L577.177 681.522C577.189 681.591 577.188 681.662 577.173 681.731C577.158 681.799 577.129 681.865 577.089 681.923C577.049 681.981 576.997 682.03 576.938 682.067C576.878 682.105 576.811 682.13 576.742 682.142H576.654C576.527 682.143 576.403 682.1 576.306 682.018C576.209 681.937 576.143 681.824 576.122 681.699L573.707 668.062C572.79 662.902 571.558 656.623 568.749 652.646L519.153 771.577L508.527 766.997L537.128 678.865H469.049L452.152 637.73Z" fill="black"/>
<path d="M590.539 771.335C592.245 779.135 593.694 787.854 595.634 793.287C596.303 795.163 597.244 796.902 599.088 797.667L625.653 809.403C637.148 817.759 594.258 811.134 590.233 811.818L589.041 812.02C584.501 812.825 570.913 815.666 572.056 806.006L571.959 797.908C571.629 793.593 568.908 783.619 567.645 778.105L590.539 771.335Z" fill="#FC9D9D"/>
<path opacity="0.15" d="M574.086 766.062L567.646 760.242L567.525 778.435C568.789 783.941 571.639 793.617 571.969 797.932L572.066 806.03C571.671 809.355 572.871 811.198 574.746 812.148L580.132 811.464C577.886 790.172 574.086 766.062 574.086 766.062Z" fill="black"/>
<path d="M583.164 810.257C583.472 810.257 583.766 810.136 583.984 809.919C584.202 809.701 584.323 809.403 584.323 809.097C584.323 808.792 584.202 808.494 583.984 808.276C583.766 808.059 583.472 807.938 583.164 807.938C582.857 807.938 582.562 808.059 582.345 808.276C582.127 808.494 582.005 808.792 582.005 809.097C582.005 809.403 582.127 809.701 582.345 809.919C582.562 810.136 582.857 810.257 583.164 810.257Z" fill="#FC9D9D"/>
<path d="M414.326 662.902L416.653 665.366C420.718 669.642 425.597 673.064 431.004 675.426C436.411 677.789 442.236 679.046 448.136 679.123L535.076 680.258L569.345 791.63L595.701 786.486L572.187 660.906C571.369 656.459 569.145 652.392 565.842 649.304C562.54 646.215 558.333 644.269 553.841 643.751L474.428 634.59L414.326 662.902Z" fill="#3F4249"/>
<path opacity="0.3" d="M434.419 653.436C441.728 663.852 457.426 667.708 469.404 667.837L538.546 669.906C540.858 669.973 543.086 670.782 544.901 672.215C546.716 673.647 548.022 675.626 548.624 677.859L577.991 789.706L569.321 791.63L535.052 680.226L451.525 679.163C444.553 679.072 437.67 677.586 431.28 674.791C424.892 671.997 419.127 667.952 414.326 662.894L434.419 653.436Z" fill="black"/>
<path d="M419.653 542.98L388.467 593.84C387.449 595.504 386.892 597.41 386.855 599.36C386.817 601.311 387.3 603.236 388.254 604.938C389.207 606.641 390.597 608.057 392.279 609.044C393.963 610.031 395.879 610.551 397.829 610.552H430.198L419.653 542.98Z" fill="#D65A31"/>
<path d="M477.638 494.448L480.359 510.709C480.496 511.514 484.891 515.386 484.818 516.722C484.834 517.396 484.613 518.055 484.195 518.583C483.775 519.111 483.184 519.475 482.524 519.612C481.445 519.854 481.148 519.693 481.148 519.693L479.151 528.322C478.201 532.887 475.183 536.614 469.403 535.567L464.09 534.762L458.334 548.447L436.889 532.589L442.797 515.016L450.324 490.149L477.638 494.448Z" fill="#FC9D9D"/>
<path d="M438.975 489.215C441.655 483.966 445.085 482.147 450.422 482.485C450.85 482.465 451.265 482.331 451.624 482.098C451.984 481.865 452.274 481.54 452.467 481.157C453.521 479.353 456.186 476.262 461.933 476.536C463.574 476.558 465.182 476.997 466.606 477.813C468.03 478.628 469.223 479.793 470.072 481.197C470.431 481.747 470.976 482.149 471.607 482.329C472.239 482.51 472.914 482.457 473.509 482.179C474.745 481.615 476.106 481.38 477.46 481.495C478.813 481.611 480.114 482.073 481.237 482.839C487.226 486.631 484.747 496.967 478.355 497.893L473.244 498.408C472.777 498.458 472.343 498.669 472.016 499.006C471.689 499.343 471.491 499.783 471.457 500.251C471.375 501.158 471.122 502.041 470.708 502.851C470.037 504.192 468.972 505.294 467.658 506.013C466.343 506.733 464.84 507.034 463.35 506.876C463.184 506.864 463.016 506.887 462.859 506.943C462.702 506.999 462.559 507.088 462.438 507.203C462.317 507.319 462.222 507.458 462.159 507.613C462.095 507.767 462.065 507.933 462.07 508.1L462.167 513.848C462.176 514.145 462.098 514.438 461.946 514.694C461.793 514.949 461.571 515.156 461.305 515.289C461.116 515.376 460.91 515.423 460.702 515.426C460.493 515.429 460.286 515.388 460.095 515.305C459.903 515.222 459.731 515.099 459.59 514.946C459.449 514.791 459.343 514.609 459.277 514.411L458.045 510.595C457.831 509.957 457.437 509.394 456.909 508.973C456.383 508.554 455.745 508.295 455.075 508.229L453.569 508.084C452.112 510.265 450.776 512.713 449.544 514.604C448.736 515.905 447.725 517.068 446.55 518.05C444.409 519.708 442.654 519.161 441.567 516.947C441.567 516.947 434.781 502.634 437.936 491.992C438.211 491.045 438.575 490.126 439.023 489.247" fill="black"/>
<path opacity="0.15" d="M446.511 518.05L450.753 518.492L451.204 518.734C452.677 519.466 455.132 520.424 457.137 519.877C457.278 519.834 457.397 519.738 457.468 519.608C457.538 519.479 457.555 519.326 457.515 519.185C457.474 519.044 457.379 518.925 457.251 518.855C457.122 518.784 456.972 518.766 456.831 518.806C456.498 518.894 456.153 518.938 455.808 518.935L449.497 514.604C448.689 515.902 447.681 517.065 446.511 518.05Z" fill="black"/>
<path d="M455.887 507.481C455.645 506.962 455.292 506.504 454.854 506.137C454.416 505.769 453.903 505.502 453.351 505.355C452.798 505.207 452.22 505.181 451.658 505.28C451.094 505.379 450.56 505.6 450.091 505.927C445.591 508.527 447.676 519.202 455.807 518.936C460.057 518.791 458.93 516.473 457.859 513.301L455.887 507.481Z" fill="#FC9D9D"/>
<path opacity="0.15" d="M450.165 508.76C450.462 508.471 450.813 508.246 451.2 508.099C451.586 507.953 451.998 507.886 452.411 507.907C452.814 507.971 453.199 508.118 453.543 508.339C453.886 508.559 454.181 508.848 454.408 509.187C455.019 510.025 455.404 511.006 455.527 512.036L455.704 512.97C455.72 513.1 455.684 513.231 455.605 513.335C455.524 513.439 455.407 513.507 455.277 513.525C455.213 513.534 455.147 513.53 455.084 513.513C455.021 513.497 454.961 513.468 454.91 513.428C454.858 513.389 454.815 513.339 454.783 513.282C454.751 513.226 454.73 513.163 454.722 513.099L454.536 512.165C454.42 511.3 454.106 510.474 453.619 509.75C453.317 509.289 452.845 508.965 452.307 508.848C452.027 508.844 451.749 508.898 451.49 509.004C451.232 509.11 450.998 509.269 450.801 509.468C450.702 509.553 450.573 509.594 450.444 509.583C450.313 509.573 450.193 509.511 450.109 509.412C450.024 509.312 449.983 509.183 449.994 509.054C450.004 508.924 450.066 508.804 450.165 508.72" fill="black"/>
<path d="M414.326 662.91C430.112 664.3 445.806 659.38 457.973 649.225L474.193 635.685L457.924 596.385L483.242 568.331L482.034 564.724C480.067 558.81 476.034 553.803 470.676 550.621L464.477 546.942L462.682 540.067L438.677 524.772L434.748 531.937C429.055 533.637 424.013 537.027 420.289 541.657C416.566 546.287 414.338 551.94 413.899 557.866L408.014 621.388C407.258 631.588 407.048 641.127 409.697 652.373C410.263 654.792 411.154 657.123 412.345 659.304L414.326 662.91Z" fill="#D65A31"/>
<path opacity="0.2" d="M474.192 635.693L456.796 593.672C456.762 593.569 456.709 593.475 456.638 593.393C456.568 593.311 456.482 593.244 456.385 593.196C456.289 593.147 456.184 593.118 456.076 593.11C455.968 593.102 455.861 593.115 455.758 593.149C455.655 593.183 455.56 593.236 455.479 593.307C455.397 593.378 455.33 593.463 455.281 593.56C455.233 593.656 455.204 593.761 455.196 593.869C455.188 593.977 455.2 594.085 455.234 594.188L468.026 640.395L474.192 635.693Z" fill="black"/>
<path opacity="0.2" d="M464.484 547.585C464.597 547.587 464.709 547.558 464.807 547.501C464.905 547.444 464.985 547.362 465.039 547.263C465.12 547.117 465.141 546.944 465.096 546.783C465.05 546.622 464.943 546.484 464.798 546.402L439.279 532.105C439.206 532.063 439.125 532.037 439.042 532.028C438.958 532.018 438.873 532.025 438.793 532.048C438.712 532.071 438.636 532.11 438.571 532.163C438.505 532.215 438.45 532.281 438.41 532.355C438.369 532.427 438.343 532.508 438.333 532.59C438.324 532.673 438.331 532.757 438.354 532.838C438.378 532.917 438.416 532.992 438.469 533.057C438.521 533.123 438.586 533.176 438.659 533.216L464.178 547.553C464.273 547.6 464.377 547.625 464.484 547.625" fill="black"/>
<path opacity="0.2" d="M414.342 556.038L402.742 610.552H409.013L415.075 556.15C415.089 556.054 415.065 555.954 415.007 555.875C414.949 555.796 414.861 555.743 414.765 555.728C414.667 555.713 414.568 555.737 414.49 555.795C414.41 555.853 414.357 555.941 414.342 556.038Z" fill="black"/>
<path opacity="0.15" d="M464.083 534.745L460.702 534.117C460.513 534.08 460.317 534.104 460.14 534.185C459.965 534.266 459.819 534.399 459.723 534.567C459.628 534.734 459.586 534.928 459.607 535.12C459.626 535.312 459.705 535.493 459.833 535.638L462.57 537.964L464.083 534.745Z" fill="black"/>
<path d="M541.091 602.141L495.302 611.752L492.082 600.289L464.366 611.511L471.611 633.093C474.203 638.285 477.939 641.884 484.354 641.578C493.942 641.127 558.664 610.988 558.664 610.988L553.665 600.233L545.027 601.344" fill="#FC9D9D"/>
<path d="M477.366 509.872C477.656 508.849 477.366 507.851 476.48 507.577C475.595 507.304 474.782 507.818 474.42 508.744C474.057 509.669 474.42 510.765 475.297 511.039C475.51 511.099 475.732 511.118 475.952 511.092C476.171 511.066 476.384 510.997 476.576 510.888C476.769 510.78 476.938 510.634 477.073 510.459C477.209 510.285 477.308 510.085 477.366 509.872Z" fill="black"/>
<path d="M477.035 510.032C477.04 509.941 477.012 509.852 476.956 509.78C476.899 509.709 476.819 509.661 476.73 509.645C476.639 509.643 476.552 509.673 476.481 509.728C476.411 509.785 476.362 509.863 476.343 509.951C476.339 510.041 476.368 510.13 476.424 510.201C476.481 510.272 476.561 510.32 476.649 510.338C476.74 510.345 476.83 510.317 476.902 510.26C476.973 510.203 477.022 510.122 477.035 510.032Z" fill="white"/>
<path d="M479.45 505.138C479.257 505.444 477.92 505.05 476.286 504.929C474.652 504.808 473.283 504.929 473.122 504.639C473.058 504.478 473.332 504.213 473.927 503.987C474.716 503.717 475.552 503.613 476.383 503.679C477.214 503.746 478.022 503.982 478.758 504.374C479.289 504.688 479.538 504.993 479.45 505.138Z" fill="black"/>
<path d="M480.24 523.62C478.94 523.747 477.63 523.698 476.343 523.475C476.062 523.411 476.005 523.813 476.199 524.079C477.072 525.147 478.307 525.857 479.668 526.076L480.24 523.62Z" fill="white"/>
<path d="M579.6 608.581C579.6 608.581 566.463 610.915 558.96 610.288L557.865 606.166L570.512 605.474L579.6 608.581Z" fill="#FC9D9D"/>
<path opacity="0.15" d="M579.6 608.581C579.6 608.581 566.463 610.915 558.96 610.288L557.865 606.166L570.512 605.474L579.6 608.581Z" fill="black"/>
<path d="M570.626 601.995L579.553 603.975L585.044 614.537C585.166 614.787 585.203 615.07 585.148 615.342C585.114 615.501 585.048 615.651 584.955 615.784C584.862 615.918 584.744 616.031 584.607 616.118C584.47 616.205 584.317 616.264 584.156 616.29C583.997 616.318 583.833 616.313 583.675 616.276C583.144 616.161 582.678 615.844 582.379 615.39L577.702 607.944L573.629 606.873L570.626 601.995Z" fill="#FC9D9D"/>
<path d="M589.068 611.18C589.074 611.375 589.042 611.569 588.973 611.752C588.904 611.934 588.8 612.1 588.665 612.242C588.532 612.384 588.371 612.497 588.192 612.576C588.014 612.655 587.822 612.697 587.627 612.702C587.147 612.717 586.675 612.582 586.275 612.315L582.644 609.9L579.553 603.943L588.408 609.989C588.607 610.118 588.771 610.295 588.886 610.503C589.001 610.71 589.064 610.943 589.068 611.18Z" fill="#FC9D9D"/>
<path opacity="0.15" d="M580.053 611.711L578.104 606.616L570.626 601.995L573.629 606.906L577.702 607.976L580.053 611.711Z" fill="black"/>
<path d="M579.553 603.975L590.211 606.341C590.398 606.383 590.569 606.473 590.711 606.601C590.852 606.73 590.957 606.893 591.016 607.074C591.098 607.326 591.085 607.6 590.981 607.843C590.875 608.086 590.684 608.281 590.444 608.394H590.38C590.149 608.509 589.886 608.545 589.631 608.499L585.043 607.694L579.553 603.975Z" fill="#FC9D9D"/>
<path opacity="0.15" d="M584.157 610.93L579.553 603.975L582.644 609.932L584.157 610.93Z" fill="black"/>
<path opacity="0.15" d="M586.765 608.097L585.042 607.719L579.971 604.072L580.848 604.265L586.765 608.097Z" fill="black"/>
<path d="M544.985 601.335L546.595 604.676L552.931 612.436C553.469 613.423 554.249 614.257 555.198 614.86C556.148 615.462 557.234 615.814 558.356 615.881C561.451 616.041 564.515 616.582 567.477 617.491C567.689 617.559 567.915 617.567 568.131 617.515C568.347 617.462 568.544 617.35 568.701 617.194C568.97 616.919 569.12 616.551 569.12 616.167C569.12 615.783 568.97 615.414 568.701 615.141L568.636 615.068C567.648 614.029 566.4 613.273 565.022 612.879L561.254 611.663C560.763 611.526 560.522 610.737 560.554 610.23C560.573 609.993 560.671 609.768 560.831 609.592C560.991 609.416 561.205 609.298 561.44 609.256L567.364 607.598C567.724 607.535 568.093 607.546 568.448 607.628C568.804 607.711 569.139 607.865 569.433 608.081L572.508 610.319L575.229 617.515C575.298 617.7 575.413 617.865 575.562 617.994C575.711 618.123 575.89 618.213 576.083 618.256H576.179C576.487 618.321 576.807 618.263 577.072 618.094C577.337 617.926 577.525 617.66 577.596 617.355C577.628 617.187 577.628 617.015 577.596 616.847L575.72 608.049L572.5 602.414L560.288 599.628C559.497 599.446 558.681 599.397 557.873 599.484L544.985 601.335Z" fill="#FC9D9D"/>
<path d="M492.724 601.891L483.241 568.33L457.932 596.36L465.491 614.61L492.724 601.891Z" fill="#D65A31"/>
<path opacity="0.15" d="M495.654 611.8L490.172 613.515C490.052 613.556 489.922 613.557 489.802 613.519C489.681 613.479 489.578 613.401 489.505 613.297C489.434 613.193 489.397 613.069 489.403 612.942C489.409 612.816 489.455 612.694 489.536 612.597L494.712 608.435L495.654 611.8Z" fill="black"/>
<path d="M570.353 796.709V813.05C570.351 813.686 570.476 814.306 570.719 814.894C570.962 815.473 571.318 816.005 571.768 816.447C572.217 816.898 572.75 817.244 573.337 817.486C573.923 817.719 574.55 817.84 575.183 817.832H630.728C631.258 817.832 631.767 817.615 632.142 817.244C632.518 816.866 632.73 816.359 632.732 815.827C632.722 813.928 632.119 812.076 631.006 810.531C629.894 808.993 628.327 807.834 626.525 807.23L613.992 803.092L598.117 790.752C597.317 790.129 596.326 789.803 595.312 789.826C594.299 789.849 593.325 790.222 592.554 790.88L585.503 796.894C584.997 797.333 584.389 797.638 583.735 797.778C583.08 797.919 582.4 797.892 581.759 797.699L572.84 794.93C572.557 794.841 572.257 794.819 571.965 794.866C571.672 794.913 571.394 795.027 571.153 795.199C570.912 795.372 570.714 795.598 570.576 795.859C570.436 796.122 570.36 796.412 570.353 796.709Z" fill="#D65A31"/>
<path d="M575.139 817.88H630.684C631.215 817.88 631.723 817.663 632.099 817.292C632.474 816.914 632.686 816.407 632.688 815.876C632.703 815.199 632.614 814.523 632.422 813.879H570.405C570.6 814.998 571.181 816.004 572.046 816.737C572.911 817.469 574.006 817.872 575.139 817.88Z" fill="#D65A31"/>
<path opacity="0.5" d="M575.139 817.88H630.684C631.215 817.88 631.723 817.663 632.099 817.292C632.474 816.914 632.686 816.407 632.688 815.876C632.703 815.199 632.614 814.523 632.422 813.879H570.405C570.6 814.998 571.181 816.004 572.046 816.737C572.911 817.469 574.006 817.872 575.139 817.88Z" fill="black"/>
<path d="M597.762 797.287C597.64 797.285 597.523 797.239 597.432 797.158C597.34 797.064 597.288 796.937 597.288 796.804C597.288 796.672 597.34 796.545 597.432 796.45L600.805 792.835C600.898 792.742 601.026 792.689 601.159 792.689C601.292 792.689 601.419 792.742 601.514 792.835C601.607 792.93 601.66 793.057 601.66 793.19C601.66 793.323 601.607 793.451 601.514 793.544L598.116 797.158C598.009 797.227 597.888 797.27 597.762 797.287Z" fill="white"/>
<path d="M600.417 799.365C600.294 799.362 600.177 799.317 600.086 799.236C599.994 799.141 599.942 799.014 599.942 798.882C599.942 798.749 599.994 798.622 600.086 798.528L603.451 794.905C603.545 794.811 603.673 794.758 603.806 794.758C603.938 794.758 604.066 794.811 604.16 794.905C604.253 794.999 604.306 795.127 604.306 795.26C604.306 795.392 604.253 795.52 604.16 795.614L600.795 799.236C600.681 799.31 600.551 799.355 600.417 799.365Z" fill="white"/>
<path d="M603.06 801.434C602.94 801.431 602.825 801.385 602.738 801.305C602.645 801.21 602.593 801.083 602.593 800.951C602.593 800.818 602.645 800.692 602.738 800.597L606.103 796.974C606.148 796.927 606.204 796.89 606.264 796.865C606.326 796.841 606.391 796.828 606.457 796.828C606.522 796.828 606.587 796.841 606.648 796.865C606.709 796.89 606.764 796.927 606.811 796.974C606.857 797.021 606.894 797.076 606.919 797.137C606.945 797.197 606.958 797.262 606.958 797.328C606.958 797.394 606.945 797.46 606.919 797.52C606.894 797.581 606.857 797.636 606.811 797.683L603.446 801.305C603.394 801.352 603.333 801.387 603.266 801.409C603.2 801.431 603.129 801.439 603.06 801.434Z" fill="white"/>
<path d="M506.137 771.995L498.168 786.276C497.859 786.823 497.661 787.426 497.587 788.051C497.512 788.674 497.562 789.307 497.733 789.913C497.904 790.517 498.194 791.082 498.585 791.574C498.976 792.067 499.461 792.476 500.011 792.78L543.868 817.252L548.561 817.453C550.622 817.115 551.7 817.268 552.232 816.31C554.123 812.921 552.666 811.432 550.05 808.558L541.123 798.793L533.25 780.278C532.854 779.345 532.149 778.577 531.253 778.103C530.357 777.63 529.325 777.479 528.331 777.678L519.227 779.481C518.571 779.615 517.893 779.58 517.256 779.38C516.618 779.18 516.041 778.822 515.58 778.338L509.14 771.568C508.931 771.362 508.677 771.208 508.398 771.116C508.12 771.024 507.824 770.997 507.533 771.039C507.243 771.08 506.966 771.188 506.723 771.354C506.481 771.52 506.281 771.739 506.137 771.995Z" fill="#D65A31"/>
<path opacity="0.5" d="M552.835 814.765L545.968 813.799L497.837 786.944C497.463 788.012 497.476 789.177 497.873 790.236C498.27 791.295 499.027 792.181 500.011 792.74L543.891 817.228L548.496 817.413C549.456 817.413 550.411 817.26 551.321 816.954C551.822 816.737 552.224 816.342 552.448 815.843C552.615 815.497 552.745 815.135 552.835 814.765Z" fill="black"/>
<path d="M529.786 785.817C529.68 785.755 529.6 785.658 529.56 785.543C529.525 785.415 529.542 785.278 529.606 785.162C529.671 785.046 529.778 784.961 529.906 784.923L534.607 783.402C534.735 783.366 534.872 783.382 534.989 783.447C535.105 783.511 535.19 783.62 535.227 783.748C535.264 783.876 535.247 784.014 535.182 784.129C535.117 784.246 535.009 784.332 534.881 784.368L530.188 785.889C530.05 785.896 529.912 785.871 529.786 785.817Z" fill="white"/>
<path d="M531.099 788.9C530.992 788.841 530.912 788.743 530.874 788.626C530.839 788.5 530.856 788.364 530.922 788.25C530.986 788.135 531.094 788.051 531.22 788.015L535.921 786.493C536.049 786.459 536.186 786.475 536.302 786.54C536.418 786.605 536.504 786.712 536.541 786.839C536.574 786.967 536.556 787.103 536.492 787.218C536.428 787.334 536.321 787.421 536.195 787.459L531.494 788.973C531.359 788.987 531.221 788.962 531.099 788.9Z" fill="white"/>
<path d="M532.396 792.007C532.291 791.949 532.211 791.854 532.17 791.742C532.135 791.614 532.152 791.477 532.217 791.361C532.282 791.245 532.389 791.159 532.517 791.122L537.226 789.6C537.354 789.565 537.491 789.582 537.606 789.648C537.722 789.714 537.806 789.823 537.842 789.951C537.876 790.079 537.859 790.215 537.794 790.331C537.728 790.446 537.62 790.531 537.492 790.566L532.798 792.12C532.727 792.13 532.654 792.125 532.585 792.106C532.516 792.086 532.451 792.052 532.396 792.007Z" fill="white"/>
<path d="M369.592 817.55L391.448 696.631C391.875 693.757 390.522 691.93 393.42 691.93H441.415C442.887 691.984 444.297 692.539 445.414 693.502C446.53 694.464 447.285 695.778 447.557 697.227L464.333 818.21H470.499L454.665 696.607C453.94 691.72 447.541 687.752 442.59 687.752H392.229C389.759 687.818 387.387 688.735 385.515 690.349C383.644 691.963 382.386 694.173 381.957 696.607L359.474 817.55H369.592Z" fill="#B2B6BB"/>
<path opacity="0.3" d="M385.483 690.368H396.576V691.922H393.421C390.619 691.922 391.811 693.628 391.489 696.333H382.014C382.462 694.009 383.686 691.906 385.483 690.368Z" fill="black"/>
<path d="M369.59 817.55H365.831L388.194 695.36C388.655 693.349 389.77 691.547 391.363 690.237C392.956 688.926 394.939 688.18 397.001 688.115H448.561C450.623 688.169 452.602 688.937 454.161 690.287C455.721 691.638 456.762 693.487 457.11 695.521L474.224 818.25H470.497L453.673 696.028C453.449 694.821 452.82 693.726 451.891 692.925C450.962 692.123 449.788 691.662 448.561 691.616H397.001C395.741 691.67 394.533 692.132 393.559 692.933C392.586 693.736 391.9 694.833 391.607 696.06L369.59 817.55Z" fill="#B2B6BB"/>
<path opacity="0.25" d="M369.59 817.55H365.831L388.194 695.36C388.655 693.349 389.77 691.547 391.363 690.237C392.956 688.926 394.939 688.18 397.001 688.115H448.561C450.623 688.169 452.602 688.937 454.161 690.287C455.721 691.638 456.762 693.487 457.11 695.521L474.224 818.25H470.497L453.673 696.028C453.449 694.821 452.82 693.726 451.891 692.925C450.962 692.123 449.788 691.662 448.561 691.616H397.001C395.741 691.67 394.533 692.132 393.559 692.933C392.586 693.736 391.9 694.833 391.607 696.06L369.59 817.55Z" fill="black"/>
<path d="M375.977 691.423C366.486 690.796 373.86 669.487 372.435 660.954L372.153 659.24L375.582 658.668L375.864 660.383C377.973 673.037 371.67 687.946 375.977 687.946C377.989 687.946 380.92 687.849 384.977 687.728C395.619 687.39 413.433 686.811 445.489 686.811H447.227V690.288H445.489C413.482 690.288 395.707 690.852 385.114 691.198C381.024 691.327 378.07 691.423 376.001 691.423" fill="#B2B6BB"/>
<path d="M449.263 690.279H379.308C373.754 690.279 373.843 685.627 375.283 677.399C376.893 668.544 376.088 662.483 375.734 660.342L379.164 659.77C381.224 672.159 374.905 686.802 379.276 686.802H449.231V690.271L449.263 690.279Z" fill="#80848B"/>
<path d="M534.327 694.048C528.713 697.347 522.324 699.097 515.812 699.119H423.431C402.863 699.119 380.806 697.63 377.546 689.282C374.285 680.934 518.783 683.961 518.783 683.961C518.783 683.961 530.182 685.998 531.373 686.899C532.564 687.801 534.36 694.048 534.36 694.048" fill="#868A91"/>
<path d="M380.717 665.638L369.64 584.768C369.431 583.359 362.468 582.78 362.75 581.548C363.748 577.064 368.022 569.948 379.236 569.948H435.755C439.018 570.039 442.152 571.253 444.624 573.385C447.097 575.517 448.757 578.438 449.327 581.653C449.327 581.653 461.402 661.211 460.919 662.958C460.436 664.705 458.85 668.343 455.896 668.343C452.942 668.343 381.208 668.874 381.208 668.874L380.717 665.638Z" fill="#B2B6BB"/>
<path d="M455.631 691.068H381.893C381.07 691.068 380.256 690.907 379.496 690.592C378.736 690.277 378.046 689.816 377.464 689.234C376.882 688.652 376.421 687.962 376.106 687.202C375.792 686.443 375.63 685.628 375.63 684.805C375.63 683.984 375.792 683.169 376.106 682.409C376.421 681.649 376.882 680.958 377.464 680.377C378.046 679.795 378.736 679.334 379.496 679.019C380.256 678.704 381.07 678.542 381.893 678.542H455.631C457.291 678.542 458.885 679.203 460.059 680.377C461.234 681.552 461.894 683.145 461.894 684.805C461.894 686.467 461.234 688.059 460.059 689.234C458.885 690.409 457.291 691.068 455.631 691.068Z" fill="#B2B6BB"/>
<path d="M539.102 700.519C537.837 700.517 536.616 700.054 535.665 699.22C534.714 698.385 534.099 697.233 533.933 695.979C533.829 695.488 532.372 690.022 520.313 690.022H461.266C459.926 690.042 458.627 689.556 457.628 688.66C456.63 687.765 456.006 686.526 455.881 685.192C455.833 684.478 455.933 683.763 456.173 683.09C456.414 682.416 456.79 681.799 457.277 681.278C457.766 680.755 458.356 680.339 459.011 680.054C459.667 679.769 460.374 679.622 461.089 679.621H520.321C539.552 679.621 544.213 691.157 544.326 695.19C544.366 696.548 543.874 697.868 542.956 698.87C542.037 699.871 540.764 700.474 539.407 700.551H539.102V700.519ZM533.885 695.319C533.883 695.548 533.899 695.777 533.933 696.003C533.933 695.906 533.933 695.818 533.933 695.721C533.926 695.587 533.926 695.453 533.933 695.319H533.885Z" fill="#B2B6BB"/>
<path opacity="0.15" d="M539.102 700.519C537.837 700.517 536.616 700.054 535.665 699.22C534.714 698.385 534.099 697.233 533.933 695.979C533.829 695.488 532.372 690.022 520.313 690.022H461.266C459.926 690.042 458.627 689.556 457.628 688.66C456.63 687.765 456.006 686.526 455.881 685.192C455.833 684.478 455.933 683.763 456.173 683.09C456.414 682.416 456.79 681.799 457.277 681.278C457.766 680.755 458.356 680.339 459.011 680.054C459.667 679.769 460.374 679.622 461.089 679.621H520.321C539.552 679.621 544.213 691.157 544.326 695.19C544.366 696.548 543.874 697.868 542.956 698.87C542.037 699.871 540.764 700.474 539.407 700.551H539.102V700.519ZM533.885 695.319C533.883 695.548 533.899 695.777 533.933 696.003C533.933 695.906 533.933 695.818 533.933 695.721C533.926 695.587 533.926 695.453 533.933 695.319H533.885Z" fill="black"/>
<path d="M523.823 690.28H454.408C453.866 690.272 453.331 690.155 452.836 689.936C452.34 689.716 451.894 689.399 451.525 689.003C451.155 688.606 450.869 688.14 450.684 687.63C450.498 687.121 450.418 686.579 450.448 686.038C450.544 678.543 453.233 674.615 450.786 659.972L449.804 659.231L453.829 658.66L454.11 660.375C456.525 674.937 450.536 686.811 454.352 686.811H523.783L523.823 690.28Z" fill="#B2B6BB"/>
<path d="M525.866 690.851H456.885C448.32 690.851 456.249 675.789 453.271 660.422L456.773 659.778C458.89 672.457 453.738 687.373 458.044 687.373H525.866V690.851Z" fill="#80848B"/>
<path d="M550.404 817.55L533.418 691.495C533.074 689.461 532.031 687.612 530.468 686.266C528.906 684.92 526.923 684.161 524.861 684.121H520.579C519.964 684.017 519.342 683.963 518.719 683.96L468.527 683.775C466.058 683.843 463.686 684.761 461.815 686.374C459.944 687.987 458.686 690.197 458.256 692.63L441.351 818.21H451.429L468.221 692.026C468.437 690.822 469.059 689.727 469.983 688.925C470.907 688.122 472.077 687.66 473.301 687.615H501.975L517.713 687.961C519.185 688.016 520.596 688.57 521.712 689.533C522.828 690.496 523.584 691.81 523.855 693.258L540.551 817.566H546.685L546.588 816.841L546.685 817.566L550.404 817.55Z" fill="#B2B6BB"/>
<path opacity="0.25" d="M546.715 817.55L529.979 691.97C529.763 690.765 529.142 689.671 528.217 688.868C527.293 688.066 526.123 687.603 524.9 687.558H473.34C472.116 687.603 470.946 688.066 470.021 688.868C469.097 689.671 468.476 690.765 468.26 691.97L451.468 818.17H447.725L464.807 691.495C465.15 689.465 466.19 687.62 467.747 686.274C469.304 684.928 471.282 684.167 473.34 684.121H524.86C526.921 684.161 528.904 684.92 530.467 686.266C532.029 687.612 533.072 689.461 533.417 691.495L550.402 817.526L546.715 817.55Z" fill="black"/>
<path d="M377.086 665.639L366.009 584.769C365.792 583.36 360.986 582.781 361.268 581.549C362.266 577.065 371.016 573.072 376.104 573.072H432.623C435.89 573.16 439.026 574.374 441.501 576.508C443.976 578.642 445.637 581.566 446.203 584.785L457.103 668.151L453.883 668.907H377.545L377.086 665.639Z" fill="#80848B"/>
<path d="M376.113 573.055H432.633C434.816 573.109 436.956 573.668 438.887 574.689C440.817 575.71 442.484 577.165 443.758 578.939C443.474 578.844 443.226 578.668 443.041 578.432C441.431 576.645 439.99 580.412 439.99 581.845C439.99 582.98 389.146 587.81 366.735 589.694L366.003 584.767C365.793 583.359 360.988 582.779 361.261 581.547C362.259 577.064 371.018 573.071 376.105 573.071" fill="#80848B"/>
<path d="M370.985 668.875L359.901 588.004C359.635 586.544 359.7 585.044 360.091 583.611C360.481 582.18 361.187 580.854 362.156 579.731C363.126 578.608 364.335 577.716 365.693 577.121C367.053 576.526 368.528 576.242 370.011 576.292H429.219C432.485 576.382 435.62 577.597 438.093 579.731C440.567 581.865 442.23 584.787 442.799 588.004L453.876 668.875C453.876 668.875 436.295 673.358 408.305 673.358C380.315 673.358 370.985 668.875 370.985 668.875Z" fill="#B2B6BB"/>
<path opacity="0.3" d="M458.729 690.85H378.406L379.646 692.138H458.375L458.729 690.85Z" fill="black"/>
<path d="M742.639 523.25H655.755V616.018H742.639V523.25Z" fill="#3F4249"/>
<path d="M695.915 527.05H659.006V609.659H695.915V527.05Z" stroke="#868A91" stroke-width="0.55" stroke-miterlimit="10"/>
<path opacity="0.3" d="M742.636 523.532H699.576V615.801H742.636V523.532Z" fill="black"/>
<path d="M693.274 532.322H661.638V535.84H693.274V532.322Z" fill="#868A91"/>
<path d="M693.274 560.006H661.638V568.797H693.274V560.006Z" stroke="#868A91" stroke-width="0.55" stroke-miterlimit="10"/>
<path d="M693.274 568.789H661.638V577.579H693.274V568.789Z" stroke="#868A91" stroke-width="0.55" stroke-miterlimit="10"/>
<path d="M665.31 538.473H661.792V539.35H665.31V538.473Z" fill="#868A91"/>
<path d="M692.396 542.867H662.515V543.527H692.396V542.867Z" fill="#868A91"/>
<path d="M691.511 546.603H663.393V547.263H691.511V546.603Z" fill="#868A91"/>
<path d="M677.454 598.235C678.668 598.235 679.652 597.251 679.652 596.037C679.652 594.824 678.668 593.84 677.454 593.84C676.241 593.84 675.257 594.824 675.257 596.037C675.257 597.251 676.241 598.235 677.454 598.235Z" fill="#D65A31"/>
<path opacity="0.3" d="M677.455 593.84H677.311C677.867 593.874 678.39 594.118 678.772 594.525C679.155 594.931 679.367 595.468 679.367 596.025C679.367 596.583 679.155 597.12 678.772 597.526C678.39 597.932 677.867 598.177 677.311 598.211H677.455C677.755 598.23 678.054 598.186 678.336 598.084C678.618 597.982 678.876 597.823 679.094 597.618C679.313 597.412 679.486 597.164 679.606 596.889C679.725 596.614 679.786 596.318 679.786 596.017C679.786 595.718 679.725 595.421 679.606 595.146C679.486 594.87 679.313 594.622 679.094 594.417C678.876 594.212 678.618 594.053 678.336 593.951C678.054 593.849 677.755 593.806 677.455 593.824V593.84Z" fill="black"/>
<path opacity="0.4" d="M677.897 586.804H677.003C676.777 586.804 676.593 586.988 676.593 587.215V590.789C676.593 591.016 676.777 591.199 677.003 591.199H677.897C678.124 591.199 678.307 591.016 678.307 590.789V587.215C678.307 586.988 678.124 586.804 677.897 586.804Z" fill="black"/>
<path opacity="0.3" d="M677.907 586.845H677.634C677.743 586.845 677.847 586.888 677.924 586.965C678.001 587.042 678.044 587.147 678.044 587.256V590.83C678.044 590.938 678.001 591.043 677.924 591.12C677.847 591.197 677.743 591.24 677.634 591.24H677.907C678.016 591.24 678.121 591.197 678.198 591.12C678.275 591.043 678.318 590.938 678.318 590.83V587.256C678.318 587.147 678.275 587.042 678.198 586.965C678.121 586.888 678.016 586.845 677.907 586.845Z" fill="black"/>
<path d="M994.956 606.165H904.82C904.362 606.165 903.991 606.536 903.991 606.994V675.371C903.991 675.829 904.362 676.2 904.82 676.2H994.956C995.415 676.2 995.785 675.829 995.785 675.371V606.994C995.785 606.536 995.415 606.165 994.956 606.165Z" fill="#D65A31"/>
<path opacity="0.2" d="M994.956 606.165H904.82C904.362 606.165 903.991 606.536 903.991 606.994V675.371C903.991 675.829 904.362 676.2 904.82 676.2H994.956C995.415 676.2 995.785 675.829 995.785 675.371V606.994C995.785 606.536 995.415 606.165 994.956 606.165Z" fill="black"/>
<path d="M993.37 606.165H903.234C902.776 606.165 902.405 606.536 902.405 606.994V675.371C902.405 675.829 902.776 676.2 903.234 676.2H993.37C993.829 676.2 994.199 675.829 994.199 675.371V606.994C994.199 606.536 993.829 606.165 993.37 606.165Z" fill="#D65A31"/>
<path d="M993.289 616.437H903.242V617.37H993.289V616.437Z" fill="white"/>
<path d="M909.409 612.702C910.181 612.702 910.809 612.075 910.809 611.302C910.809 610.528 910.181 609.901 909.409 609.901C908.636 609.901 908.008 610.528 908.008 611.302C908.008 612.075 908.636 612.702 909.409 612.702Z" fill="white"/>
<path d="M914.077 612.702C914.85 612.702 915.478 612.075 915.478 611.302C915.478 610.528 914.85 609.901 914.077 609.901C913.305 609.901 912.677 610.528 912.677 611.302C912.677 612.075 913.305 612.702 914.077 612.702Z" fill="white"/>
<path d="M918.746 612.702C919.519 612.702 920.147 612.075 920.147 611.302C920.147 610.528 919.519 609.901 918.746 609.901C917.974 609.901 917.346 610.528 917.346 611.302C917.346 612.075 917.974 612.702 918.746 612.702Z" fill="white"/>
<path d="M915.993 652.613V635.354H919.479V642.148H926.305V635.354H929.775V652.613H926.297V645.063H919.471V652.613H915.993Z" fill="white"/>
<path d="M937.27 652.613V638.276H932.19V635.354H945.875V638.276H940.771V652.613H937.27Z" fill="white"/>
<path d="M948.064 652.613V635.354H953.273L956.404 647.123L959.504 635.354H964.728V652.613H961.508V639.033L958.079 652.613H954.73L951.317 639.033V652.613H948.064Z" fill="white"/>
<path d="M968.278 652.613V635.498H971.764V649.699H980.426V652.613H968.278Z" fill="white"/>
<path opacity="0.1" d="M809.177 243.608H578.408V337.342H809.177V243.608Z" fill="black"/>
<path d="M801.778 237.129H571.009V330.863H801.778V237.129Z" fill="white"/>
<path d="M580.905 244.116C580.905 244.447 580.807 244.771 580.623 245.046C580.439 245.322 580.178 245.536 579.872 245.663C579.566 245.79 579.229 245.823 578.904 245.758C578.58 245.694 578.281 245.535 578.047 245.3C577.813 245.066 577.653 244.768 577.589 244.443C577.524 244.118 577.557 243.781 577.684 243.476C577.811 243.17 578.025 242.908 578.3 242.724C578.576 242.54 578.9 242.442 579.231 242.442C579.675 242.442 580.101 242.618 580.415 242.932C580.729 243.246 580.905 243.672 580.905 244.116Z" fill="#B2B6BB"/>
<path d="M586.644 244.116C586.644 244.447 586.545 244.771 586.361 245.046C586.177 245.322 585.916 245.536 585.61 245.663C585.304 245.79 584.968 245.823 584.642 245.758C584.318 245.694 584.019 245.535 583.785 245.3C583.551 245.066 583.391 244.768 583.327 244.443C583.263 244.118 583.296 243.781 583.422 243.476C583.549 243.17 583.763 242.908 584.039 242.724C584.314 242.54 584.638 242.442 584.969 242.442C585.189 242.442 585.407 242.485 585.61 242.569C585.813 242.654 585.998 242.777 586.153 242.932C586.309 243.087 586.432 243.273 586.516 243.476C586.6 243.678 586.644 243.897 586.644 244.116Z" fill="#B2B6BB"/>
<path d="M592.305 244.116C592.306 244.45 592.208 244.776 592.024 245.054C591.84 245.332 591.577 245.548 591.269 245.677C590.962 245.805 590.623 245.84 590.295 245.775C589.969 245.71 589.668 245.55 589.433 245.314C589.197 245.078 589.036 244.778 588.971 244.45C588.907 244.124 588.941 243.785 589.069 243.476C589.197 243.169 589.414 242.906 589.693 242.722C589.97 242.538 590.296 242.44 590.63 242.442C591.074 242.442 591.5 242.618 591.814 242.932C592.128 243.246 592.305 243.672 592.305 244.116Z" fill="#B2B6BB"/>
<path d="M570.554 236.67V331.33H802.249V236.67H570.554ZM801.323 237.596V249.896H571.479V237.596H801.323ZM571.479 330.404V250.822H801.323V330.404H571.479Z" fill="#B2B6BB"/>
<path d="M644.307 262.237H588.568V317.975H644.307V262.237Z" fill="#B2B6BB"/>
<path d="M783.764 282.153H655.64C655.579 282.153 655.518 282.142 655.462 282.12C655.405 282.097 655.353 282.063 655.31 282.021C655.266 281.978 655.232 281.927 655.208 281.871C655.185 281.814 655.173 281.754 655.173 281.694C655.173 281.57 655.222 281.451 655.31 281.363C655.397 281.276 655.516 281.227 655.64 281.227H783.764C783.886 281.228 784.003 281.278 784.089 281.366C784.174 281.453 784.222 281.571 784.222 281.694C784.222 281.753 784.21 281.814 784.188 281.869C784.164 281.925 784.131 281.975 784.088 282.018C784.045 282.061 783.995 282.095 783.939 282.117C783.884 282.14 783.824 282.153 783.764 282.153Z" fill="#B2B6BB"/>
<path d="M783.765 270.987H655.641C655.575 270.995 655.509 270.99 655.444 270.971C655.381 270.952 655.322 270.919 655.272 270.875C655.222 270.831 655.182 270.777 655.154 270.717C655.127 270.656 655.113 270.59 655.113 270.524C655.113 270.458 655.127 270.392 655.154 270.331C655.182 270.271 655.222 270.217 655.272 270.173C655.322 270.129 655.381 270.096 655.444 270.078C655.509 270.058 655.575 270.053 655.641 270.061H783.765C783.877 270.076 783.98 270.131 784.055 270.216C784.13 270.301 784.171 270.411 784.171 270.524C784.171 270.637 784.13 270.747 784.055 270.832C783.98 270.917 783.877 270.972 783.765 270.987Z" fill="#B2B6BB"/>
<path d="M783.765 293.326H655.641C655.575 293.334 655.509 293.329 655.444 293.31C655.381 293.29 655.322 293.257 655.272 293.214C655.222 293.17 655.182 293.116 655.154 293.055C655.127 292.995 655.113 292.929 655.113 292.863C655.113 292.796 655.127 292.73 655.154 292.67C655.182 292.609 655.222 292.556 655.272 292.511C655.322 292.468 655.381 292.435 655.444 292.416C655.509 292.397 655.575 292.391 655.641 292.4H783.765C783.877 292.415 783.98 292.47 784.055 292.555C784.13 292.64 784.171 292.75 784.171 292.863C784.171 292.976 784.13 293.085 784.055 293.171C783.98 293.256 783.877 293.311 783.765 293.326Z" fill="#B2B6BB"/>
<path d="M734.964 304.491H655.463C655.302 304.491 655.173 304.29 655.173 304.032C655.173 303.775 655.302 303.566 655.463 303.566H734.964C735.125 303.566 735.254 303.775 735.254 304.032C735.254 304.29 735.117 304.491 734.964 304.491Z" fill="#B2B6BB"/>
<path d="M864.337 682.639L861.205 681.19C861.133 679.968 860.907 678.758 860.529 677.592L862.944 675.113L863.041 675.008L862.968 674.895L859.748 669.961L859.676 669.848L859.555 669.896L856.335 671.096C855.417 670.278 854.395 669.58 853.3 669.019C853.3 667.827 853.3 666.676 853.252 665.549V665.428H853.131L847.375 664.213H847.263L847.214 664.318C846.707 665.428 846.224 666.467 845.765 667.481C844.526 667.55 843.294 667.781 842.111 668.165L839.607 665.75L839.543 665.686L839.47 665.734L834.552 668.954L834.495 668.995V669.051C834.986 670.371 835.397 671.466 835.735 672.351C835.099 673.069 834.535 673.849 834.052 674.678C833.9 674.952 833.787 675.169 833.723 675.306C833.682 675.373 833.65 675.447 833.626 675.523H830.019V675.563C829.697 677.037 829.271 678.977 828.764 681.311V681.384H828.828L831.992 682.865C832.056 684.109 832.281 685.34 832.66 686.527L830.245 689.023L830.172 689.095L830.229 689.184L833.449 694.127L833.513 694.223L833.618 694.183L836.838 692.992C837.756 693.819 838.778 694.525 839.873 695.093C839.873 696.171 839.873 697.347 839.873 698.554V698.683H840.001L845.749 699.923H845.886L845.942 699.802L847.391 696.662C848.623 696.599 849.831 696.377 851.006 696.002L853.477 698.417L853.574 698.514L853.695 698.433L858.637 695.213L858.758 695.133L858.702 694.996C858.331 693.974 857.897 692.871 857.51 691.776C858.323 690.864 859.024 689.853 859.587 688.765L863.041 688.717H863.186V688.58C863.596 686.632 864.007 684.714 864.409 682.824V682.68L864.337 682.639ZM840.992 679.025C841.628 677.773 842.666 676.772 843.946 676.183C844.815 675.779 845.773 675.583 846.731 675.612C847.834 675.65 848.905 675.978 849.839 676.562C850.338 676.876 850.788 677.264 851.175 677.713C851.593 678.168 851.932 678.69 852.173 679.258C852.712 680.447 852.857 681.777 852.584 683.053C852.31 684.33 851.634 685.485 850.66 686.35C850.209 686.771 849.686 687.111 849.122 687.357C848.591 687.611 848.019 687.779 847.432 687.856C846.345 688.009 845.226 687.871 844.212 687.453C843.326 687.092 842.529 686.526 841.901 685.803C840.975 684.745 840.428 683.407 840.356 682.003C840.348 681.488 840.364 680.972 840.412 680.458C840.589 679.964 840.79 679.481 841.016 679.009L840.992 679.025ZM834.085 674.654C834.085 674.654 834.085 674.605 834.085 674.581C833.988 674.75 833.883 674.903 833.795 675.072L834.085 674.654Z" fill="#B2B6BB"/>
<path d="M815.69 759.654L805.821 755.71L806.69 750.236C805.475 749.279 804.365 748.2 803.373 747.016L797.923 748.022L793.777 738.314L798.261 735.094C798.084 733.535 798.068 731.962 798.213 730.401L793.777 727.326L793.954 726.585L797.561 717.674L798.318 717.73L802.987 718.535L803.614 717.827C804.467 716.851 805.378 715.931 806.352 715.073L805.314 709.72L805.974 709.342L814.885 705.454L818.146 709.905C819.699 709.714 821.261 709.686 822.823 709.825L825.93 705.18L835.759 709.076L834.954 714.534C836.161 715.492 837.272 716.571 838.27 717.754L843.728 716.732L847.947 726.496L843.471 729.765C843.648 731.293 843.672 732.837 843.535 734.369L848.116 737.509L844.179 747.41L838.697 746.549C837.739 747.754 836.661 748.86 835.477 749.849L836.491 755.307L826.735 759.517L823.467 755.026C821.937 755.204 820.391 755.226 818.862 755.09L815.69 759.654ZM807.85 754.567L815.014 757.424L817.944 753.158L818.484 753.222C820.222 753.416 821.985 753.391 823.724 753.15L824.264 753.077L827.314 757.263L834.431 754.204L833.481 749.109L833.907 748.771C835.276 747.676 836.499 746.416 837.562 745.019L837.892 744.585L843.004 745.39L845.87 738.145L841.595 735.223L841.652 734.675C841.845 732.932 841.821 731.172 841.579 729.435L841.499 728.895L845.677 725.844L842.618 718.752L837.522 719.71L837.184 719.284C836.081 717.91 834.817 716.679 833.408 715.621L832.966 715.291L833.771 710.187L826.646 707.37L823.724 711.644L823.185 711.58C821.414 711.386 819.627 711.419 817.872 711.676L817.332 711.757L814.29 707.603L807.375 710.622L808.357 715.693L807.922 716.039C806.875 716.922 805.893 717.885 804.999 718.921L803.679 720.475L798.728 719.67L795.919 726.609L800.145 729.539L800.08 730.079C799.874 731.85 799.892 733.641 800.137 735.408L800.217 735.947L796.023 738.982L799.034 746.01L804.114 745.076L804.452 745.502C805.547 746.883 806.811 748.122 808.22 749.189L808.663 749.519L807.85 754.567ZM821.011 742.089H820.641C818.959 742.043 817.308 741.577 815.851 740.734C814.394 739.89 813.171 738.696 812.293 737.259C811.086 735.297 810.57 732.987 810.836 730.698C811.037 729.027 811.665 727.437 812.663 726.078C814.04 724.216 816.012 722.876 818.25 722.278C819.772 721.859 821.366 721.806 822.911 722.125C824.682 722.49 826.324 723.324 827.661 724.54C828.385 725.176 829.013 725.923 829.504 726.754C830.043 727.61 830.446 728.547 830.687 729.531C831.219 731.596 831.09 733.777 830.309 735.762C829.512 737.758 828.103 739.45 826.284 740.592C825.431 741.136 824.497 741.541 823.523 741.791C822.702 742.001 821.857 742.1 821.011 742.089ZM820.939 723.735C820.19 723.738 819.442 723.835 818.717 724.025C816.89 724.518 815.288 725.607 814.153 727.116C813.34 728.213 812.824 729.499 812.655 730.851C812.422 732.748 812.849 734.666 813.847 736.293C814.515 737.395 815.433 738.324 816.527 739.006C817.783 739.781 819.216 740.214 820.689 740.262C821.486 740.291 822.283 740.196 823.056 739.98C823.861 739.779 824.618 739.447 825.318 738.998C826.807 738.074 827.958 736.697 828.602 735.07C829.254 733.444 829.367 731.652 828.924 729.958C828.514 728.378 827.653 726.953 826.445 725.86C825.334 724.875 823.982 724.197 822.525 723.896C822.001 723.789 821.47 723.735 820.939 723.735Z" fill="#868A91"/>
<path fill-rule="evenodd" clip-rule="evenodd" d="M927.964 730.344C927.843 727.709 927.368 725.102 926.555 722.592L931.675 717.384L925.13 707.225L918.272 709.72C916.332 707.944 914.166 706.434 911.832 705.228L911.759 697.935L899.95 695.375L896.867 701.992C894.234 702.114 891.626 702.585 889.114 703.393L883.906 698.281L873.747 704.818L876.243 711.684C874.463 713.623 872.958 715.788 871.751 718.124L864.449 718.197L861.897 730.006L868.515 733.089C868.635 735.724 869.11 738.331 869.915 740.841L864.804 746.05L871.34 756.209L878.207 753.713C880.147 755.489 882.312 757 884.647 758.205L884.695 765.555L896.504 768.115L899.588 761.498C902.22 761.378 904.828 760.904 907.332 760.089L912.548 765.209L922.707 758.672L920.212 751.805C921.991 749.868 923.496 747.702 924.704 745.365L931.997 745.293L934.557 733.484L927.964 730.344ZM911.01 733.943C910.471 736.45 909.191 738.74 907.348 740.523C905.504 742.306 903.178 743.503 900.65 743.961C898.122 744.419 895.522 744.118 893.172 743.096C890.813 742.075 888.817 740.378 887.432 738.221C886.039 736.064 885.323 733.544 885.371 730.979C885.411 728.415 886.216 725.92 887.673 723.812C889.139 721.704 891.191 720.076 893.582 719.135C895.965 718.195 898.581 717.983 901.085 718.527C904.442 719.256 907.38 721.29 909.239 724.18C911.099 727.071 911.735 730.582 911.01 733.943Z" fill="#B2B6BB"/>
</svg>
