<svg width="208" height="26" viewBox="0 0 208 26" fill="none" xmlns="http://www.w3.org/2000/svg">
<path d="M0.992188 13.1797V13.0625C0.992188 11.3594 1.18359 9.82031 1.56641 8.44531C1.94922 7.0625 2.4375 5.85156 3.03125 4.8125C3.625 3.77344 4.25 2.91406 4.90625 2.23438C5.5625 1.54687 6.16797 1.05078 6.72266 0.746094L7.17969 2.17578C6.71875 2.52734 6.25 3.01172 5.77344 3.62891C5.30469 4.24609 4.87109 5.00391 4.47266 5.90234C4.08203 6.80078 3.76562 7.84375 3.52344 9.03125C3.28125 10.2188 3.16016 11.5547 3.16016 13.0391V13.2031C3.16016 14.6875 3.28125 16.0273 3.52344 17.2227C3.76562 18.4102 4.08203 19.457 4.47266 20.3633C4.87109 21.2695 5.30469 22.0391 5.77344 22.6719C6.25 23.3125 6.71875 23.8203 7.17969 24.1953L6.72266 25.5078C6.16797 25.2031 5.5625 24.707 4.90625 24.0195C4.25 23.3398 3.625 22.4805 3.03125 21.4414C2.4375 20.4102 1.94922 19.2031 1.56641 17.8203C1.18359 16.4375 0.992188 14.8906 0.992188 13.1797ZM26.2109 10.8477V12.8867H14.5156V10.8477H26.2109ZM21.4531 5.86719V18.2891H19.2852V5.86719H21.4531ZM37.332 11.8789L35.5977 11.4336L36.4531 2.9375H45.207V4.94141H38.293L37.7773 9.58203C38.0898 9.40234 38.4844 9.23438 38.9609 9.07812C39.4453 8.92188 40 8.84375 40.625 8.84375C41.4141 8.84375 42.1211 8.98047 42.7461 9.25391C43.3711 9.51953 43.9023 9.90234 44.3398 10.4023C44.7852 10.9023 45.125 11.5039 45.3594 12.207C45.5938 12.9102 45.7109 13.6953 45.7109 14.5625C45.7109 15.3828 45.5977 16.1367 45.3711 16.8242C45.1523 17.5117 44.8203 18.1133 44.375 18.6289C43.9297 19.1367 43.3672 19.5312 42.6875 19.8125C42.0156 20.0938 41.2227 20.2344 40.3086 20.2344C39.6211 20.2344 38.9688 20.1406 38.3516 19.9531C37.7422 19.7578 37.1953 19.4648 36.7109 19.0742C36.2344 18.6758 35.8438 18.1836 35.5391 17.5977C35.2422 17.0039 35.0547 16.3086 34.9766 15.5117H37.0391C37.1328 16.1523 37.3203 16.6914 37.6016 17.1289C37.8828 17.5664 38.25 17.8984 38.7031 18.125C39.1641 18.3438 39.6992 18.4531 40.3086 18.4531C40.8242 18.4531 41.2812 18.3633 41.6797 18.1836C42.0781 18.0039 42.4141 17.7461 42.6875 17.4102C42.9609 17.0742 43.168 16.668 43.3086 16.1914C43.457 15.7148 43.5312 15.1797 43.5312 14.5859C43.5312 14.0469 43.457 13.5469 43.3086 13.0859C43.1602 12.625 42.9375 12.2227 42.6406 11.8789C42.3516 11.5352 41.9961 11.2695 41.5742 11.082C41.1523 10.8867 40.668 10.7891 40.1211 10.7891C39.3945 10.7891 38.8438 10.8867 38.4688 11.082C38.1016 11.2773 37.7227 11.543 37.332 11.8789ZM58.8008 10.1094V12.7109C58.8008 14.1094 58.6758 15.2891 58.4258 16.25C58.1758 17.2109 57.8164 17.9844 57.3477 18.5703C56.8789 19.1562 56.3125 19.582 55.6484 19.8477C54.9922 20.1055 54.25 20.2344 53.4219 20.2344C52.7656 20.2344 52.1602 20.1523 51.6055 19.9883C51.0508 19.8242 50.5508 19.5625 50.1055 19.2031C49.668 18.8359 49.293 18.3594 48.9805 17.7734C48.668 17.1875 48.4297 16.4766 48.2656 15.6406C48.1016 14.8047 48.0195 13.8281 48.0195 12.7109V10.1094C48.0195 8.71094 48.1445 7.53906 48.3945 6.59375C48.6523 5.64844 49.0156 4.89063 49.4844 4.32031C49.9531 3.74219 50.5156 3.32812 51.1719 3.07812C51.8359 2.82813 52.5781 2.70312 53.3984 2.70312C54.0625 2.70312 54.6719 2.78516 55.2266 2.94922C55.7891 3.10547 56.2891 3.35938 56.7266 3.71094C57.1641 4.05469 57.5352 4.51563 57.8398 5.09375C58.1523 5.66406 58.3906 6.36328 58.5547 7.19141C58.7188 8.01953 58.8008 8.99219 58.8008 10.1094ZM56.6211 13.0625V9.74609C56.6211 8.98047 56.5742 8.30859 56.4805 7.73047C56.3945 7.14453 56.2656 6.64453 56.0938 6.23047C55.9219 5.81641 55.7031 5.48047 55.4375 5.22266C55.1797 4.96484 54.8789 4.77734 54.5352 4.66016C54.1992 4.53516 53.8203 4.47266 53.3984 4.47266C52.8828 4.47266 52.4258 4.57031 52.0273 4.76562C51.6289 4.95312 51.293 5.25391 51.0195 5.66797C50.7539 6.08203 50.5508 6.625 50.4102 7.29688C50.2695 7.96875 50.1992 8.78516 50.1992 9.74609V13.0625C50.1992 13.8281 50.2422 14.5039 50.3281 15.0898C50.4219 15.6758 50.5586 16.1836 50.7383 16.6133C50.918 17.0352 51.1367 17.3828 51.3945 17.6562C51.6523 17.9297 51.9492 18.1328 52.2852 18.2656C52.6289 18.3906 53.0078 18.4531 53.4219 18.4531C53.9531 18.4531 54.418 18.3516 54.8164 18.1484C55.2148 17.9453 55.5469 17.6289 55.8125 17.1992C56.0859 16.7617 56.2891 16.2031 56.4219 15.5234C56.5547 14.8359 56.6211 14.0156 56.6211 13.0625ZM64.332 11.8789L62.5977 11.4336L63.4531 2.9375H72.207V4.94141H65.293L64.7773 9.58203C65.0898 9.40234 65.4844 9.23438 65.9609 9.07812C66.4453 8.92188 67 8.84375 67.625 8.84375C68.4141 8.84375 69.1211 8.98047 69.7461 9.25391C70.3711 9.51953 70.9023 9.90234 71.3398 10.4023C71.7852 10.9023 72.125 11.5039 72.3594 12.207C72.5938 12.9102 72.7109 13.6953 72.7109 14.5625C72.7109 15.3828 72.5977 16.1367 72.3711 16.8242C72.1523 17.5117 71.8203 18.1133 71.375 18.6289C70.9297 19.1367 70.3672 19.5312 69.6875 19.8125C69.0156 20.0938 68.2227 20.2344 67.3086 20.2344C66.6211 20.2344 65.9688 20.1406 65.3516 19.9531C64.7422 19.7578 64.1953 19.4648 63.7109 19.0742C63.2344 18.6758 62.8438 18.1836 62.5391 17.5977C62.2422 17.0039 62.0547 16.3086 61.9766 15.5117H64.0391C64.1328 16.1523 64.3203 16.6914 64.6016 17.1289C64.8828 17.5664 65.25 17.8984 65.7031 18.125C66.1641 18.3438 66.6992 18.4531 67.3086 18.4531C67.8242 18.4531 68.2812 18.3633 68.6797 18.1836C69.0781 18.0039 69.4141 17.7461 69.6875 17.4102C69.9609 17.0742 70.168 16.668 70.3086 16.1914C70.457 15.7148 70.5312 15.1797 70.5312 14.5859C70.5312 14.0469 70.457 13.5469 70.3086 13.0859C70.1602 12.625 69.9375 12.2227 69.6406 11.8789C69.3516 11.5352 68.9961 11.2695 68.5742 11.082C68.1523 10.8867 67.668 10.7891 67.1211 10.7891C66.3945 10.7891 65.8438 10.8867 65.4688 11.082C65.1016 11.2773 64.7227 11.543 64.332 11.8789ZM86.2695 13.0625V13.1797C86.2695 14.8906 86.0781 16.4375 85.6953 17.8203C85.3125 19.2031 84.8242 20.4102 84.2305 21.4414C83.6367 22.4805 83.0117 23.3398 82.3555 24.0195C81.6992 24.707 81.0938 25.2031 80.5391 25.5078L80.082 24.1953C80.543 23.8438 81.0078 23.3516 81.4766 22.7188C81.9453 22.0938 82.3789 21.3203 82.7773 20.3984C83.1758 19.4844 83.4961 18.4297 83.7383 17.2344C83.9805 16.0312 84.1016 14.6875 84.1016 13.2031V13.0391C84.1016 11.5547 83.9727 10.2148 83.7148 9.01953C83.457 7.81641 83.1211 6.75781 82.707 5.84375C82.3008 4.92969 81.8633 4.16016 81.3945 3.53516C80.9336 2.90234 80.4961 2.41406 80.082 2.07031L80.5391 0.746094C81.0938 1.05078 81.6992 1.54687 82.3555 2.23438C83.0117 2.91406 83.6367 3.77344 84.2305 4.8125C84.8242 5.85156 85.3125 7.0625 85.6953 8.44531C86.0781 9.82031 86.2695 11.3594 86.2695 13.0625ZM98.1055 11.8789L96.3711 11.4336L97.2266 2.9375H105.98V4.94141H99.0664L98.5508 9.58203C98.8633 9.40234 99.2578 9.23438 99.7344 9.07812C100.219 8.92188 100.773 8.84375 101.398 8.84375C102.188 8.84375 102.895 8.98047 103.52 9.25391C104.145 9.51953 104.676 9.90234 105.113 10.4023C105.559 10.9023 105.898 11.5039 106.133 12.207C106.367 12.9102 106.484 13.6953 106.484 14.5625C106.484 15.3828 106.371 16.1367 106.145 16.8242C105.926 17.5117 105.594 18.1133 105.148 18.6289C104.703 19.1367 104.141 19.5312 103.461 19.8125C102.789 20.0938 101.996 20.2344 101.082 20.2344C100.395 20.2344 99.7422 20.1406 99.125 19.9531C98.5156 19.7578 97.9688 19.4648 97.4844 19.0742C97.0078 18.6758 96.6172 18.1836 96.3125 17.5977C96.0156 17.0039 95.8281 16.3086 95.75 15.5117H97.8125C97.9062 16.1523 98.0938 16.6914 98.375 17.1289C98.6562 17.5664 99.0234 17.8984 99.4766 18.125C99.9375 18.3438 100.473 18.4531 101.082 18.4531C101.598 18.4531 102.055 18.3633 102.453 18.1836C102.852 18.0039 103.188 17.7461 103.461 17.4102C103.734 17.0742 103.941 16.668 104.082 16.1914C104.23 15.7148 104.305 15.1797 104.305 14.5859C104.305 14.0469 104.23 13.5469 104.082 13.0859C103.934 12.625 103.711 12.2227 103.414 11.8789C103.125 11.5352 102.77 11.2695 102.348 11.082C101.926 10.8867 101.441 10.7891 100.895 10.7891C100.168 10.7891 99.6172 10.8867 99.2422 11.082C98.875 11.2773 98.4961 11.543 98.1055 11.8789ZM119.891 2.9375V4.15625L112.824 20H110.539L117.594 4.71875H108.359V2.9375H119.891ZM133.895 14.2578V16.0391H121.566V14.7617L129.207 2.9375H130.977L129.078 6.35938L124.027 14.2578H133.895ZM131.516 2.9375V20H129.348V2.9375H131.516ZM147.395 14.2578V16.0391H135.066V14.7617L142.707 2.9375H144.477L142.578 6.35938L137.527 14.2578H147.395ZM145.016 2.9375V20H142.848V2.9375H145.016ZM154.109 11.8555V13.6367H148.391V11.8555H154.109ZM163.121 2.84375V20H160.953V5.55078L156.582 7.14453V5.1875L162.781 2.84375H163.121ZM171.652 18.1836H171.875C173.125 18.1836 174.141 18.0078 174.922 17.6562C175.703 17.3047 176.305 16.832 176.727 16.2383C177.148 15.6445 177.438 14.9766 177.594 14.2344C177.75 13.4844 177.828 12.7148 177.828 11.9258V9.3125C177.828 8.53906 177.738 7.85156 177.559 7.25C177.387 6.64844 177.145 6.14453 176.832 5.73828C176.527 5.33203 176.18 5.02344 175.789 4.8125C175.398 4.60156 174.984 4.49609 174.547 4.49609C174.047 4.49609 173.598 4.59766 173.199 4.80078C172.809 4.99609 172.477 5.27344 172.203 5.63281C171.938 5.99219 171.734 6.41406 171.594 6.89844C171.453 7.38281 171.383 7.91016 171.383 8.48047C171.383 8.98828 171.445 9.48047 171.57 9.95703C171.695 10.4336 171.887 10.8633 172.145 11.2461C172.402 11.6289 172.723 11.9336 173.105 12.1602C173.496 12.3789 173.953 12.4883 174.477 12.4883C174.961 12.4883 175.414 12.3945 175.836 12.207C176.266 12.0117 176.645 11.75 176.973 11.4219C177.309 11.0859 177.574 10.707 177.77 10.2852C177.973 9.86328 178.09 9.42188 178.121 8.96094H179.152C179.152 9.60938 179.023 10.25 178.766 10.8828C178.516 11.5078 178.164 12.0781 177.711 12.5938C177.258 13.1094 176.727 13.5234 176.117 13.8359C175.508 14.1406 174.844 14.293 174.125 14.293C173.281 14.293 172.551 14.1289 171.934 13.8008C171.316 13.4727 170.809 13.0352 170.41 12.4883C170.02 11.9414 169.727 11.332 169.531 10.6602C169.344 9.98047 169.25 9.29297 169.25 8.59766C169.25 7.78516 169.363 7.02344 169.59 6.3125C169.816 5.60156 170.152 4.97656 170.598 4.4375C171.043 3.89062 171.594 3.46484 172.25 3.16016C172.914 2.85547 173.68 2.70312 174.547 2.70312C175.523 2.70312 176.355 2.89844 177.043 3.28906C177.73 3.67969 178.289 4.20312 178.719 4.85938C179.156 5.51562 179.477 6.25391 179.68 7.07422C179.883 7.89453 179.984 8.73828 179.984 9.60547V10.3906C179.984 11.2734 179.926 12.1719 179.809 13.0859C179.699 13.9922 179.484 14.8594 179.164 15.6875C178.852 16.5156 178.395 17.2578 177.793 17.9141C177.191 18.5625 176.406 19.0781 175.438 19.4609C174.477 19.8359 173.289 20.0234 171.875 20.0234H171.652V18.1836ZM185.738 11.8789L184.004 11.4336L184.859 2.9375H193.613V4.94141H186.699L186.184 9.58203C186.496 9.40234 186.891 9.23438 187.367 9.07812C187.852 8.92188 188.406 8.84375 189.031 8.84375C189.82 8.84375 190.527 8.98047 191.152 9.25391C191.777 9.51953 192.309 9.90234 192.746 10.4023C193.191 10.9023 193.531 11.5039 193.766 12.207C194 12.9102 194.117 13.6953 194.117 14.5625C194.117 15.3828 194.004 16.1367 193.777 16.8242C193.559 17.5117 193.227 18.1133 192.781 18.6289C192.336 19.1367 191.773 19.5312 191.094 19.8125C190.422 20.0938 189.629 20.2344 188.715 20.2344C188.027 20.2344 187.375 20.1406 186.758 19.9531C186.148 19.7578 185.602 19.4648 185.117 19.0742C184.641 18.6758 184.25 18.1836 183.945 17.5977C183.648 17.0039 183.461 16.3086 183.383 15.5117H185.445C185.539 16.1523 185.727 16.6914 186.008 17.1289C186.289 17.5664 186.656 17.8984 187.109 18.125C187.57 18.3438 188.105 18.4531 188.715 18.4531C189.23 18.4531 189.688 18.3633 190.086 18.1836C190.484 18.0039 190.82 17.7461 191.094 17.4102C191.367 17.0742 191.574 16.668 191.715 16.1914C191.863 15.7148 191.938 15.1797 191.938 14.5859C191.938 14.0469 191.863 13.5469 191.715 13.0859C191.566 12.625 191.344 12.2227 191.047 11.8789C190.758 11.5352 190.402 11.2695 189.98 11.082C189.559 10.8867 189.074 10.7891 188.527 10.7891C187.801 10.7891 187.25 10.8867 186.875 11.082C186.508 11.2773 186.129 11.543 185.738 11.8789ZM207.676 18.2188V20H196.508V18.4414L202.098 12.2188C202.785 11.4531 203.316 10.8047 203.691 10.2734C204.074 9.73438 204.34 9.25391 204.488 8.83203C204.645 8.40234 204.723 7.96484 204.723 7.51953C204.723 6.95703 204.605 6.44922 204.371 5.99609C204.145 5.53516 203.809 5.16797 203.363 4.89453C202.918 4.62109 202.379 4.48438 201.746 4.48438C200.988 4.48438 200.355 4.63281 199.848 4.92969C199.348 5.21875 198.973 5.625 198.723 6.14844C198.473 6.67188 198.348 7.27344 198.348 7.95312H196.18C196.18 6.99219 196.391 6.11328 196.812 5.31641C197.234 4.51953 197.859 3.88672 198.688 3.41797C199.516 2.94141 200.535 2.70312 201.746 2.70312C202.824 2.70312 203.746 2.89453 204.512 3.27734C205.277 3.65234 205.863 4.18359 206.27 4.87109C206.684 5.55078 206.891 6.34766 206.891 7.26172C206.891 7.76172 206.805 8.26953 206.633 8.78516C206.469 9.29297 206.238 9.80078 205.941 10.3086C205.652 10.8164 205.312 11.3164 204.922 11.8086C204.539 12.3008 204.129 12.7852 203.691 13.2617L199.121 18.2188H207.676Z" fill="white"/>
</svg>
