<svg width="97" height="110" viewBox="0 0 97 110" fill="none" xmlns="http://www.w3.org/2000/svg">
<g clip-path="url(#clip0_85_1847)">
<path d="M86.4999 6.875H11.0714C5.39279 6.875 0.785645 11.4941 0.785645 17.1875V92.8125C0.785645 98.5059 5.39279 103.125 11.0714 103.125H86.4999C92.1785 103.125 96.7856 98.5059 96.7856 92.8125V17.1875C96.7856 11.4941 92.1785 6.875 86.4999 6.875ZM53.0285 81.9414C53.0285 91.3086 47.5428 95.584 39.5499 95.584C32.3285 95.584 28.1499 91.8457 26.0071 87.3125L33.3571 82.8652C34.7714 85.3789 36.0571 87.5059 39.1642 87.5059C42.1214 87.5059 44.0071 86.3457 44.0071 81.8125V51.0684H53.0285V81.9414ZM74.3714 95.584C65.9928 95.584 60.5714 91.5879 57.9356 86.3457L65.2856 82.0918C67.2142 85.25 69.7428 87.5918 74.1785 87.5918C77.9071 87.5918 80.3071 85.7227 80.3071 83.123C80.3071 80.0293 77.8642 78.9336 73.7285 77.1074L71.4785 76.1406C64.9642 73.3691 60.6571 69.8672 60.6571 62.498C60.6571 55.709 65.8214 50.5527 73.8571 50.5527C79.5999 50.5527 83.7142 52.5508 86.6714 57.793L79.6428 62.3047C78.0999 59.5332 76.4285 58.4375 73.8356 58.4375C71.1999 58.4375 69.5285 60.1133 69.5285 62.3047C69.5285 65.0117 71.1999 66.1074 75.0785 67.8047L77.3285 68.7715C84.9999 72.0586 89.3071 75.4316 89.3071 82.9941C89.3071 91.1152 82.9214 95.584 74.3714 95.584Z" fill="#A0A3A6"/>
</g>
<defs>
<clipPath id="clip0_85_1847">
<rect width="96" height="110" fill="white" transform="translate(0.785645)"/>
</clipPath>
</defs>
</svg>
