<svg width="135" height="108" viewBox="0 0 135 108" fill="none" xmlns="http://www.w3.org/2000/svg">
<g clip-path="url(#clip0_85_1858)">
<path d="M63.6977 79.6884C63.6349 79.8138 63.5721 79.9141 63.6977 79.6884V79.6884ZM115.859 61.5068C111.648 61.5054 107.493 62.4708 103.716 64.3281C102.48 61.8412 101.203 59.6677 100.994 58.0377C100.742 56.1359 100.47 55.0074 100.763 52.7504C101.057 50.4933 102.376 47.2959 102.355 47.066C102.334 46.8361 102.062 45.6867 99.3606 45.6658C96.6596 45.6449 94.3356 46.1883 94.0655 46.8988C93.5885 48.1973 93.2174 49.5322 92.9558 50.8904C92.4742 53.3355 87.556 62.0711 84.7713 66.6269C83.8501 64.8506 83.0754 63.2832 82.9079 62.0293C82.6566 60.1275 82.3845 58.999 82.6776 56.742C82.9707 54.4849 84.2898 51.2875 84.2688 51.0576C84.2479 50.8277 83.9757 49.6783 81.2769 49.6574C78.578 49.6365 76.2519 50.1799 75.9797 50.8904C75.7075 51.6009 75.4144 53.2728 74.87 54.882C74.3256 56.4912 67.7743 71.0365 66.0595 74.8191C65.1801 76.7418 64.4264 78.2882 63.882 79.3332C63.7982 79.5004 63.7354 79.6049 63.6936 79.6884C63.7564 79.584 63.7982 79.4795 63.7982 79.5213C63.3376 80.4199 63.0654 80.9215 63.0654 80.9215V80.9424C62.7095 81.6111 62.3117 82.2172 62.1232 82.2172C61.9976 82.2172 61.7254 80.4617 62.1861 78.0584C63.1701 73.0009 65.4942 65.1431 65.4732 64.8715C65.4523 64.7252 65.9129 63.3668 63.9448 62.6353C62.0395 61.9457 61.3486 63.0951 61.1811 63.0951C61.0135 63.0951 60.8879 63.5131 60.8879 63.5131C60.8879 63.5131 63.0026 54.6521 56.8281 54.6521C52.9756 54.6521 47.6156 58.8736 44.9817 62.698C43.3276 63.5966 39.7473 65.5402 35.9786 67.6091C34.5339 68.4033 33.0473 69.2183 31.6445 69.9916C31.5398 69.8871 31.4561 69.7826 31.3514 69.6781C23.8579 61.6949 10.0224 56.0523 10.6086 45.3314C10.818 41.4234 12.1789 31.1623 37.2139 18.7068C57.7326 8.50837 74.1372 11.3088 76.9616 17.5365C81.0235 26.4183 68.1909 42.949 46.8828 45.3314C38.7612 46.23 34.492 43.0953 33.4242 41.925C32.3145 40.692 32.147 40.6293 31.7283 40.8591C31.0373 41.2353 31.477 42.322 31.7283 42.9699C32.3564 44.6209 34.9736 47.5466 39.4312 49.0095C43.3465 50.2843 52.8689 50.9949 64.3824 46.5435C77.3176 41.5697 87.3864 27.714 84.4342 16.1154C81.4276 4.32868 61.8469 0.462473 43.3318 7.02458C32.2999 10.9326 20.3697 17.0767 11.7874 25.0808C1.59292 34.6105 -0.0381074 42.9072 0.631893 46.3763C3.01667 58.6855 20.0137 66.7105 26.8163 72.6457C26.4813 72.8338 26.1673 73.0009 25.8741 73.1681C22.4634 74.8609 9.50521 81.632 6.26199 88.7793C2.59792 96.8879 6.86917 102.698 9.67271 103.492C18.4225 105.916 27.3816 101.548 32.1952 94.38C37.0087 87.2119 36.4245 77.8494 34.2052 73.5861C34.1842 73.5234 34.1424 73.4816 34.1214 73.4189C35.0008 72.8965 35.9011 72.374 36.8014 71.8515C38.5371 70.8275 40.2331 69.8871 41.7196 69.072C40.8821 71.3291 40.275 74.0459 39.9609 77.9748C39.584 82.5724 41.4893 88.5285 43.96 90.8691C45.0487 91.8931 46.3657 91.914 47.1822 91.914C50.0716 91.914 51.3697 89.5316 52.8123 86.6894C54.592 83.2203 56.1623 79.1869 56.1623 79.1869C56.1623 79.1869 54.1942 90.0959 59.5751 90.0959C61.5412 90.0959 63.5093 87.5672 64.3908 86.2715V86.2924C64.3908 86.2924 64.4326 86.2088 64.5373 86.0416C64.7467 85.7281 64.8514 85.54 64.8514 85.54V85.4773C65.647 84.1189 67.3848 81.005 69.9999 75.864C73.3918 69.2183 76.635 60.9216 76.635 60.9216C76.9484 62.7455 77.3821 64.5466 77.9331 66.3134C78.5194 68.2988 79.7547 70.4722 80.7388 72.583C79.9431 73.6697 79.4616 74.2966 79.4616 74.2966C79.4631 74.3127 79.4706 74.3276 79.4825 74.3384C78.8544 75.1744 78.1425 76.073 77.4097 76.9508C74.7318 80.1273 71.5472 83.7636 71.1285 84.8086C70.626 86.0416 70.7516 86.9611 71.7147 87.6716C72.4266 88.215 73.6828 88.2986 74.9998 88.1941C77.4076 88.0269 79.1036 87.4418 79.9201 87.0656C81.4255 86.5268 82.8483 85.7812 84.1474 84.8504C86.7646 82.9277 88.3558 80.1691 88.2093 76.5328C88.1255 74.5265 87.4765 72.5203 86.6808 70.6394C86.9111 70.305 87.1624 69.9498 87.3927 69.5945C91.5362 63.5549 94.7397 56.9259 94.7397 56.9259C95.0531 58.7497 95.4867 60.5509 96.0378 62.3177C96.5403 64.0104 97.5223 65.8704 98.4226 67.6886C94.5303 70.8442 92.1225 74.5015 91.285 76.9048C89.7356 81.3561 90.95 83.3624 93.2322 83.8222C94.2581 84.0311 95.7237 83.5505 96.8125 83.0907C98.4294 82.5531 99.954 81.7708 101.333 80.771C103.95 78.8483 106.481 76.1524 106.314 72.4952C106.251 70.8442 105.79 69.1933 105.183 67.605C108.47 66.2257 112.74 65.4733 118.183 66.1003C129.841 67.4587 132.124 74.7313 131.684 77.7616C131.244 80.7919 128.795 82.4847 127.978 82.9862C127.161 83.4878 126.91 83.6759 126.973 84.052C127.078 84.5954 127.455 84.5745 128.145 84.4491C129.109 84.2819 134.257 81.9831 134.487 76.3614C134.822 69.2559 127.978 61.4399 115.853 61.5026L115.859 61.5068ZM25.9998 91.7468C22.1494 95.9474 16.7475 97.5357 14.4255 96.1982C11.934 94.752 12.918 88.5703 17.6687 84.0938C20.5581 81.377 24.2829 78.8692 26.7535 77.3227C27.3188 76.9884 28.1354 76.4868 29.1404 75.8808C29.3079 75.7763 29.3916 75.7345 29.3916 75.7345C29.5801 75.6091 29.7895 75.5046 29.9988 75.3792C31.7345 81.7323 30.0616 87.3331 25.9998 91.7427V91.7468ZM54.1314 72.6457C52.7914 75.9267 49.9669 84.2861 48.25 83.8472C46.7844 83.4711 45.8841 77.097 47.9569 70.8275C49.0038 67.6718 51.2232 63.9101 52.5422 62.4472C54.6548 60.0857 56.9789 59.3334 57.5233 60.2738C58.2561 61.5068 54.9689 70.5976 54.1314 72.6457ZM77.372 83.7218C76.8067 84.0144 76.2833 84.2025 76.032 84.0562C75.8436 83.9517 76.2623 83.5547 76.2623 83.5547C76.2623 83.5547 79.1726 80.4408 80.3242 79.0197C80.9942 78.1838 81.7689 77.2015 82.6043 76.1148C82.6043 76.2193 82.6252 76.3238 82.6252 76.4492C82.598 80.19 78.9989 82.7187 77.3657 83.7218H77.372ZM95.2903 79.6466C94.8716 79.3541 94.9344 78.3718 96.3372 75.3207C96.8816 74.1295 98.1357 72.1232 100.315 70.2006C100.562 70.9284 100.696 71.6894 100.713 72.4576C100.692 77.1597 97.3213 78.9152 95.2924 79.6466H95.2903Z" fill="#A0A3A6"/>
</g>
<defs>
<clipPath id="clip0_85_1858">
<rect width="134" height="107" fill="white" transform="translate(0.5 0.5)"/>
</clipPath>
</defs>
</svg>
