<svg width="118" height="118" viewBox="0 0 118 118" fill="none" xmlns="http://www.w3.org/2000/svg">
<g clip-path="url(#clip0_85_1854)">
<path d="M21.8635 40.993C23.0975 40.5817 24.3314 40.1932 25.5654 39.8276C25.3598 38.9821 25.177 38.1366 24.9941 37.2911C22.1834 23.6716 24.0344 12.7257 30.2729 9.11511C36.2828 5.66453 46.0861 9.25222 56.0037 17.8901C56.9863 18.7356 57.9461 19.6268 58.8602 20.518C59.4771 19.9239 60.117 19.3298 60.7568 18.7585C71.1543 9.52644 81.5746 5.64167 87.8131 9.27507C93.8002 12.7485 95.5826 23.0546 93.0689 35.9428C92.8176 37.2225 92.5434 38.4794 92.2234 39.7591C93.6859 40.1704 95.1256 40.6274 96.4738 41.1073C108.677 45.3348 117.429 52.0075 117.429 58.9087C117.429 66.0383 108.105 73.1909 95.4227 77.5327C94.3943 77.8755 93.366 78.2182 92.3148 78.5153C92.6576 79.8864 92.9547 81.2346 93.2289 82.6286C95.6283 95.3112 93.7545 105.366 87.7674 108.816C81.5975 112.381 71.2229 108.725 61.1225 99.8815C60.3227 99.1731 59.5229 98.4419 58.723 97.6649C57.7176 98.6475 56.6664 99.5844 55.6152 100.498C45.8348 108.908 36.1685 112.313 30.2043 108.862C24.0344 105.297 22.0234 94.4885 24.6285 81.326C24.8342 80.3206 25.0627 79.2923 25.3141 78.2411C24.5828 78.0354 23.8744 77.8069 23.166 77.5784C9.98067 73.2137 0.428711 66.1526 0.428711 58.9087C0.428711 51.9846 9.43222 45.2663 21.8635 40.993ZM52.7816 21.5921C44.2809 14.1882 36.3514 11.286 32.7408 13.3655C28.8789 15.5821 27.3936 24.5399 29.8158 36.3085C29.9758 37.0854 30.1357 37.8395 30.3414 38.5936C35.4145 37.451 40.5561 36.6284 45.7205 36.1714C48.6912 31.921 51.9361 27.8534 55.4553 24.0372C54.5641 23.1917 53.6957 22.3919 52.7816 21.5921ZM79.2209 70.7686C78.0555 72.7567 76.8672 74.7448 75.6104 76.6872C79.1752 76.2987 82.7172 75.7274 86.2135 74.9733C85.208 71.6827 83.9512 68.2778 82.4887 64.8044C81.4375 66.8153 80.3635 68.8034 79.2209 70.7686ZM86.1449 43.2782C82.8543 42.5469 79.358 41.9528 75.7246 41.4958C76.9357 43.3924 78.124 45.3348 79.2437 47.3001C80.3635 49.2424 81.4604 51.2305 82.4887 53.2415C83.9283 49.8366 85.1395 46.5003 86.1449 43.2782ZM79.8836 59.0229C78.3754 55.8694 76.7301 52.7844 74.9934 49.7452C73.2566 46.7059 71.3828 43.7581 69.4176 40.8559C65.9898 40.6046 62.4936 40.4674 58.9287 40.4674C55.3639 40.4674 51.8447 40.6046 48.4398 40.8559C46.4975 43.7352 44.6465 46.6831 42.8869 49.6995C41.1273 52.7159 39.482 55.8008 37.9281 58.9315C39.4592 62.085 41.1045 65.1928 42.8641 68.2549C44.6008 71.2942 46.4518 74.2421 48.3941 77.1671C51.799 77.4184 55.341 77.5327 58.9287 77.5327C62.5164 77.5327 65.9898 77.4184 69.349 77.2128C71.3371 74.3106 73.2109 71.3399 74.9705 68.3007C76.7301 65.2614 78.3525 62.1764 79.8836 59.0229ZM38.6137 70.7229C37.4482 68.712 36.3514 66.6782 35.2773 64.6215C33.8148 67.935 32.5352 71.2942 31.4154 74.7448C34.9574 75.5446 38.5451 76.1616 42.1557 76.5729C40.9217 74.6534 39.7562 72.6881 38.6137 70.7229ZM35.3231 53.2415C36.3971 51.2305 37.4939 49.2196 38.6365 47.2544C39.7563 45.312 40.9217 43.3924 42.1328 41.4958C38.4537 41.9528 34.9346 42.5698 31.6439 43.3239C32.6951 46.7059 33.9291 49.9966 35.3231 53.2415ZM58.883 27.5335C56.4836 30.1385 54.2213 32.8807 52.1189 35.7143C56.6436 35.5087 61.191 35.5087 65.7156 35.7143C63.4762 32.7665 61.1682 30.0243 58.883 27.5335ZM85.3908 13.5255C81.5518 11.286 73.0281 14.4852 64.0475 22.4376C63.4762 22.9403 62.9049 23.4887 62.3107 24.0372C65.8527 27.8534 69.1205 31.921 72.1141 36.1714C77.2785 36.6284 82.3973 37.4282 87.4703 38.5479C87.7674 37.3825 88.0188 36.1942 88.2701 35.0059C90.4182 23.9458 89.0014 15.605 85.3908 13.5255ZM90.9895 73.7622C91.9492 73.488 92.8861 73.1909 93.823 72.871C98.6904 71.3399 104.221 68.9176 108.22 65.7413C110.528 64.1417 112.081 61.6737 112.516 58.9087C112.516 54.7268 105.295 49.3796 94.8742 45.7462C93.5717 45.2891 92.2463 44.8778 90.9209 44.4893C89.367 49.4481 87.4932 54.3155 85.3223 59.0229C87.516 63.7989 89.4127 68.7348 90.9895 73.7622ZM64.3445 96.1567C68.115 99.6073 72.4797 102.349 77.2328 104.223C79.7693 105.434 82.6943 105.549 85.2994 104.52C88.9328 102.418 90.441 94.3514 88.3844 83.4969C88.133 82.2173 87.8588 80.9376 87.5389 79.6807C82.4201 80.7776 77.2557 81.5317 72.0227 81.9202C69.0063 86.1934 65.6928 90.2839 62.1508 94.1229C62.882 94.8313 63.6133 95.5169 64.3445 96.1567ZM58.7459 90.6038C61.0768 88.0901 63.4076 85.3022 65.6699 82.3087C63.4762 82.4001 61.2139 82.4458 58.9287 82.4458C56.575 82.4458 54.267 82.4001 51.9818 82.2858C54.0842 85.188 56.3465 87.953 58.7459 90.6038ZM28.8789 97.4592C29.0846 100.247 30.4557 102.852 32.6494 104.612C36.2828 106.714 44.0295 103.972 52.3932 96.7965C53.3529 95.9739 54.3127 95.0827 55.2953 94.1686C51.799 90.3067 48.577 86.2163 45.652 81.9202C40.4189 81.486 35.2088 80.6862 30.0672 79.5208C29.8387 80.4577 29.633 81.3946 29.4502 82.3087C28.3305 87.2446 28.1477 92.3862 28.8789 97.4592ZM24.7199 72.8938C25.3598 73.0995 25.9996 73.3051 26.6623 73.488C28.2619 68.5063 30.2271 63.6389 32.4894 58.9087C30.2957 54.2469 28.4447 49.4481 26.8908 44.535C25.7025 44.8778 24.56 45.2434 23.4631 45.609C12.8143 49.2653 5.3418 54.704 5.3418 58.863C5.3418 63.3419 13.317 69.1233 24.7199 72.8938ZM58.9287 69.4661C53.1473 69.4661 48.4627 64.7815 48.4627 59.0001C48.4627 53.2186 53.1473 48.534 58.9287 48.534C64.7102 48.534 69.3947 53.2186 69.3947 59.0001C69.3947 64.7815 64.7102 69.4661 58.9287 69.4661Z" fill="#A0A3A6"/>
</g>
<defs>
<clipPath id="clip0_85_1854">
<rect width="117" height="117" fill="white" transform="matrix(-1 0 0 1 117.429 0.5)"/>
</clipPath>
</defs>
</svg>
