<svg width="110" height="106" viewBox="0 0 110 106" fill="none" xmlns="http://www.w3.org/2000/svg">
<path fill-rule="evenodd" clip-rule="evenodd" d="M55.2109 1.104C25.1529 1.104 0.779785 24.9258 0.779785 54.3176C0.779785 77.8231 16.3753 97.7669 38.0096 104.804C40.7313 105.293 41.7248 103.65 41.7248 102.24C41.7248 100.977 41.6771 97.631 41.6499 93.1915C26.5069 96.4071 23.3123 86.058 23.3123 86.058C20.8389 79.9125 17.2701 78.2761 17.2701 78.2761C12.3267 74.9735 17.6443 75.0406 17.6443 75.0406C23.1048 75.4166 25.9796 80.5245 25.9796 80.5245C30.8379 88.6558 38.7207 86.3081 41.8234 84.9442C42.3168 81.5058 43.7253 79.1605 45.28 77.8306C33.1922 76.4874 20.4851 71.9244 20.4851 51.5351C20.4851 45.725 22.6046 40.9765 26.0885 37.255C25.5271 35.9084 23.6593 30.5008 26.6192 23.1744C26.6192 23.1744 31.1917 21.7442 41.5887 28.6284C45.9333 27.4475 50.5874 26.8595 55.2177 26.8355C59.8413 26.8587 64.4988 27.4475 68.8468 28.6284C79.237 21.7442 83.7993 23.1744 83.7993 23.1744C86.7694 30.5008 84.9016 35.9084 84.3402 37.255C87.8309 40.9765 89.9368 45.725 89.9368 51.5351C89.9368 71.9741 77.2093 76.4741 65.084 77.7908C67.0368 79.4338 68.7788 82.6793 68.7788 87.6447C68.7788 94.7583 68.7107 100.495 68.7107 102.241C68.7107 103.665 69.6905 105.321 72.4531 104.798C94.067 97.747 109.649 77.8165 109.649 54.3176C109.649 24.9258 85.2758 1.104 55.2109 1.104Z" fill="#A0A3A6"/>
</svg>
