<svg width="235" height="21" viewBox="0 0 235 21" fill="none" xmlns="http://www.w3.org/2000/svg">
<path d="M7.21172 13.8809V8.8418C7.21172 8.46419 7.14336 8.13867 7.00664 7.86523C6.86992 7.5918 6.66159 7.38021 6.38164 7.23047C6.1082 7.08073 5.76315 7.00586 5.34648 7.00586C4.96237 7.00586 4.63034 7.07096 4.35039 7.20117C4.07044 7.33138 3.85234 7.50716 3.69609 7.72852C3.53984 7.94987 3.46172 8.20052 3.46172 8.48047H1.11797C1.11797 8.0638 1.21888 7.66016 1.4207 7.26953C1.62252 6.87891 1.91549 6.5306 2.29961 6.22461C2.68372 5.91862 3.14271 5.67773 3.67656 5.50195C4.21041 5.32617 4.80937 5.23828 5.47343 5.23828C6.26771 5.23828 6.97083 5.37174 7.58281 5.63867C8.2013 5.9056 8.68633 6.30924 9.03789 6.84961C9.39596 7.38346 9.575 8.05404 9.575 8.86133V13.5586C9.575 14.0404 9.60755 14.4733 9.67265 14.8574C9.74427 15.235 9.84518 15.5638 9.97539 15.8438V16H7.56328C7.4526 15.7461 7.36471 15.4238 7.29961 15.0332C7.24101 14.6361 7.21172 14.252 7.21172 13.8809ZM7.55351 9.57422L7.57304 11.0293H5.88359C5.44739 11.0293 5.06328 11.0716 4.73125 11.1562C4.39922 11.2344 4.12252 11.3516 3.90117 11.5078C3.67981 11.6641 3.5138 11.8529 3.40312 12.0742C3.29244 12.2956 3.23711 12.5462 3.23711 12.8262C3.23711 13.1061 3.30221 13.3633 3.43242 13.5977C3.56263 13.8255 3.75143 14.0046 3.99883 14.1348C4.25273 14.265 4.55872 14.3301 4.91679 14.3301C5.39856 14.3301 5.81849 14.2324 6.17656 14.0371C6.54114 13.8353 6.8276 13.5911 7.03593 13.3047C7.24427 13.0117 7.35494 12.735 7.36797 12.4746L8.12968 13.5195C8.05156 13.7865 7.9181 14.0729 7.72929 14.3789C7.54049 14.6849 7.2931 14.9779 6.98711 15.2578C6.68763 15.5312 6.3263 15.7559 5.90312 15.9316C5.48646 16.1074 5.00468 16.1953 4.45781 16.1953C3.76771 16.1953 3.15247 16.0586 2.61211 15.7852C2.07174 15.5052 1.64856 15.1309 1.34258 14.6621C1.03659 14.1868 0.883591 13.6497 0.883591 13.0508C0.883591 12.4909 0.987757 11.9961 1.19609 11.5664C1.41093 11.1302 1.72343 10.7656 2.13359 10.4727C2.55026 10.1797 3.05807 9.95833 3.65703 9.80859C4.25599 9.65234 4.93958 9.57422 5.70781 9.57422H7.55351ZM14.7055 1V16H12.3422V1H14.7055ZM22.0918 16.1953C21.3105 16.1953 20.6042 16.0684 19.9727 15.8145C19.3477 15.554 18.8138 15.1927 18.3711 14.7305C17.9349 14.2682 17.5996 13.7246 17.3652 13.0996C17.1309 12.4746 17.0137 11.8008 17.0137 11.0781V10.6875C17.0137 9.86068 17.1341 9.11198 17.375 8.44141C17.6159 7.77083 17.9512 7.19792 18.3809 6.72266C18.8105 6.24089 19.3184 5.87305 19.9043 5.61914C20.4902 5.36523 21.125 5.23828 21.8086 5.23828C22.5638 5.23828 23.2246 5.36523 23.791 5.61914C24.3574 5.87305 24.8262 6.23112 25.1973 6.69336C25.5749 7.14909 25.8548 7.69271 26.0371 8.32422C26.2259 8.95573 26.3203 9.65234 26.3203 10.4141V11.4199H18.1562V9.73047H23.9961V9.54492C23.9831 9.12174 23.8984 8.72461 23.7422 8.35352C23.5924 7.98242 23.3613 7.68294 23.0488 7.45508C22.7363 7.22721 22.3197 7.11328 21.7988 7.11328C21.4082 7.11328 21.0599 7.19792 20.7539 7.36719C20.4544 7.52995 20.2038 7.76758 20.0019 8.08008C19.8001 8.39258 19.6439 8.77018 19.5332 9.21289C19.429 9.64909 19.3769 10.1406 19.3769 10.6875V11.0781C19.3769 11.5404 19.4388 11.9701 19.5625 12.3672C19.6927 12.7578 19.8815 13.0996 20.1289 13.3926C20.3763 13.6855 20.6758 13.9167 21.0273 14.0859C21.3789 14.2487 21.7793 14.3301 22.2285 14.3301C22.7949 14.3301 23.2995 14.2161 23.7422 13.9883C24.1849 13.7604 24.569 13.4382 24.8945 13.0215L26.1348 14.2227C25.9069 14.5547 25.6107 14.8737 25.2461 15.1797C24.8815 15.4792 24.4355 15.7233 23.9082 15.9121C23.3874 16.1009 22.7819 16.1953 22.0918 16.1953ZM30.1031 5.43359L32.1148 8.93945L34.1656 5.43359H36.7535L33.5504 10.6191L36.8805 16H34.2926L32.1441 12.3477L29.9957 16H27.398L30.7184 10.6191L27.525 5.43359H30.1031ZM38.6125 14.8281C38.6125 14.4635 38.7362 14.1576 38.9836 13.9102C39.231 13.6562 39.5663 13.5293 39.9894 13.5293C40.4191 13.5293 40.7544 13.6562 40.9953 13.9102C41.2427 14.1576 41.3664 14.4635 41.3664 14.8281C41.3664 15.1927 41.2427 15.4987 40.9953 15.7461C40.7544 15.9935 40.4191 16.1172 39.9894 16.1172C39.5663 16.1172 39.231 15.9935 38.9836 15.7461C38.7362 15.4987 38.6125 15.1927 38.6125 14.8281ZM46.5945 7.44531V16H44.241V5.43359H46.4871L46.5945 7.44531ZM49.827 5.36523L49.8074 7.55273C49.6642 7.52669 49.5079 7.50716 49.3387 7.49414C49.1759 7.48112 49.0131 7.47461 48.8504 7.47461C48.4467 7.47461 48.0919 7.5332 47.7859 7.65039C47.4799 7.76107 47.2228 7.92383 47.0145 8.13867C46.8126 8.34701 46.6564 8.60091 46.5457 8.90039C46.435 9.19987 46.3699 9.53516 46.3504 9.90625L45.8133 9.94531C45.8133 9.28125 45.8784 8.66602 46.0086 8.09961C46.1388 7.5332 46.3341 7.03516 46.5945 6.60547C46.8615 6.17578 47.1935 5.84049 47.5906 5.59961C47.9943 5.35872 48.4598 5.23828 48.9871 5.23828C49.1303 5.23828 49.2833 5.2513 49.4461 5.27734C49.6154 5.30339 49.7423 5.33268 49.827 5.36523ZM55.9145 16.1953C55.1332 16.1953 54.4268 16.0684 53.7953 15.8145C53.1703 15.554 52.6365 15.1927 52.1937 14.7305C51.7576 14.2682 51.4223 13.7246 51.1879 13.0996C50.9535 12.4746 50.8363 11.8008 50.8363 11.0781V10.6875C50.8363 9.86068 50.9568 9.11198 51.1977 8.44141C51.4385 7.77083 51.7738 7.19792 52.2035 6.72266C52.6332 6.24089 53.141 5.87305 53.727 5.61914C54.3129 5.36523 54.9477 5.23828 55.6312 5.23828C56.3865 5.23828 57.0473 5.36523 57.6137 5.61914C58.1801 5.87305 58.6488 6.23112 59.0199 6.69336C59.3975 7.14909 59.6775 7.69271 59.8598 8.32422C60.0486 8.95573 60.143 9.65234 60.143 10.4141V11.4199H51.9789V9.73047H57.8187V9.54492C57.8057 9.12174 57.7211 8.72461 57.5648 8.35352C57.4151 7.98242 57.184 7.68294 56.8715 7.45508C56.559 7.22721 56.1423 7.11328 55.6215 7.11328C55.2309 7.11328 54.8826 7.19792 54.5766 7.36719C54.2771 7.52995 54.0264 7.76758 53.8246 8.08008C53.6228 8.39258 53.4665 8.77018 53.3559 9.21289C53.2517 9.64909 53.1996 10.1406 53.1996 10.6875V11.0781C53.1996 11.5404 53.2615 11.9701 53.3852 12.3672C53.5154 12.7578 53.7042 13.0996 53.9516 13.3926C54.199 13.6855 54.4984 13.9167 54.85 14.0859C55.2016 14.2487 55.602 14.3301 56.0512 14.3301C56.6176 14.3301 57.1221 14.2161 57.5648 13.9883C58.0076 13.7604 58.3917 13.4382 58.7172 13.0215L59.9574 14.2227C59.7296 14.5547 59.4333 14.8737 59.0687 15.1797C58.7042 15.4792 58.2582 15.7233 57.7309 15.9121C57.21 16.1009 56.6046 16.1953 55.9145 16.1953ZM65.0586 14.8477L67.9297 5.43359H70.4492L66.2109 17.6113C66.1133 17.8717 65.9863 18.1549 65.8301 18.4609C65.6738 18.7669 65.4688 19.0566 65.2148 19.3301C64.9674 19.61 64.6582 19.8346 64.2871 20.0039C63.916 20.1797 63.4668 20.2676 62.9395 20.2676C62.7311 20.2676 62.5293 20.248 62.334 20.209C62.1452 20.1764 61.9661 20.1406 61.7969 20.1016L61.7871 18.3047C61.8522 18.3112 61.9303 18.3177 62.0215 18.3242C62.1191 18.3307 62.1973 18.334 62.2559 18.334C62.6465 18.334 62.972 18.2852 63.2324 18.1875C63.4928 18.0964 63.7044 17.9466 63.8672 17.7383C64.0365 17.5299 64.1797 17.25 64.2969 16.8984L65.0586 14.8477ZM63.4375 5.43359L65.9473 13.3438L66.3672 15.8242L64.7363 16.2441L60.8984 5.43359H63.4375ZM76.4684 16.1953C75.6871 16.1953 74.9807 16.0684 74.3492 15.8145C73.7242 15.554 73.1904 15.1927 72.7477 14.7305C72.3115 14.2682 71.9762 13.7246 71.7418 13.0996C71.5074 12.4746 71.3902 11.8008 71.3902 11.0781V10.6875C71.3902 9.86068 71.5107 9.11198 71.7516 8.44141C71.9924 7.77083 72.3277 7.19792 72.7574 6.72266C73.1871 6.24089 73.6949 5.87305 74.2809 5.61914C74.8668 5.36523 75.5016 5.23828 76.1852 5.23828C76.9404 5.23828 77.6012 5.36523 78.1676 5.61914C78.734 5.87305 79.2027 6.23112 79.5738 6.69336C79.9514 7.14909 80.2314 7.69271 80.4137 8.32422C80.6025 8.95573 80.6969 9.65234 80.6969 10.4141V11.4199H72.5328V9.73047H78.3727V9.54492C78.3596 9.12174 78.275 8.72461 78.1187 8.35352C77.969 7.98242 77.7379 7.68294 77.4254 7.45508C77.1129 7.22721 76.6962 7.11328 76.1754 7.11328C75.7848 7.11328 75.4365 7.19792 75.1305 7.36719C74.831 7.52995 74.5803 7.76758 74.3785 8.08008C74.1767 8.39258 74.0204 8.77018 73.9098 9.21289C73.8056 9.64909 73.7535 10.1406 73.7535 10.6875V11.0781C73.7535 11.5404 73.8154 11.9701 73.9391 12.3672C74.0693 12.7578 74.2581 13.0996 74.5055 13.3926C74.7529 13.6855 75.0523 13.9167 75.4039 14.0859C75.7555 14.2487 76.1559 14.3301 76.6051 14.3301C77.1715 14.3301 77.676 14.2161 78.1187 13.9883C78.5615 13.7604 78.9456 13.4382 79.2711 13.0215L80.5113 14.2227C80.2835 14.5547 79.9872 14.8737 79.6227 15.1797C79.2581 15.4792 78.8121 15.7233 78.2848 15.9121C77.7639 16.1009 77.1585 16.1953 76.4684 16.1953ZM88.6105 13.1387C88.6105 12.9043 88.5519 12.6927 88.4348 12.5039C88.3176 12.3086 88.093 12.1328 87.7609 11.9766C87.4354 11.8203 86.9536 11.6771 86.3156 11.5469C85.7557 11.4232 85.2414 11.2767 84.7727 11.1074C84.3104 10.9316 83.9133 10.7201 83.5812 10.4727C83.2492 10.2253 82.9921 9.93229 82.8098 9.59375C82.6275 9.25521 82.5363 8.86458 82.5363 8.42188C82.5363 7.99219 82.6307 7.58529 82.8195 7.20117C83.0083 6.81706 83.2785 6.47852 83.6301 6.18555C83.9816 5.89258 84.4081 5.66146 84.9094 5.49219C85.4172 5.32292 85.9836 5.23828 86.6086 5.23828C87.494 5.23828 88.2525 5.38802 88.884 5.6875C89.522 5.98047 90.0103 6.38086 90.3488 6.88867C90.6874 7.38997 90.8566 7.95638 90.8566 8.58789H88.5031C88.5031 8.30794 88.4315 8.04753 88.2883 7.80664C88.1516 7.55924 87.9432 7.36068 87.6633 7.21094C87.3833 7.05469 87.0318 6.97656 86.6086 6.97656C86.2049 6.97656 85.8697 7.04167 85.6027 7.17188C85.3423 7.29557 85.147 7.45833 85.0168 7.66016C84.8931 7.86198 84.8312 8.08333 84.8312 8.32422C84.8312 8.5 84.8638 8.65951 84.9289 8.80273C85.0005 8.93945 85.1177 9.06641 85.2805 9.18359C85.4432 9.29427 85.6646 9.39844 85.9445 9.49609C86.231 9.59375 86.5891 9.68815 87.0187 9.7793C87.826 9.94857 88.5194 10.1667 89.0988 10.4336C89.6848 10.694 90.134 11.0326 90.4465 11.4492C90.759 11.8594 90.9152 12.3802 90.9152 13.0117C90.9152 13.4805 90.8143 13.9102 90.6125 14.3008C90.4172 14.6849 90.1307 15.0202 89.7531 15.3066C89.3755 15.5866 88.923 15.8047 88.3957 15.9609C87.8749 16.1172 87.2889 16.1953 86.6379 16.1953C85.6809 16.1953 84.8703 16.026 84.2062 15.6875C83.5422 15.3424 83.0376 14.903 82.6926 14.3691C82.354 13.8288 82.1848 13.2689 82.1848 12.6895H84.4602C84.4862 13.1257 84.6066 13.474 84.8215 13.7344C85.0428 13.9883 85.3163 14.1738 85.6418 14.291C85.9738 14.4017 86.3156 14.457 86.6672 14.457C87.0904 14.457 87.4452 14.4017 87.7316 14.291C88.0181 14.1738 88.2362 14.0176 88.3859 13.8223C88.5357 13.6204 88.6105 13.3926 88.6105 13.1387ZM96.3094 16H93.9559V4.41797C93.9559 3.63021 94.1023 2.9694 94.3953 2.43555C94.6948 1.89518 95.1212 1.48828 95.6746 1.21484C96.228 0.934896 96.8823 0.794922 97.6375 0.794922C97.8719 0.794922 98.103 0.811198 98.3309 0.84375C98.5587 0.869792 98.7801 0.912109 98.9949 0.970703L98.9363 2.78711C98.8061 2.75456 98.6629 2.73177 98.5066 2.71875C98.3569 2.70573 98.1941 2.69922 98.0184 2.69922C97.6603 2.69922 97.351 2.76758 97.0906 2.9043C96.8367 3.03451 96.6414 3.22656 96.5047 3.48047C96.3745 3.73438 96.3094 4.04688 96.3094 4.41797V16ZM98.4871 5.43359V7.15234H92.3348V5.43359H98.4871ZM109.477 7.69922V10.0234C109.477 11.1367 109.366 12.0872 109.145 12.875C108.93 13.6562 108.618 14.291 108.207 14.7793C107.797 15.2676 107.306 15.6257 106.733 15.8535C106.166 16.0814 105.532 16.1953 104.829 16.1953C104.269 16.1953 103.748 16.1237 103.266 15.9805C102.791 15.8372 102.361 15.6126 101.977 15.3066C101.593 15.0007 101.264 14.6068 100.991 14.125C100.724 13.6367 100.515 13.054 100.366 12.377C100.222 11.6999 100.151 10.9154 100.151 10.0234V7.69922C100.151 6.57943 100.261 5.63542 100.483 4.86719C100.704 4.09245 101.02 3.46419 101.43 2.98242C101.84 2.49414 102.329 2.13932 102.895 1.91797C103.468 1.69661 104.106 1.58594 104.809 1.58594C105.375 1.58594 105.896 1.65755 106.371 1.80078C106.853 1.9375 107.283 2.1556 107.661 2.45508C108.045 2.75456 108.37 3.14518 108.637 3.62695C108.911 4.10221 109.119 4.67839 109.262 5.35547C109.405 6.02604 109.477 6.80729 109.477 7.69922ZM107.123 10.3555V7.34766C107.123 6.78125 107.091 6.2832 107.026 5.85352C106.961 5.41732 106.863 5.04948 106.733 4.75C106.609 4.44401 106.453 4.19661 106.264 4.00781C106.075 3.8125 105.86 3.67253 105.62 3.58789C105.379 3.49674 105.108 3.45117 104.809 3.45117C104.444 3.45117 104.119 3.52279 103.832 3.66602C103.546 3.80273 103.305 4.02409 103.11 4.33008C102.914 4.63607 102.765 5.03971 102.661 5.54102C102.563 6.03581 102.514 6.63802 102.514 7.34766V10.3555C102.514 10.9284 102.547 11.4329 102.612 11.8691C102.677 12.3053 102.774 12.6797 102.905 12.9922C103.035 13.2982 103.191 13.5521 103.373 13.7539C103.562 13.9492 103.777 14.0924 104.018 14.1836C104.265 14.2747 104.536 14.3203 104.829 14.3203C105.2 14.3203 105.528 14.2487 105.815 14.1055C106.101 13.9622 106.342 13.7344 106.537 13.4219C106.733 13.1029 106.879 12.6895 106.977 12.1816C107.075 11.6738 107.123 11.0651 107.123 10.3555ZM121.258 14.125V16H111.727V14.3887L116.355 9.33984C116.863 8.76693 117.264 8.27214 117.557 7.85547C117.85 7.4388 118.055 7.06445 118.172 6.73242C118.296 6.39388 118.357 6.0651 118.357 5.74609C118.357 5.29688 118.273 4.90299 118.104 4.56445C117.941 4.2194 117.7 3.94922 117.381 3.75391C117.062 3.55208 116.674 3.45117 116.219 3.45117C115.691 3.45117 115.249 3.5651 114.891 3.79297C114.533 4.02083 114.262 4.33659 114.08 4.74023C113.898 5.13737 113.807 5.5931 113.807 6.10742H111.453C111.453 5.2806 111.642 4.52539 112.02 3.8418C112.397 3.15169 112.944 2.60482 113.66 2.20117C114.376 1.79102 115.239 1.58594 116.248 1.58594C117.199 1.58594 118.006 1.74544 118.67 2.06445C119.334 2.38346 119.839 2.83594 120.184 3.42188C120.535 4.00781 120.711 4.70117 120.711 5.50195C120.711 5.94466 120.639 6.38411 120.496 6.82031C120.353 7.25651 120.148 7.69271 119.881 8.12891C119.62 8.55859 119.311 8.99154 118.953 9.42773C118.595 9.85742 118.201 10.2936 117.771 10.7363L114.695 14.125H121.258ZM139.191 10.9219C139.165 11.5534 139.071 12.1816 138.908 12.8066C138.745 13.4316 138.498 14.0013 138.166 14.5156C137.84 15.0299 137.42 15.4401 136.906 15.7461C136.392 16.0521 135.773 16.2051 135.05 16.2051C134.614 16.2051 134.227 16.1302 133.888 15.9805C133.55 15.8242 133.267 15.6029 133.039 15.3164C132.817 15.0299 132.658 14.6849 132.56 14.2812C132.462 13.8711 132.436 13.4154 132.482 12.9141L132.98 7.37695H134.689L134.201 12.9141C134.162 13.3112 134.168 13.6367 134.22 13.8906C134.279 14.1445 134.367 14.3398 134.484 14.4766C134.601 14.6133 134.735 14.7077 134.884 14.7598C135.034 14.8118 135.184 14.8379 135.334 14.8379C135.685 14.8379 136.001 14.7402 136.281 14.5449C136.561 14.3431 136.798 14.0664 136.994 13.7148C137.196 13.3568 137.352 12.9434 137.462 12.4746C137.58 12.0059 137.648 11.498 137.668 10.9512C137.713 10.0397 137.671 9.19987 137.541 8.43164C137.41 7.6569 137.189 6.9668 136.877 6.36133C136.571 5.75586 136.17 5.24479 135.675 4.82812C135.187 4.40495 134.601 4.08268 133.918 3.86133C133.234 3.63997 132.453 3.5293 131.574 3.5293C130.767 3.5293 130.021 3.65299 129.337 3.90039C128.654 4.14779 128.042 4.50586 127.502 4.97461C126.961 5.43685 126.496 5.99349 126.105 6.64453C125.721 7.28906 125.418 8.01497 125.197 8.82227C124.982 9.62305 124.855 10.4824 124.816 11.4004C124.77 12.3639 124.819 13.2428 124.962 14.0371C125.112 14.8314 125.353 15.5345 125.685 16.1465C126.017 16.7585 126.434 17.2728 126.935 17.6895C127.443 18.1126 128.029 18.4316 128.693 18.6465C129.364 18.8613 130.106 18.9688 130.92 18.9688C131.492 18.9688 132.072 18.9036 132.658 18.7734C133.25 18.6432 133.748 18.4707 134.152 18.2559L134.523 19.5547C134.067 19.8477 133.498 20.0658 132.814 20.209C132.13 20.3522 131.486 20.4238 130.88 20.4238C129.871 20.4238 128.947 20.2936 128.107 20.0332C127.274 19.7728 126.535 19.3887 125.89 18.8809C125.252 18.3796 124.722 17.7643 124.298 17.0352C123.875 16.306 123.563 15.4694 123.361 14.5254C123.159 13.5814 123.081 12.5397 123.127 11.4004C123.172 10.3327 123.335 9.33008 123.615 8.39258C123.895 7.44857 124.279 6.59245 124.767 5.82422C125.262 5.05599 125.848 4.39518 126.525 3.8418C127.209 3.2819 127.977 2.85221 128.83 2.55273C129.683 2.25326 130.61 2.10352 131.613 2.10352C132.629 2.10352 133.546 2.23698 134.367 2.50391C135.187 2.77083 135.907 3.1582 136.525 3.66602C137.15 4.17383 137.668 4.78906 138.078 5.51172C138.488 6.23438 138.787 7.05143 138.976 7.96289C139.165 8.86784 139.237 9.85417 139.191 10.9219ZM129.259 11.8496C129.214 12.2923 129.211 12.6862 129.25 13.0312C129.295 13.3763 129.377 13.666 129.494 13.9004C129.617 14.1348 129.777 14.3138 129.972 14.4375C130.168 14.5612 130.395 14.623 130.656 14.623C130.819 14.623 130.991 14.584 131.173 14.5059C131.362 14.4212 131.548 14.2878 131.73 14.1055C131.912 13.9232 132.085 13.6823 132.248 13.3828C132.41 13.0768 132.547 12.6992 132.658 12.25L133.4 13.0996C133.25 13.6074 133.061 14.0566 132.834 14.4473C132.606 14.8314 132.349 15.1536 132.062 15.4141C131.776 15.668 131.466 15.8633 131.134 16C130.802 16.1302 130.457 16.1953 130.099 16.1953C129.624 16.1953 129.201 16.0911 128.83 15.8828C128.465 15.6745 128.166 15.3815 127.931 15.0039C127.697 14.6198 127.531 14.1641 127.433 13.6367C127.336 13.1029 127.316 12.5072 127.375 11.8496C127.44 11.179 127.563 10.5573 127.746 9.98438C127.934 9.41146 128.166 8.90039 128.439 8.45117C128.719 8.00195 129.035 7.62109 129.386 7.30859C129.738 6.98958 130.115 6.7487 130.519 6.58594C130.929 6.41667 131.349 6.33203 131.779 6.33203C132.515 6.33203 133.091 6.4362 133.507 6.64453C133.924 6.85286 134.318 7.09701 134.689 7.37695L133.771 8.54883C133.582 8.37305 133.335 8.20703 133.029 8.05078C132.729 7.89453 132.371 7.81641 131.955 7.81641C131.584 7.81641 131.245 7.90104 130.939 8.07031C130.64 8.23958 130.376 8.49674 130.148 8.8418C129.92 9.18034 129.728 9.60026 129.572 10.1016C129.422 10.6029 129.318 11.1855 129.259 11.8496ZM148.247 5.43359H150.386V15.707C150.386 16.6576 150.184 17.4648 149.78 18.1289C149.377 18.793 148.814 19.2975 148.091 19.6426C147.368 19.9941 146.532 20.1699 145.581 20.1699C145.178 20.1699 144.728 20.1113 144.234 19.9941C143.745 19.877 143.27 19.6882 142.808 19.4277C142.352 19.1738 141.971 18.8385 141.665 18.4219L142.769 17.0352C143.146 17.4844 143.563 17.8132 144.019 18.0215C144.474 18.2298 144.953 18.334 145.454 18.334C145.995 18.334 146.454 18.2331 146.831 18.0312C147.215 17.8359 147.512 17.5462 147.72 17.1621C147.928 16.778 148.032 16.3092 148.032 15.7559V7.82617L148.247 5.43359ZM141.07 10.834V10.6289C141.07 9.82812 141.167 9.09896 141.363 8.44141C141.558 7.77734 141.838 7.20768 142.202 6.73242C142.567 6.25065 143.01 5.88281 143.53 5.62891C144.051 5.36849 144.64 5.23828 145.298 5.23828C145.982 5.23828 146.564 5.36198 147.046 5.60938C147.534 5.85677 147.941 6.21159 148.267 6.67383C148.592 7.12956 148.846 7.67643 149.029 8.31445C149.217 8.94596 149.357 9.64909 149.448 10.4238V11.0781C149.364 11.8333 149.221 12.5234 149.019 13.1484C148.817 13.7734 148.55 14.3138 148.218 14.7695C147.886 15.2253 147.476 15.5768 146.988 15.8242C146.506 16.0716 145.936 16.1953 145.279 16.1953C144.634 16.1953 144.051 16.0618 143.53 15.7949C143.016 15.528 142.573 15.1536 142.202 14.6719C141.838 14.1901 141.558 13.6237 141.363 12.9727C141.167 12.3151 141.07 11.6022 141.07 10.834ZM143.423 10.6289V10.834C143.423 11.3158 143.469 11.765 143.56 12.1816C143.657 12.5983 143.804 12.9661 143.999 13.2852C144.201 13.5977 144.455 13.8451 144.761 14.0273C145.073 14.2031 145.441 14.291 145.864 14.291C146.418 14.291 146.87 14.1738 147.222 13.9395C147.58 13.7051 147.853 13.3893 148.042 12.9922C148.238 12.5885 148.374 12.1393 148.452 11.6445V9.87695C148.413 9.49284 148.332 9.13477 148.208 8.80273C148.091 8.4707 147.932 8.18099 147.73 7.93359C147.528 7.67969 147.274 7.48438 146.968 7.34766C146.662 7.20443 146.301 7.13281 145.884 7.13281C145.461 7.13281 145.093 7.22396 144.78 7.40625C144.468 7.58854 144.211 7.83919 144.009 8.1582C143.814 8.47721 143.667 8.84831 143.57 9.27148C143.472 9.69466 143.423 10.1471 143.423 10.6289ZM155.331 7.58203V16H152.977V5.43359H155.194L155.331 7.58203ZM154.95 10.3262L154.149 10.3164C154.149 9.58724 154.24 8.91341 154.423 8.29492C154.605 7.67643 154.872 7.13932 155.223 6.68359C155.575 6.22135 156.011 5.86654 156.532 5.61914C157.059 5.36523 157.668 5.23828 158.358 5.23828C158.84 5.23828 159.279 5.3099 159.677 5.45312C160.08 5.58984 160.429 5.80794 160.721 6.10742C161.021 6.4069 161.249 6.79102 161.405 7.25977C161.568 7.72852 161.649 8.29492 161.649 8.95898V16H159.296V9.16406C159.296 8.64974 159.218 8.24609 159.061 7.95312C158.912 7.66016 158.693 7.45182 158.407 7.32812C158.127 7.19792 157.792 7.13281 157.401 7.13281C156.958 7.13281 156.581 7.21745 156.268 7.38672C155.962 7.55599 155.712 7.78711 155.516 8.08008C155.321 8.37305 155.178 8.71159 155.087 9.0957C154.996 9.47982 154.95 9.88997 154.95 10.3262ZM161.503 9.70117L160.399 9.94531C160.399 9.30729 160.487 8.70508 160.663 8.13867C160.845 7.56576 161.109 7.06445 161.454 6.63477C161.805 6.19857 162.238 5.85677 162.753 5.60938C163.267 5.36198 163.856 5.23828 164.52 5.23828C165.061 5.23828 165.542 5.31315 165.966 5.46289C166.395 5.60612 166.76 5.83398 167.059 6.14648C167.359 6.45898 167.587 6.86589 167.743 7.36719C167.899 7.86198 167.977 8.46094 167.977 9.16406V16H165.614V9.1543C165.614 8.62044 165.536 8.20703 165.38 7.91406C165.23 7.62109 165.015 7.41927 164.735 7.30859C164.455 7.19141 164.12 7.13281 163.729 7.13281C163.365 7.13281 163.042 7.20117 162.762 7.33789C162.489 7.4681 162.258 7.65365 162.069 7.89453C161.88 8.12891 161.737 8.39909 161.639 8.70508C161.548 9.01107 161.503 9.3431 161.503 9.70117ZM176.506 13.8809V8.8418C176.506 8.46419 176.438 8.13867 176.301 7.86523C176.164 7.5918 175.956 7.38021 175.676 7.23047C175.403 7.08073 175.058 7.00586 174.641 7.00586C174.257 7.00586 173.925 7.07096 173.645 7.20117C173.365 7.33138 173.147 7.50716 172.991 7.72852C172.834 7.94987 172.756 8.20052 172.756 8.48047H170.412C170.412 8.0638 170.513 7.66016 170.715 7.26953C170.917 6.87891 171.21 6.5306 171.594 6.22461C171.978 5.91862 172.437 5.67773 172.971 5.50195C173.505 5.32617 174.104 5.23828 174.768 5.23828C175.562 5.23828 176.265 5.37174 176.877 5.63867C177.496 5.9056 177.981 6.30924 178.332 6.84961C178.69 7.38346 178.87 8.05404 178.87 8.86133V13.5586C178.87 14.0404 178.902 14.4733 178.967 14.8574C179.039 15.235 179.14 15.5638 179.27 15.8438V16H176.858C176.747 15.7461 176.659 15.4238 176.594 15.0332C176.536 14.6361 176.506 14.252 176.506 13.8809ZM176.848 9.57422L176.868 11.0293H175.178C174.742 11.0293 174.358 11.0716 174.026 11.1562C173.694 11.2344 173.417 11.3516 173.196 11.5078C172.974 11.6641 172.808 11.8529 172.698 12.0742C172.587 12.2956 172.532 12.5462 172.532 12.8262C172.532 13.1061 172.597 13.3633 172.727 13.5977C172.857 13.8255 173.046 14.0046 173.293 14.1348C173.547 14.265 173.853 14.3301 174.211 14.3301C174.693 14.3301 175.113 14.2324 175.471 14.0371C175.836 13.8353 176.122 13.5911 176.33 13.3047C176.539 13.0117 176.649 12.735 176.662 12.4746L177.424 13.5195C177.346 13.7865 177.213 14.0729 177.024 14.3789C176.835 14.6849 176.588 14.9779 176.282 15.2578C175.982 15.5312 175.621 15.7559 175.198 15.9316C174.781 16.1074 174.299 16.1953 173.752 16.1953C173.062 16.1953 172.447 16.0586 171.907 15.7852C171.366 15.5052 170.943 15.1309 170.637 14.6621C170.331 14.1868 170.178 13.6497 170.178 13.0508C170.178 12.4909 170.282 11.9961 170.491 11.5664C170.705 11.1302 171.018 10.7656 171.428 10.4727C171.845 10.1797 172.353 9.95833 172.952 9.80859C173.551 9.65234 174.234 9.57422 175.002 9.57422H176.848ZM184 5.43359V16H181.637V5.43359H184ZM181.48 2.66016C181.48 2.30208 181.598 2.00586 181.832 1.77148C182.073 1.5306 182.405 1.41016 182.828 1.41016C183.245 1.41016 183.574 1.5306 183.814 1.77148C184.055 2.00586 184.176 2.30208 184.176 2.66016C184.176 3.01172 184.055 3.30469 183.814 3.53906C183.574 3.77344 183.245 3.89062 182.828 3.89062C182.405 3.89062 182.073 3.77344 181.832 3.53906C181.598 3.30469 181.48 3.01172 181.48 2.66016ZM189.248 1V16H186.884V1H189.248ZM192.073 14.8281C192.073 14.4635 192.197 14.1576 192.445 13.9102C192.692 13.6562 193.027 13.5293 193.45 13.5293C193.88 13.5293 194.215 13.6562 194.456 13.9102C194.704 14.1576 194.827 14.4635 194.827 14.8281C194.827 15.1927 194.704 15.4987 194.456 15.7461C194.215 15.9935 193.88 16.1172 193.45 16.1172C193.027 16.1172 192.692 15.9935 192.445 15.7461C192.197 15.4987 192.073 15.1927 192.073 14.8281ZM202.009 14.3203C202.393 14.3203 202.738 14.2454 203.044 14.0957C203.356 13.9395 203.607 13.7246 203.796 13.4512C203.991 13.1777 204.098 12.862 204.118 12.5039H206.335C206.322 13.1875 206.12 13.8092 205.729 14.3691C205.339 14.929 204.821 15.375 204.177 15.707C203.532 16.0326 202.819 16.1953 202.038 16.1953C201.231 16.1953 200.527 16.0586 199.929 15.7852C199.33 15.5052 198.832 15.1211 198.434 14.6328C198.037 14.1445 197.738 13.5814 197.536 12.9434C197.341 12.3053 197.243 11.6217 197.243 10.8926V10.5508C197.243 9.82161 197.341 9.13802 197.536 8.5C197.738 7.85547 198.037 7.28906 198.434 6.80078C198.832 6.3125 199.33 5.93164 199.929 5.6582C200.527 5.37826 201.227 5.23828 202.028 5.23828C202.874 5.23828 203.617 5.40755 204.255 5.74609C204.893 6.07812 205.394 6.54362 205.759 7.14258C206.13 7.73503 206.322 8.42513 206.335 9.21289H204.118C204.098 8.82227 204.001 8.4707 203.825 8.1582C203.656 7.83919 203.415 7.58529 203.102 7.39648C202.796 7.20768 202.429 7.11328 201.999 7.11328C201.524 7.11328 201.13 7.21094 200.817 7.40625C200.505 7.59505 200.261 7.85547 200.085 8.1875C199.909 8.51302 199.782 8.88086 199.704 9.29102C199.632 9.69466 199.596 10.1146 199.596 10.5508V10.8926C199.596 11.3288 199.632 11.752 199.704 12.1621C199.776 12.5723 199.899 12.9401 200.075 13.2656C200.257 13.5846 200.505 13.8418 200.817 14.0371C201.13 14.2259 201.527 14.3203 202.009 14.3203ZM207.842 10.834V10.6094C207.842 9.84766 207.953 9.14128 208.174 8.49023C208.396 7.83268 208.715 7.26302 209.131 6.78125C209.554 6.29297 210.069 5.91536 210.674 5.64844C211.286 5.375 211.976 5.23828 212.745 5.23828C213.519 5.23828 214.209 5.375 214.815 5.64844C215.427 5.91536 215.944 6.29297 216.368 6.78125C216.791 7.26302 217.113 7.83268 217.334 8.49023C217.556 9.14128 217.666 9.84766 217.666 10.6094V10.834C217.666 11.5957 217.556 12.3021 217.334 12.9531C217.113 13.6042 216.791 14.1738 216.368 14.6621C215.944 15.1439 215.43 15.5215 214.825 15.7949C214.219 16.0618 213.532 16.1953 212.764 16.1953C211.989 16.1953 211.296 16.0618 210.684 15.7949C210.079 15.5215 209.564 15.1439 209.141 14.6621C208.718 14.1738 208.396 13.6042 208.174 12.9531C207.953 12.3021 207.842 11.5957 207.842 10.834ZM210.196 10.6094V10.834C210.196 11.3092 210.245 11.7585 210.342 12.1816C210.44 12.6048 210.593 12.9759 210.801 13.2949C211.009 13.6139 211.276 13.8646 211.602 14.0469C211.927 14.2292 212.315 14.3203 212.764 14.3203C213.2 14.3203 213.578 14.2292 213.897 14.0469C214.222 13.8646 214.489 13.6139 214.698 13.2949C214.906 12.9759 215.059 12.6048 215.157 12.1816C215.261 11.7585 215.313 11.3092 215.313 10.834V10.6094C215.313 10.1406 215.261 9.69792 215.157 9.28125C215.059 8.85807 214.903 8.48372 214.688 8.1582C214.48 7.83268 214.213 7.57878 213.887 7.39648C213.568 7.20768 213.187 7.11328 212.745 7.11328C212.302 7.11328 211.918 7.20768 211.592 7.39648C211.273 7.57878 211.009 7.83268 210.801 8.1582C210.593 8.48372 210.44 8.85807 210.342 9.28125C210.245 9.69792 210.196 10.1406 210.196 10.6094ZM222.143 7.58203V16H219.789V5.43359H222.006L222.143 7.58203ZM221.762 10.3262L220.961 10.3164C220.961 9.58724 221.052 8.91341 221.234 8.29492C221.417 7.67643 221.684 7.13932 222.035 6.68359C222.387 6.22135 222.823 5.86654 223.344 5.61914C223.871 5.36523 224.48 5.23828 225.17 5.23828C225.652 5.23828 226.091 5.3099 226.488 5.45312C226.892 5.58984 227.24 5.80794 227.533 6.10742C227.833 6.4069 228.061 6.79102 228.217 7.25977C228.38 7.72852 228.461 8.29492 228.461 8.95898V16H226.107V9.16406C226.107 8.64974 226.029 8.24609 225.873 7.95312C225.723 7.66016 225.505 7.45182 225.219 7.32812C224.939 7.19792 224.604 7.13281 224.213 7.13281C223.77 7.13281 223.393 7.21745 223.08 7.38672C222.774 7.55599 222.523 7.78711 222.328 8.08008C222.133 8.37305 221.99 8.71159 221.898 9.0957C221.807 9.47982 221.762 9.88997 221.762 10.3262ZM228.314 9.70117L227.211 9.94531C227.211 9.30729 227.299 8.70508 227.475 8.13867C227.657 7.56576 227.921 7.06445 228.266 6.63477C228.617 6.19857 229.05 5.85677 229.564 5.60938C230.079 5.36198 230.668 5.23828 231.332 5.23828C231.872 5.23828 232.354 5.31315 232.777 5.46289C233.207 5.60612 233.572 5.83398 233.871 6.14648C234.171 6.45898 234.398 6.86589 234.555 7.36719C234.711 7.86198 234.789 8.46094 234.789 9.16406V16H232.426V9.1543C232.426 8.62044 232.348 8.20703 232.191 7.91406C232.042 7.62109 231.827 7.41927 231.547 7.30859C231.267 7.19141 230.932 7.13281 230.541 7.13281C230.176 7.13281 229.854 7.20117 229.574 7.33789C229.301 7.4681 229.07 7.65365 228.881 7.89453C228.692 8.12891 228.549 8.39909 228.451 8.70508C228.36 9.01107 228.314 9.3431 228.314 9.70117Z" fill="white"/>
</svg>
