<svg width="60" height="88" viewBox="0 0 60 88" fill="none" xmlns="http://www.w3.org/2000/svg">
<path d="M0.871094 73.2002C0.871094 69.328 2.4093 65.6145 5.14733 62.8764C7.88536 60.1384 11.5989 58.6002 15.4711 58.6002H30.0711V73.2002C30.0711 77.0724 28.5329 80.7859 25.7948 83.524C23.0568 86.262 19.3433 87.8002 15.4711 87.8002C11.5989 87.8002 7.88536 86.262 5.14733 83.524C2.4093 80.7859 0.871094 77.0724 0.871094 73.2002ZM15.4711 58.6002H30.0711V29.4002H15.4711C11.5989 29.4002 7.88536 30.9384 5.14733 33.6764C2.4093 36.4145 0.871094 40.128 0.871094 44.0002C0.871094 47.8724 2.4093 51.5859 5.14733 54.324C7.88536 57.062 11.5989 58.6002 15.4711 58.6002ZM15.4711 29.4002H30.0711V0.200195H15.4711C11.5989 0.200195 7.88536 1.7384 5.14733 4.47644C2.4093 7.21447 0.871094 10.928 0.871094 14.8002C0.871094 18.6724 2.4093 22.3859 5.14733 25.124C7.88536 27.862 11.5989 29.4002 15.4711 29.4002ZM30.0711 29.4002H44.6711C48.5433 29.4002 52.2568 27.862 54.9948 25.124C57.7329 22.3859 59.2711 18.6724 59.2711 14.8002C59.2711 10.928 57.7329 7.21447 54.9948 4.47644C52.2568 1.7384 48.5433 0.200195 44.6711 0.200195H30.0711V29.4002ZM44.6711 29.4002C41.7835 29.4002 38.9607 30.2565 36.5598 31.8607C34.1588 33.465 32.2875 35.7452 31.1824 38.413C30.0774 41.0808 29.7883 44.0164 30.3516 46.8485C30.915 49.6806 32.3055 52.2821 34.3473 54.324C36.3892 56.3658 38.9907 57.7563 41.8228 58.3197C44.6549 58.883 47.5905 58.5939 50.2583 57.4888C52.9261 56.3838 55.2063 54.5125 56.8105 52.1115C58.4148 49.7106 59.2711 46.8878 59.2711 44.0002C59.2711 40.128 57.7329 36.4145 54.9948 33.6764C52.2568 30.9384 48.5433 29.4002 44.6711 29.4002Z" fill="#A0A3A6"/>
</svg>
