<svg width="42" height="42" viewBox="0 0 42 42" fill="none" xmlns="http://www.w3.org/2000/svg">
<path fill-rule="evenodd" clip-rule="evenodd" d="M20.9987 0C9.40275 0 0 9.63953 0 21.533C0 31.0445 6.0165 39.1147 14.3627 41.9624C15.4127 42.1601 15.7959 41.4953 15.7959 40.925C15.7959 40.4136 15.7776 39.0598 15.7671 37.2633C9.92512 38.5645 8.69269 34.3767 8.69269 34.3767C7.7385 31.8899 6.36169 31.2278 6.36169 31.2278C4.45463 29.8914 6.50606 29.9185 6.50606 29.9185C8.61263 30.0707 9.72169 32.1376 9.72169 32.1376C11.5959 35.428 14.637 34.4779 15.834 33.926C16.0243 32.5347 16.5677 31.5857 17.1675 31.0475C12.5042 30.504 7.602 28.6576 7.602 20.407C7.602 18.0559 8.41969 16.1345 9.76369 14.6285C9.54712 14.0837 8.82656 11.8954 9.96844 8.93079C9.96844 8.93079 11.7324 8.35207 15.7434 11.1378C17.4195 10.6599 19.215 10.422 21.0013 10.4123C22.785 10.4217 24.5818 10.6599 26.2592 11.1378C30.2676 8.35207 32.0276 8.93079 32.0276 8.93079C33.1734 11.8954 32.4529 14.0837 32.2363 14.6285C33.5829 16.1345 34.3954 18.0559 34.3954 20.407C34.3954 28.6777 29.4853 30.4986 24.8076 31.0314C25.5609 31.6963 26.2329 33.0095 26.2329 35.0188C26.2329 37.8973 26.2067 40.2186 26.2067 40.9253C26.2067 41.5013 26.5847 42.1715 27.6504 41.9601C35.9888 39.1067 42 31.0418 42 21.533C42 9.63953 32.5972 0 20.9987 0Z" fill="#D65A31"/>
</svg>
