<svg width="119" height="118" viewBox="0 0 119 118" fill="none" xmlns="http://www.w3.org/2000/svg">
<path d="M116.132 53.7423L64.6112 2.22562C61.6463 -0.741872 56.8339 -0.741872 53.8651 2.22562L43.1669 12.9238L56.7381 26.495C59.892 25.4295 63.5081 26.1442 66.0225 28.6585C68.5484 31.1884 69.2579 34.8356 68.1665 37.9999L81.2457 51.0791C84.41 49.9889 88.0611 50.6946 90.5884 53.2257C94.1204 56.7564 94.1204 62.4791 90.5884 66.0123C87.0551 69.5456 81.3325 69.5456 77.7979 66.0123C75.1411 63.353 74.4847 59.4507 75.8299 56.1777L63.6324 43.9802L63.6311 76.0788C64.4921 76.506 65.3052 77.0744 66.0225 77.7891C69.5544 81.3198 69.5544 87.0424 66.0225 90.5783C62.4892 94.1102 56.764 94.1102 53.2359 90.5783C49.7039 87.0424 49.7039 81.3198 53.2359 77.7891C54.1085 76.9177 55.1184 76.2587 56.1956 75.8159V43.4183C55.1184 42.9781 54.1098 42.3229 53.2359 41.4451C50.5597 38.7728 49.9162 34.846 51.2873 31.56L37.9103 18.1804L2.58401 53.5041C-0.384774 56.4742 -0.384774 61.2866 2.58401 64.2541L54.1046 115.772C57.0708 118.74 61.882 118.74 64.852 115.772L116.132 64.4936C119.099 61.5249 119.099 56.7098 116.132 53.7423Z" fill="#A0A3A6"/>
</svg>
