<svg width="65" height="82" viewBox="0 0 65 82" fill="none" xmlns="http://www.w3.org/2000/svg">
<path d="M10.4452 7.62761H14.1718V11.312H18.2477V0.308594H14.1718V3.94486H10.4452V0.308594H6.37109V11.312H10.4452V7.62761Z" fill="#A0A3A6"/>
<path d="M23.6044 11.312H27.6786V3.9598H31.2634V0.308594H20.0195V3.9598H23.6044V11.312Z" fill="#A0A3A6"/>
<path d="M37.0348 5.86095L39.8416 9.77118H39.9097L42.711 5.86095V11.312H46.7705V0.308594H42.5216L39.9097 4.18063L37.2978 0.308594H33.0508V11.312H37.0348V5.86095Z" fill="#A0A3A6"/>
<path d="M58.6015 7.67742H52.872V0.308594H48.7979V11.312H58.6015V7.67742Z" fill="#A0A3A6"/>
<path d="M0.5 16.1406L6.32704 75.1379L32.4844 81.6915L58.6619 75.1412L64.5 16.1406H0.5ZM51.8582 35.4344H32.4991H21.1834L21.9155 42.8448H32.4991H51.1298L48.9318 65.0659L32.4991 69.1754L32.488 69.1787L16.0664 65.0659L14.9205 53.4431H22.9658L23.5617 59.472L32.4899 61.6505L32.5009 61.6471L41.4383 59.4687L42.369 50.0841H32.5009H14.5875L12.4226 28.2018H32.4991H52.5737L51.8582 35.4344Z" fill="#A0A3A6"/>
</svg>
