<svg width="100" height="24" viewBox="0 0 100 24" fill="none" xmlns="http://www.w3.org/2000/svg">
<path d="M34.3047 7.20312V20H32.6084V7.20312H34.3047ZM38.7695 11.9844V20H37.1436V10.4902H38.7256L38.7695 11.9844ZM41.7402 10.4375L41.7314 11.9492C41.5967 11.9199 41.4678 11.9023 41.3447 11.8965C41.2275 11.8848 41.0928 11.8789 40.9404 11.8789C40.5654 11.8789 40.2344 11.9375 39.9473 12.0547C39.6602 12.1719 39.417 12.3359 39.2178 12.5469C39.0186 12.7578 38.8604 13.0098 38.7432 13.3027C38.6318 13.5898 38.5586 13.9062 38.5234 14.252L38.0664 14.5156C38.0664 13.9414 38.1221 13.4023 38.2334 12.8984C38.3506 12.3945 38.5293 11.9492 38.7695 11.5625C39.0098 11.1699 39.3145 10.8652 39.6836 10.6484C40.0586 10.4258 40.5039 10.3145 41.0195 10.3145C41.1367 10.3145 41.2715 10.3291 41.4238 10.3584C41.5762 10.3818 41.6816 10.4082 41.7402 10.4375ZM53.3154 18.374V13.4785C53.3154 13.1035 53.2393 12.7783 53.0869 12.5029C52.9404 12.2217 52.7178 12.0049 52.4189 11.8525C52.1201 11.7002 51.751 11.624 51.3115 11.624C50.9014 11.624 50.541 11.6943 50.2305 11.835C49.9258 11.9756 49.6855 12.1602 49.5098 12.3887C49.3398 12.6172 49.2549 12.8633 49.2549 13.127H47.6289C47.6289 12.7871 47.7168 12.4502 47.8926 12.1162C48.0684 11.7822 48.3203 11.4805 48.6484 11.2109C48.9824 10.9355 49.3809 10.7188 49.8438 10.5605C50.3125 10.3965 50.834 10.3145 51.4082 10.3145C52.0996 10.3145 52.709 10.4316 53.2363 10.666C53.7695 10.9004 54.1855 11.2549 54.4844 11.7295C54.7891 12.1982 54.9414 12.7871 54.9414 13.4961V17.9258C54.9414 18.2422 54.9678 18.5791 55.0205 18.9365C55.0791 19.2939 55.1641 19.6016 55.2754 19.8594V20H53.5791C53.4971 19.8125 53.4326 19.5635 53.3857 19.2529C53.3389 18.9365 53.3154 18.6436 53.3154 18.374ZM53.5967 14.2344L53.6143 15.377H51.9707C51.5078 15.377 51.0947 15.415 50.7314 15.4912C50.3682 15.5615 50.0635 15.6699 49.8174 15.8164C49.5713 15.9629 49.3838 16.1475 49.2549 16.3701C49.126 16.5869 49.0615 16.8418 49.0615 17.1348C49.0615 17.4336 49.1289 17.7061 49.2637 17.9521C49.3984 18.1982 49.6006 18.3945 49.8701 18.541C50.1455 18.6816 50.4824 18.752 50.8809 18.752C51.3789 18.752 51.8184 18.6465 52.1992 18.4355C52.5801 18.2246 52.8818 17.9668 53.1045 17.6621C53.333 17.3574 53.4561 17.0615 53.4736 16.7744L54.168 17.5566C54.127 17.8027 54.0156 18.0752 53.834 18.374C53.6523 18.6729 53.4092 18.96 53.1045 19.2354C52.8057 19.5049 52.4482 19.7305 52.0322 19.9121C51.6221 20.0879 51.1592 20.1758 50.6436 20.1758C49.999 20.1758 49.4336 20.0498 48.9473 19.7979C48.4668 19.5459 48.0918 19.209 47.8223 18.7871C47.5586 18.3594 47.4268 17.8818 47.4268 17.3545C47.4268 16.8447 47.5264 16.3965 47.7256 16.0098C47.9248 15.6172 48.2119 15.292 48.5869 15.0342C48.9619 14.7705 49.4131 14.5713 49.9404 14.4365C50.4678 14.3018 51.0566 14.2344 51.707 14.2344H53.5967ZM59.2656 6.5V20H57.6309V6.5H59.2656ZM71.8779 17.4775C71.8779 17.2432 71.8252 17.0264 71.7197 16.8271C71.6201 16.6221 71.4121 16.4375 71.0957 16.2734C70.7852 16.1035 70.3164 15.957 69.6895 15.834C69.1621 15.7227 68.6846 15.5908 68.2568 15.4385C67.835 15.2861 67.4746 15.1016 67.1758 14.8848C66.8828 14.668 66.6572 14.4131 66.499 14.1201C66.3408 13.8271 66.2617 13.4844 66.2617 13.0918C66.2617 12.7168 66.3438 12.3623 66.5078 12.0283C66.6777 11.6943 66.915 11.3984 67.2197 11.1406C67.5303 10.8828 67.9023 10.6807 68.3359 10.5342C68.7695 10.3877 69.2529 10.3145 69.7861 10.3145C70.5479 10.3145 71.1982 10.4492 71.7373 10.7188C72.2764 10.9883 72.6895 11.3486 72.9766 11.7998C73.2637 12.2451 73.4072 12.7402 73.4072 13.2852H71.7812C71.7812 13.0215 71.7021 12.7666 71.5439 12.5205C71.3916 12.2686 71.166 12.0605 70.8672 11.8965C70.5742 11.7324 70.2139 11.6504 69.7861 11.6504C69.335 11.6504 68.9688 11.7207 68.6875 11.8613C68.4121 11.9961 68.21 12.1689 68.0811 12.3799C67.958 12.5908 67.8965 12.8135 67.8965 13.0479C67.8965 13.2236 67.9258 13.3818 67.9844 13.5225C68.0488 13.6572 68.1602 13.7832 68.3184 13.9004C68.4766 14.0117 68.6992 14.1172 68.9863 14.2168C69.2734 14.3164 69.6396 14.416 70.085 14.5156C70.8643 14.6914 71.5059 14.9023 72.0098 15.1484C72.5137 15.3945 72.8887 15.6963 73.1348 16.0537C73.3809 16.4111 73.5039 16.8447 73.5039 17.3545C73.5039 17.7705 73.416 18.1514 73.2402 18.4971C73.0703 18.8428 72.8213 19.1416 72.4932 19.3936C72.1709 19.6396 71.7842 19.833 71.333 19.9736C70.8877 20.1084 70.3867 20.1758 69.8301 20.1758C68.9922 20.1758 68.2832 20.0264 67.7031 19.7275C67.123 19.4287 66.6836 19.042 66.3848 18.5674C66.0859 18.0928 65.9365 17.5918 65.9365 17.0645H67.5713C67.5947 17.5098 67.7236 17.8643 67.958 18.1279C68.1924 18.3857 68.4795 18.5703 68.8193 18.6816C69.1592 18.7871 69.4961 18.8398 69.8301 18.8398C70.2754 18.8398 70.6475 18.7812 70.9463 18.6641C71.251 18.5469 71.4824 18.3857 71.6406 18.1807C71.7988 17.9756 71.8779 17.7412 71.8779 17.4775ZM77.4062 10.4902V20H75.7715V10.4902H77.4062ZM75.6484 7.96777C75.6484 7.7041 75.7275 7.48145 75.8857 7.2998C76.0498 7.11816 76.29 7.02734 76.6064 7.02734C76.917 7.02734 77.1543 7.11816 77.3184 7.2998C77.4883 7.48145 77.5732 7.7041 77.5732 7.96777C77.5732 8.21973 77.4883 8.43652 77.3184 8.61816C77.1543 8.79395 76.917 8.88184 76.6064 8.88184C76.29 8.88184 76.0498 8.79395 75.8857 8.61816C75.7275 8.43652 75.6484 8.21973 75.6484 7.96777ZM83.998 10.4902V11.7383H78.8564V10.4902H83.998ZM80.5967 8.17871H82.2227V17.6445C82.2227 17.9668 82.2725 18.21 82.3721 18.374C82.4717 18.5381 82.6006 18.6465 82.7588 18.6992C82.917 18.752 83.0869 18.7783 83.2686 18.7783C83.4033 18.7783 83.5439 18.7666 83.6904 18.7432C83.8428 18.7139 83.957 18.6904 84.0332 18.6729L84.042 20C83.9131 20.041 83.7432 20.0791 83.5322 20.1143C83.3271 20.1553 83.0781 20.1758 82.7852 20.1758C82.3867 20.1758 82.0205 20.0967 81.6865 19.9385C81.3525 19.7803 81.0859 19.5166 80.8867 19.1475C80.6934 18.7725 80.5967 18.2686 80.5967 17.6357V8.17871ZM87.6719 10.4902V20H86.0371V10.4902H87.6719ZM85.9141 7.96777C85.9141 7.7041 85.9932 7.48145 86.1514 7.2998C86.3154 7.11816 86.5557 7.02734 86.8721 7.02734C87.1826 7.02734 87.4199 7.11816 87.584 7.2998C87.7539 7.48145 87.8389 7.7041 87.8389 7.96777C87.8389 8.21973 87.7539 8.43652 87.584 8.61816C87.4199 8.79395 87.1826 8.88184 86.8721 8.88184C86.5557 8.88184 86.3154 8.79395 86.1514 8.61816C85.9932 8.43652 85.9141 8.21973 85.9141 7.96777ZM89.8516 15.3506V15.1484C89.8516 14.4629 89.9512 13.8271 90.1504 13.2412C90.3496 12.6494 90.6367 12.1367 91.0117 11.7031C91.3867 11.2637 91.8408 10.9238 92.374 10.6836C92.9072 10.4375 93.5049 10.3145 94.167 10.3145C94.835 10.3145 95.4355 10.4375 95.9688 10.6836C96.5078 10.9238 96.9648 11.2637 97.3398 11.7031C97.7207 12.1367 98.0107 12.6494 98.21 13.2412C98.4092 13.8271 98.5088 14.4629 98.5088 15.1484V15.3506C98.5088 16.0361 98.4092 16.6719 98.21 17.2578C98.0107 17.8438 97.7207 18.3564 97.3398 18.7959C96.9648 19.2295 96.5107 19.5693 95.9775 19.8154C95.4502 20.0557 94.8525 20.1758 94.1846 20.1758C93.5166 20.1758 92.916 20.0557 92.3828 19.8154C91.8496 19.5693 91.3926 19.2295 91.0117 18.7959C90.6367 18.3564 90.3496 17.8438 90.1504 17.2578C89.9512 16.6719 89.8516 16.0361 89.8516 15.3506ZM91.4775 15.1484V15.3506C91.4775 15.8252 91.5332 16.2734 91.6445 16.6953C91.7559 17.1113 91.9229 17.4805 92.1455 17.8027C92.374 18.125 92.6582 18.3799 92.998 18.5674C93.3379 18.749 93.7334 18.8398 94.1846 18.8398C94.6299 18.8398 95.0195 18.749 95.3535 18.5674C95.6934 18.3799 95.9746 18.125 96.1973 17.8027C96.4199 17.4805 96.5869 17.1113 96.6982 16.6953C96.8154 16.2734 96.874 15.8252 96.874 15.3506V15.1484C96.874 14.6797 96.8154 14.2373 96.6982 13.8213C96.5869 13.3994 96.417 13.0273 96.1885 12.7051C95.9658 12.377 95.6846 12.1191 95.3447 11.9316C95.0107 11.7441 94.6182 11.6504 94.167 11.6504C93.7217 11.6504 93.3291 11.7441 92.9893 11.9316C92.6553 12.1191 92.374 12.377 92.1455 12.7051C91.9229 13.0273 91.7559 13.3994 91.6445 13.8213C91.5332 14.2373 91.4775 14.6797 91.4775 15.1484Z" fill="#D65A31"/>
<path d="M18 13V19C18 19.5304 17.7893 20.0391 17.4142 20.4142C17.0391 20.7893 16.5304 21 16 21H5C4.46957 21 3.96086 20.7893 3.58579 20.4142C3.21071 20.0391 3 19.5304 3 19V8C3 7.46957 3.21071 6.96086 3.58579 6.58579C3.96086 6.21071 4.46957 6 5 6H11" stroke="#D65A31" stroke-width="2" stroke-linecap="round" stroke-linejoin="round"/>
<path d="M15 3H21V9" stroke="#D65A31" stroke-width="2" stroke-linecap="round" stroke-linejoin="round"/>
<path d="M10 14L21 3" stroke="#D65A31" stroke-width="2" stroke-linecap="round" stroke-linejoin="round"/>
</svg>
