<svg width="123" height="22" viewBox="0 0 123 22" fill="none" xmlns="http://www.w3.org/2000/svg">
<path fill-rule="evenodd" clip-rule="evenodd" d="M10.7835 0.71875C4.82863 0.71875 0 5.43817 0 11.2611C0 15.9178 3.08967 19.8689 7.37572 21.2631C7.91493 21.3599 8.11174 21.0344 8.11174 20.7552C8.11174 20.5048 8.10231 19.842 8.09692 18.9625C5.09688 19.5995 4.46399 17.5493 4.46399 17.5493C3.97398 16.3318 3.26694 16.0076 3.26694 16.0076C2.2876 15.3533 3.34108 15.3666 3.34108 15.3666C4.42287 15.4411 4.99241 16.453 4.99241 16.453C5.9549 18.0639 7.51659 17.5988 8.13129 17.3286C8.22902 16.6474 8.50806 16.1828 8.81609 15.9193C6.42132 15.6532 3.90388 14.7492 3.90388 10.7098C3.90388 9.55876 4.32379 8.61803 5.01398 7.88073C4.90277 7.61397 4.53274 6.54264 5.11913 5.09118C5.11913 5.09118 6.025 4.80784 8.08478 6.17169C8.9455 5.93774 9.86755 5.82126 10.7849 5.8165C11.7009 5.82109 12.6236 5.93774 13.485 6.17169C15.5434 4.80784 16.4473 5.09118 16.4473 5.09118C17.0357 6.54264 16.6656 7.61397 16.5544 7.88073C17.246 8.61803 17.6632 9.55876 17.6632 10.7098C17.6632 14.759 15.1417 15.6506 12.7395 15.9114C13.1264 16.2369 13.4715 16.8799 13.4715 17.8636C13.4715 19.2729 13.458 20.4094 13.458 20.7554C13.458 21.0374 13.6521 21.3655 14.1994 21.262C18.4814 19.865 21.5684 15.9165 21.5684 11.2611C21.5684 5.43817 16.7398 0.71875 10.7835 0.71875Z" fill="#A0A3A6"/>
<path d="M36.873 4.70312V17.5H35.1768V4.70312H36.873ZM41.3379 9.48438V17.5H39.7119V7.99023H41.2939L41.3379 9.48438ZM44.3086 7.9375L44.2998 9.44922C44.165 9.41992 44.0361 9.40234 43.9131 9.39648C43.7959 9.38477 43.6611 9.37891 43.5088 9.37891C43.1338 9.37891 42.8027 9.4375 42.5156 9.55469C42.2285 9.67188 41.9854 9.83594 41.7861 10.0469C41.5869 10.2578 41.4287 10.5098 41.3115 10.8027C41.2002 11.0898 41.127 11.4062 41.0918 11.752L40.6348 12.0156C40.6348 11.4414 40.6904 10.9023 40.8018 10.3984C40.9189 9.89453 41.0977 9.44922 41.3379 9.0625C41.5781 8.66992 41.8828 8.36523 42.252 8.14844C42.627 7.92578 43.0723 7.81445 43.5879 7.81445C43.7051 7.81445 43.8398 7.8291 43.9922 7.8584C44.1445 7.88184 44.25 7.9082 44.3086 7.9375ZM55.8838 15.874V10.9785C55.8838 10.6035 55.8076 10.2783 55.6553 10.0029C55.5088 9.72168 55.2861 9.50488 54.9873 9.35254C54.6885 9.2002 54.3193 9.12402 53.8799 9.12402C53.4697 9.12402 53.1094 9.19434 52.7988 9.33496C52.4941 9.47559 52.2539 9.66016 52.0781 9.88867C51.9082 10.1172 51.8232 10.3633 51.8232 10.627H50.1973C50.1973 10.2871 50.2852 9.9502 50.4609 9.61621C50.6367 9.28223 50.8887 8.98047 51.2168 8.71094C51.5508 8.43555 51.9492 8.21875 52.4121 8.06055C52.8809 7.89648 53.4023 7.81445 53.9766 7.81445C54.668 7.81445 55.2773 7.93164 55.8047 8.16602C56.3379 8.40039 56.7539 8.75488 57.0527 9.22949C57.3574 9.69824 57.5098 10.2871 57.5098 10.9961V15.4258C57.5098 15.7422 57.5361 16.0791 57.5889 16.4365C57.6475 16.7939 57.7324 17.1016 57.8438 17.3594V17.5H56.1475C56.0654 17.3125 56.001 17.0635 55.9541 16.7529C55.9072 16.4365 55.8838 16.1436 55.8838 15.874ZM56.165 11.7344L56.1826 12.877H54.5391C54.0762 12.877 53.6631 12.915 53.2998 12.9912C52.9365 13.0615 52.6318 13.1699 52.3857 13.3164C52.1396 13.4629 51.9521 13.6475 51.8232 13.8701C51.6943 14.0869 51.6299 14.3418 51.6299 14.6348C51.6299 14.9336 51.6973 15.2061 51.832 15.4521C51.9668 15.6982 52.1689 15.8945 52.4385 16.041C52.7139 16.1816 53.0508 16.252 53.4492 16.252C53.9473 16.252 54.3867 16.1465 54.7676 15.9355C55.1484 15.7246 55.4502 15.4668 55.6729 15.1621C55.9014 14.8574 56.0244 14.5615 56.042 14.2744L56.7363 15.0566C56.6953 15.3027 56.584 15.5752 56.4023 15.874C56.2207 16.1729 55.9775 16.46 55.6729 16.7354C55.374 17.0049 55.0166 17.2305 54.6006 17.4121C54.1904 17.5879 53.7275 17.6758 53.2119 17.6758C52.5674 17.6758 52.002 17.5498 51.5156 17.2979C51.0352 17.0459 50.6602 16.709 50.3906 16.2871C50.127 15.8594 49.9951 15.3818 49.9951 14.8545C49.9951 14.3447 50.0947 13.8965 50.2939 13.5098C50.4932 13.1172 50.7803 12.792 51.1553 12.5342C51.5303 12.2705 51.9814 12.0713 52.5088 11.9365C53.0361 11.8018 53.625 11.7344 54.2754 11.7344H56.165ZM61.834 4V17.5H60.1992V4H61.834ZM72.7148 16.3398C73.1016 16.3398 73.459 16.2607 73.7871 16.1025C74.1152 15.9443 74.3848 15.7275 74.5957 15.4521C74.8066 15.1709 74.9268 14.8516 74.9561 14.4941H76.5029C76.4736 15.0566 76.2832 15.5811 75.9316 16.0674C75.5859 16.5479 75.1318 16.9375 74.5693 17.2363C74.0068 17.5293 73.3887 17.6758 72.7148 17.6758C72 17.6758 71.376 17.5498 70.8428 17.2979C70.3154 17.0459 69.876 16.7002 69.5244 16.2607C69.1787 15.8213 68.918 15.3174 68.7422 14.749C68.5723 14.1748 68.4873 13.5684 68.4873 12.9297V12.5605C68.4873 11.9219 68.5723 11.3184 68.7422 10.75C68.918 10.1758 69.1787 9.66895 69.5244 9.22949C69.876 8.79004 70.3154 8.44434 70.8428 8.19238C71.376 7.94043 72 7.81445 72.7148 7.81445C73.459 7.81445 74.1094 7.9668 74.666 8.27148C75.2227 8.57031 75.6592 8.98047 75.9756 9.50195C76.2979 10.0176 76.4736 10.6035 76.5029 11.2598H74.9561C74.9268 10.8672 74.8154 10.5127 74.6221 10.1963C74.4346 9.87988 74.1768 9.62793 73.8486 9.44043C73.5264 9.24707 73.1484 9.15039 72.7148 9.15039C72.2168 9.15039 71.7979 9.25 71.458 9.44922C71.124 9.64258 70.8574 9.90625 70.6582 10.2402C70.4648 10.5684 70.3242 10.9346 70.2363 11.3389C70.1543 11.7373 70.1133 12.1445 70.1133 12.5605V12.9297C70.1133 13.3457 70.1543 13.7559 70.2363 14.1602C70.3184 14.5645 70.4561 14.9307 70.6494 15.2588C70.8486 15.5869 71.1152 15.8506 71.4492 16.0498C71.7891 16.2432 72.2109 16.3398 72.7148 16.3398ZM77.9004 12.8506V12.6484C77.9004 11.9629 78 11.3271 78.1992 10.7412C78.3984 10.1494 78.6855 9.63672 79.0605 9.20312C79.4355 8.76367 79.8896 8.42383 80.4229 8.18359C80.9561 7.9375 81.5537 7.81445 82.2158 7.81445C82.8838 7.81445 83.4844 7.9375 84.0176 8.18359C84.5566 8.42383 85.0137 8.76367 85.3887 9.20312C85.7695 9.63672 86.0596 10.1494 86.2588 10.7412C86.458 11.3271 86.5576 11.9629 86.5576 12.6484V12.8506C86.5576 13.5361 86.458 14.1719 86.2588 14.7578C86.0596 15.3438 85.7695 15.8564 85.3887 16.2959C85.0137 16.7295 84.5596 17.0693 84.0264 17.3154C83.499 17.5557 82.9014 17.6758 82.2334 17.6758C81.5654 17.6758 80.9648 17.5557 80.4316 17.3154C79.8984 17.0693 79.4414 16.7295 79.0605 16.2959C78.6855 15.8564 78.3984 15.3438 78.1992 14.7578C78 14.1719 77.9004 13.5361 77.9004 12.8506ZM79.5264 12.6484V12.8506C79.5264 13.3252 79.582 13.7734 79.6934 14.1953C79.8047 14.6113 79.9717 14.9805 80.1943 15.3027C80.4229 15.625 80.707 15.8799 81.0469 16.0674C81.3867 16.249 81.7822 16.3398 82.2334 16.3398C82.6787 16.3398 83.0684 16.249 83.4023 16.0674C83.7422 15.8799 84.0234 15.625 84.2461 15.3027C84.4688 14.9805 84.6357 14.6113 84.7471 14.1953C84.8643 13.7734 84.9229 13.3252 84.9229 12.8506V12.6484C84.9229 12.1797 84.8643 11.7373 84.7471 11.3213C84.6357 10.8994 84.4658 10.5273 84.2373 10.2051C84.0146 9.87695 83.7334 9.61914 83.3936 9.43164C83.0596 9.24414 82.667 9.15039 82.2158 9.15039C81.7705 9.15039 81.3779 9.24414 81.0381 9.43164C80.7041 9.61914 80.4229 9.87695 80.1943 10.2051C79.9717 10.5273 79.8047 10.8994 79.6934 11.3213C79.582 11.7373 79.5264 12.1797 79.5264 12.6484ZM94.5908 15.6543V4H96.2256V17.5H94.7314L94.5908 15.6543ZM88.1924 12.8506V12.666C88.1924 11.9395 88.2803 11.2803 88.4561 10.6885C88.6377 10.0908 88.8926 9.57812 89.2207 9.15039C89.5547 8.72266 89.9502 8.39453 90.4072 8.16602C90.8701 7.93164 91.3857 7.81445 91.9541 7.81445C92.5518 7.81445 93.0732 7.91992 93.5186 8.13086C93.9697 8.33594 94.3506 8.6377 94.6611 9.03613C94.9775 9.42871 95.2266 9.90332 95.4082 10.46C95.5898 11.0166 95.7158 11.6465 95.7861 12.3496V13.1582C95.7217 13.8555 95.5957 14.4824 95.4082 15.0391C95.2266 15.5957 94.9775 16.0703 94.6611 16.4629C94.3506 16.8555 93.9697 17.1572 93.5186 17.3682C93.0674 17.5732 92.54 17.6758 91.9365 17.6758C91.3799 17.6758 90.8701 17.5557 90.4072 17.3154C89.9502 17.0752 89.5547 16.7383 89.2207 16.3047C88.8926 15.8711 88.6377 15.3613 88.4561 14.7754C88.2803 14.1836 88.1924 13.542 88.1924 12.8506ZM89.8271 12.666V12.8506C89.8271 13.3252 89.874 13.7705 89.9678 14.1865C90.0674 14.6025 90.2197 14.9688 90.4248 15.2852C90.6299 15.6016 90.8906 15.8506 91.207 16.0322C91.5234 16.208 91.9014 16.2959 92.3408 16.2959C92.8799 16.2959 93.3223 16.1816 93.668 15.9531C94.0195 15.7246 94.3008 15.4229 94.5117 15.0479C94.7227 14.6729 94.8867 14.2656 95.0039 13.8262V11.708C94.9336 11.3857 94.8311 11.0752 94.6963 10.7764C94.5674 10.4717 94.3975 10.2021 94.1865 9.96777C93.9814 9.72754 93.7266 9.53711 93.4219 9.39648C93.123 9.25586 92.7686 9.18555 92.3584 9.18555C91.9131 9.18555 91.5293 9.2793 91.207 9.4668C90.8906 9.64844 90.6299 9.90039 90.4248 10.2227C90.2197 10.5391 90.0674 10.9082 89.9678 11.3301C89.874 11.7461 89.8271 12.1914 89.8271 12.666ZM100.523 7.99023V17.5H98.8887V7.99023H100.523ZM98.7656 5.46777C98.7656 5.2041 98.8447 4.98145 99.0029 4.7998C99.167 4.61816 99.4072 4.52734 99.7236 4.52734C100.034 4.52734 100.271 4.61816 100.436 4.7998C100.605 4.98145 100.69 5.2041 100.69 5.46777C100.69 5.71973 100.605 5.93652 100.436 6.11816C100.271 6.29395 100.034 6.38184 99.7236 6.38184C99.4072 6.38184 99.167 6.29395 99.0029 6.11816C98.8447 5.93652 98.7656 5.71973 98.7656 5.46777ZM109.295 7.99023H110.771V17.2979C110.771 18.1357 110.602 18.8506 110.262 19.4424C109.922 20.0342 109.447 20.4824 108.838 20.7871C108.234 21.0977 107.537 21.2529 106.746 21.2529C106.418 21.2529 106.031 21.2002 105.586 21.0947C105.146 20.9951 104.713 20.8223 104.285 20.5762C103.863 20.3359 103.509 20.0107 103.222 19.6006L104.074 18.6338C104.473 19.1143 104.889 19.4482 105.322 19.6357C105.762 19.8232 106.195 19.917 106.623 19.917C107.139 19.917 107.584 19.8203 107.959 19.627C108.334 19.4336 108.624 19.1465 108.829 18.7656C109.04 18.3906 109.146 17.9277 109.146 17.377V10.082L109.295 7.99023ZM102.747 12.8506V12.666C102.747 11.9395 102.832 11.2803 103.002 10.6885C103.178 10.0908 103.427 9.57812 103.749 9.15039C104.077 8.72266 104.473 8.39453 104.936 8.16602C105.398 7.93164 105.92 7.81445 106.5 7.81445C107.098 7.81445 107.619 7.91992 108.064 8.13086C108.516 8.33594 108.896 8.6377 109.207 9.03613C109.523 9.42871 109.772 9.90332 109.954 10.46C110.136 11.0166 110.262 11.6465 110.332 12.3496V13.1582C110.268 13.8555 110.142 14.4824 109.954 15.0391C109.772 15.5957 109.523 16.0703 109.207 16.4629C108.896 16.8555 108.516 17.1572 108.064 17.3682C107.613 17.5732 107.086 17.6758 106.482 17.6758C105.914 17.6758 105.398 17.5557 104.936 17.3154C104.479 17.0752 104.086 16.7383 103.758 16.3047C103.43 15.8711 103.178 15.3613 103.002 14.7754C102.832 14.1836 102.747 13.542 102.747 12.8506ZM104.373 12.666V12.8506C104.373 13.3252 104.42 13.7705 104.514 14.1865C104.613 14.6025 104.763 14.9688 104.962 15.2852C105.167 15.6016 105.428 15.8506 105.744 16.0322C106.061 16.208 106.438 16.2959 106.878 16.2959C107.417 16.2959 107.862 16.1816 108.214 15.9531C108.565 15.7246 108.844 15.4229 109.049 15.0479C109.26 14.6729 109.424 14.2656 109.541 13.8262V11.708C109.477 11.3857 109.377 11.0752 109.242 10.7764C109.113 10.4717 108.943 10.2021 108.732 9.96777C108.527 9.72754 108.272 9.53711 107.968 9.39648C107.663 9.25586 107.306 9.18555 106.896 9.18555C106.45 9.18555 106.066 9.2793 105.744 9.4668C105.428 9.64844 105.167 9.90039 104.962 10.2227C104.763 10.5391 104.613 10.9082 104.514 11.3301C104.42 11.7461 104.373 12.1914 104.373 12.666ZM112.811 12.8506V12.6484C112.811 11.9629 112.91 11.3271 113.109 10.7412C113.309 10.1494 113.596 9.63672 113.971 9.20312C114.346 8.76367 114.8 8.42383 115.333 8.18359C115.866 7.9375 116.464 7.81445 117.126 7.81445C117.794 7.81445 118.395 7.9375 118.928 8.18359C119.467 8.42383 119.924 8.76367 120.299 9.20312C120.68 9.63672 120.97 10.1494 121.169 10.7412C121.368 11.3271 121.468 11.9629 121.468 12.6484V12.8506C121.468 13.5361 121.368 14.1719 121.169 14.7578C120.97 15.3438 120.68 15.8564 120.299 16.2959C119.924 16.7295 119.47 17.0693 118.937 17.3154C118.409 17.5557 117.812 17.6758 117.144 17.6758C116.476 17.6758 115.875 17.5557 115.342 17.3154C114.809 17.0693 114.352 16.7295 113.971 16.2959C113.596 15.8564 113.309 15.3438 113.109 14.7578C112.91 14.1719 112.811 13.5361 112.811 12.8506ZM114.437 12.6484V12.8506C114.437 13.3252 114.492 13.7734 114.604 14.1953C114.715 14.6113 114.882 14.9805 115.104 15.3027C115.333 15.625 115.617 15.8799 115.957 16.0674C116.297 16.249 116.692 16.3398 117.144 16.3398C117.589 16.3398 117.979 16.249 118.312 16.0674C118.652 15.8799 118.934 15.625 119.156 15.3027C119.379 14.9805 119.546 14.6113 119.657 14.1953C119.774 13.7734 119.833 13.3252 119.833 12.8506V12.6484C119.833 12.1797 119.774 11.7373 119.657 11.3213C119.546 10.8994 119.376 10.5273 119.147 10.2051C118.925 9.87695 118.644 9.61914 118.304 9.43164C117.97 9.24414 117.577 9.15039 117.126 9.15039C116.681 9.15039 116.288 9.24414 115.948 9.43164C115.614 9.61914 115.333 9.87695 115.104 10.2051C114.882 10.5273 114.715 10.8994 114.604 11.3213C114.492 11.7373 114.437 12.1797 114.437 12.6484Z" fill="#A0A3A6"/>
</svg>
