<svg width="163" height="17" viewBox="0 0 163 17" fill="none" xmlns="http://www.w3.org/2000/svg">
<path d="M1.02148 0.203125H2.66504L6.85742 10.6357L11.041 0.203125H12.6934L7.49023 13H6.20703L1.02148 0.203125ZM0.485352 0.203125H1.93555L2.17285 8.00781V13H0.485352V0.203125ZM11.7705 0.203125H13.2207V13H11.5332V8.00781L11.7705 0.203125ZM21.5615 11.374V6.47852C21.5615 6.10352 21.4854 5.77832 21.333 5.50293C21.1865 5.22168 20.9639 5.00488 20.665 4.85254C20.3662 4.7002 19.9971 4.62402 19.5576 4.62402C19.1475 4.62402 18.7871 4.69434 18.4766 4.83496C18.1719 4.97559 17.9316 5.16016 17.7559 5.38867C17.5859 5.61719 17.501 5.86328 17.501 6.12695H15.875C15.875 5.78711 15.9629 5.4502 16.1387 5.11621C16.3145 4.78223 16.5664 4.48047 16.8945 4.21094C17.2285 3.93555 17.627 3.71875 18.0898 3.56055C18.5586 3.39648 19.0801 3.31445 19.6543 3.31445C20.3457 3.31445 20.9551 3.43164 21.4824 3.66602C22.0156 3.90039 22.4316 4.25488 22.7305 4.72949C23.0352 5.19824 23.1875 5.78711 23.1875 6.49609V10.9258C23.1875 11.2422 23.2139 11.5791 23.2666 11.9365C23.3252 12.2939 23.4102 12.6016 23.5215 12.8594V13H21.8252C21.7432 12.8125 21.6787 12.5635 21.6318 12.2529C21.585 11.9365 21.5615 11.6436 21.5615 11.374ZM21.8428 7.23438L21.8604 8.37695H20.2168C19.7539 8.37695 19.3408 8.41504 18.9775 8.49121C18.6143 8.56152 18.3096 8.66992 18.0635 8.81641C17.8174 8.96289 17.6299 9.14746 17.501 9.37012C17.3721 9.58691 17.3076 9.8418 17.3076 10.1348C17.3076 10.4336 17.375 10.7061 17.5098 10.9521C17.6445 11.1982 17.8467 11.3945 18.1162 11.541C18.3916 11.6816 18.7285 11.752 19.127 11.752C19.625 11.752 20.0645 11.6465 20.4453 11.4355C20.8262 11.2246 21.1279 10.9668 21.3506 10.6621C21.5791 10.3574 21.7021 10.0615 21.7197 9.77441L22.4141 10.5566C22.373 10.8027 22.2617 11.0752 22.0801 11.374C21.8984 11.6729 21.6553 11.96 21.3506 12.2354C21.0518 12.5049 20.6943 12.7305 20.2783 12.9121C19.8682 13.0879 19.4053 13.1758 18.8896 13.1758C18.2451 13.1758 17.6797 13.0498 17.1934 12.7979C16.7129 12.5459 16.3379 12.209 16.0684 11.7871C15.8047 11.3594 15.6729 10.8818 15.6729 10.3545C15.6729 9.84473 15.7725 9.39648 15.9717 9.00977C16.1709 8.61719 16.458 8.29199 16.833 8.03418C17.208 7.77051 17.6592 7.57129 18.1865 7.43652C18.7139 7.30176 19.3027 7.23438 19.9531 7.23438H21.8428ZM27.3711 5.52051V13H25.7451V3.49023H27.2832L27.3711 5.52051ZM26.9844 7.88477L26.3076 7.8584C26.3135 7.20801 26.4102 6.60742 26.5977 6.05664C26.7852 5.5 27.0488 5.0166 27.3887 4.60645C27.7285 4.19629 28.1328 3.87988 28.6016 3.65723C29.0762 3.42871 29.6006 3.31445 30.1748 3.31445C30.6436 3.31445 31.0654 3.37891 31.4404 3.50781C31.8154 3.63086 32.1348 3.83008 32.3984 4.10547C32.668 4.38086 32.873 4.73828 33.0137 5.17773C33.1543 5.61133 33.2246 6.1416 33.2246 6.76855V13H31.5898V6.75098C31.5898 6.25293 31.5166 5.85449 31.3701 5.55566C31.2236 5.25098 31.0098 5.03125 30.7285 4.89648C30.4473 4.75586 30.1016 4.68555 29.6914 4.68555C29.2871 4.68555 28.918 4.77051 28.584 4.94043C28.2559 5.11035 27.9717 5.34473 27.7314 5.64355C27.4971 5.94238 27.3125 6.28516 27.1777 6.67188C27.0488 7.05273 26.9844 7.45703 26.9844 7.88477ZM41.3018 11.374V6.47852C41.3018 6.10352 41.2256 5.77832 41.0732 5.50293C40.9268 5.22168 40.7041 5.00488 40.4053 4.85254C40.1064 4.7002 39.7373 4.62402 39.2979 4.62402C38.8877 4.62402 38.5273 4.69434 38.2168 4.83496C37.9121 4.97559 37.6719 5.16016 37.4961 5.38867C37.3262 5.61719 37.2412 5.86328 37.2412 6.12695H35.6152C35.6152 5.78711 35.7031 5.4502 35.8789 5.11621C36.0547 4.78223 36.3066 4.48047 36.6348 4.21094C36.9688 3.93555 37.3672 3.71875 37.8301 3.56055C38.2988 3.39648 38.8203 3.31445 39.3945 3.31445C40.0859 3.31445 40.6953 3.43164 41.2227 3.66602C41.7559 3.90039 42.1719 4.25488 42.4707 4.72949C42.7754 5.19824 42.9277 5.78711 42.9277 6.49609V10.9258C42.9277 11.2422 42.9541 11.5791 43.0068 11.9365C43.0654 12.2939 43.1504 12.6016 43.2617 12.8594V13H41.5654C41.4834 12.8125 41.4189 12.5635 41.3721 12.2529C41.3252 11.9365 41.3018 11.6436 41.3018 11.374ZM41.583 7.23438L41.6006 8.37695H39.957C39.4941 8.37695 39.0811 8.41504 38.7178 8.49121C38.3545 8.56152 38.0498 8.66992 37.8037 8.81641C37.5576 8.96289 37.3701 9.14746 37.2412 9.37012C37.1123 9.58691 37.0479 9.8418 37.0479 10.1348C37.0479 10.4336 37.1152 10.7061 37.25 10.9521C37.3848 11.1982 37.5869 11.3945 37.8564 11.541C38.1318 11.6816 38.4688 11.752 38.8672 11.752C39.3652 11.752 39.8047 11.6465 40.1855 11.4355C40.5664 11.2246 40.8682 10.9668 41.0908 10.6621C41.3193 10.3574 41.4424 10.0615 41.46 9.77441L42.1543 10.5566C42.1133 10.8027 42.002 11.0752 41.8203 11.374C41.6387 11.6729 41.3955 11.96 41.0908 12.2354C40.792 12.5049 40.4346 12.7305 40.0186 12.9121C39.6084 13.0879 39.1455 13.1758 38.6299 13.1758C37.9854 13.1758 37.4199 13.0498 36.9336 12.7979C36.4531 12.5459 36.0781 12.209 35.8086 11.7871C35.5449 11.3594 35.4131 10.8818 35.4131 10.3545C35.4131 9.84473 35.5127 9.39648 35.7119 9.00977C35.9111 8.61719 36.1982 8.29199 36.5732 8.03418C36.9482 7.77051 37.3994 7.57129 37.9268 7.43652C38.4541 7.30176 39.043 7.23438 39.6934 7.23438H41.583ZM51.6465 3.49023H53.123V12.7979C53.123 13.6357 52.9531 14.3506 52.6133 14.9424C52.2734 15.5342 51.7988 15.9824 51.1895 16.2871C50.5859 16.5977 49.8887 16.7529 49.0977 16.7529C48.7695 16.7529 48.3828 16.7002 47.9375 16.5947C47.498 16.4951 47.0645 16.3223 46.6367 16.0762C46.2148 15.8359 45.8604 15.5107 45.5732 15.1006L46.4258 14.1338C46.8242 14.6143 47.2402 14.9482 47.6738 15.1357C48.1133 15.3232 48.5469 15.417 48.9746 15.417C49.4902 15.417 49.9355 15.3203 50.3105 15.127C50.6855 14.9336 50.9756 14.6465 51.1807 14.2656C51.3916 13.8906 51.4971 13.4277 51.4971 12.877V5.58203L51.6465 3.49023ZM45.0986 8.35059V8.16602C45.0986 7.43945 45.1836 6.78027 45.3535 6.18848C45.5293 5.59082 45.7783 5.07812 46.1006 4.65039C46.4287 4.22266 46.8242 3.89453 47.2871 3.66602C47.75 3.43164 48.2715 3.31445 48.8516 3.31445C49.4492 3.31445 49.9707 3.41992 50.416 3.63086C50.8672 3.83594 51.248 4.1377 51.5586 4.53613C51.875 4.92871 52.124 5.40332 52.3057 5.95996C52.4873 6.5166 52.6133 7.14648 52.6836 7.84961V8.6582C52.6191 9.35547 52.4932 9.98242 52.3057 10.5391C52.124 11.0957 51.875 11.5703 51.5586 11.9629C51.248 12.3555 50.8672 12.6572 50.416 12.8682C49.9648 13.0732 49.4375 13.1758 48.834 13.1758C48.2656 13.1758 47.75 13.0557 47.2871 12.8154C46.8301 12.5752 46.4375 12.2383 46.1094 11.8047C45.7812 11.3711 45.5293 10.8613 45.3535 10.2754C45.1836 9.68359 45.0986 9.04199 45.0986 8.35059ZM46.7246 8.16602V8.35059C46.7246 8.8252 46.7715 9.27051 46.8652 9.68652C46.9648 10.1025 47.1143 10.4688 47.3135 10.7852C47.5186 11.1016 47.7793 11.3506 48.0957 11.5322C48.4121 11.708 48.79 11.7959 49.2295 11.7959C49.7686 11.7959 50.2139 11.6816 50.5654 11.4531C50.917 11.2246 51.1953 10.9229 51.4004 10.5479C51.6113 10.1729 51.7754 9.76562 51.8926 9.32617V7.20801C51.8281 6.88574 51.7285 6.5752 51.5938 6.27637C51.4648 5.97168 51.2949 5.70215 51.084 5.46777C50.8789 5.22754 50.624 5.03711 50.3193 4.89648C50.0146 4.75586 49.6572 4.68555 49.2471 4.68555C48.8018 4.68555 48.418 4.7793 48.0957 4.9668C47.7793 5.14844 47.5186 5.40039 47.3135 5.72266C47.1143 6.03906 46.9648 6.4082 46.8652 6.83008C46.7715 7.24609 46.7246 7.69141 46.7246 8.16602ZM61.4111 10.8027V3.49023H63.0459V13H61.4902L61.4111 10.8027ZM61.7188 8.79883L62.3955 8.78125C62.3955 9.41406 62.3281 10 62.1934 10.5391C62.0645 11.0723 61.8535 11.5352 61.5605 11.9277C61.2676 12.3203 60.8838 12.6279 60.4092 12.8506C59.9346 13.0674 59.3574 13.1758 58.6777 13.1758C58.2148 13.1758 57.79 13.1084 57.4033 12.9736C57.0225 12.8389 56.6943 12.6309 56.4189 12.3496C56.1436 12.0684 55.9297 11.7021 55.7773 11.251C55.6309 10.7998 55.5576 10.2578 55.5576 9.625V3.49023H57.1836V9.64258C57.1836 10.0703 57.2305 10.4248 57.3242 10.7061C57.4238 10.9814 57.5557 11.2012 57.7197 11.3652C57.8896 11.5234 58.0771 11.6348 58.2822 11.6992C58.4932 11.7637 58.71 11.7959 58.9326 11.7959C59.624 11.7959 60.1719 11.6641 60.5762 11.4004C60.9805 11.1309 61.2705 10.7705 61.4463 10.3193C61.6279 9.8623 61.7188 9.35547 61.7188 8.79883ZM71.1318 11.374V6.47852C71.1318 6.10352 71.0557 5.77832 70.9033 5.50293C70.7568 5.22168 70.5342 5.00488 70.2354 4.85254C69.9365 4.7002 69.5674 4.62402 69.1279 4.62402C68.7178 4.62402 68.3574 4.69434 68.0469 4.83496C67.7422 4.97559 67.502 5.16016 67.3262 5.38867C67.1562 5.61719 67.0713 5.86328 67.0713 6.12695H65.4453C65.4453 5.78711 65.5332 5.4502 65.709 5.11621C65.8848 4.78223 66.1367 4.48047 66.4648 4.21094C66.7988 3.93555 67.1973 3.71875 67.6602 3.56055C68.1289 3.39648 68.6504 3.31445 69.2246 3.31445C69.916 3.31445 70.5254 3.43164 71.0527 3.66602C71.5859 3.90039 72.002 4.25488 72.3008 4.72949C72.6055 5.19824 72.7578 5.78711 72.7578 6.49609V10.9258C72.7578 11.2422 72.7842 11.5791 72.8369 11.9365C72.8955 12.2939 72.9805 12.6016 73.0918 12.8594V13H71.3955C71.3135 12.8125 71.249 12.5635 71.2021 12.2529C71.1553 11.9365 71.1318 11.6436 71.1318 11.374ZM71.4131 7.23438L71.4307 8.37695H69.7871C69.3242 8.37695 68.9111 8.41504 68.5479 8.49121C68.1846 8.56152 67.8799 8.66992 67.6338 8.81641C67.3877 8.96289 67.2002 9.14746 67.0713 9.37012C66.9424 9.58691 66.8779 9.8418 66.8779 10.1348C66.8779 10.4336 66.9453 10.7061 67.0801 10.9521C67.2148 11.1982 67.417 11.3945 67.6865 11.541C67.9619 11.6816 68.2988 11.752 68.6973 11.752C69.1953 11.752 69.6348 11.6465 70.0156 11.4355C70.3965 11.2246 70.6982 10.9668 70.9209 10.6621C71.1494 10.3574 71.2725 10.0615 71.29 9.77441L71.9844 10.5566C71.9434 10.8027 71.832 11.0752 71.6504 11.374C71.4688 11.6729 71.2256 11.96 70.9209 12.2354C70.6221 12.5049 70.2646 12.7305 69.8486 12.9121C69.4385 13.0879 68.9756 13.1758 68.46 13.1758C67.8154 13.1758 67.25 13.0498 66.7637 12.7979C66.2832 12.5459 65.9082 12.209 65.6387 11.7871C65.375 11.3594 65.2432 10.8818 65.2432 10.3545C65.2432 9.84473 65.3428 9.39648 65.542 9.00977C65.7412 8.61719 66.0283 8.29199 66.4033 8.03418C66.7783 7.77051 67.2295 7.57129 67.7568 7.43652C68.2842 7.30176 68.873 7.23438 69.5234 7.23438H71.4131ZM76.792 11.0664V12.376C76.792 12.9092 76.6572 13.4717 76.3877 14.0635C76.1182 14.6611 75.7402 15.1592 75.2539 15.5576L74.3311 14.916C74.5186 14.6582 74.6768 14.3945 74.8057 14.125C74.9346 13.8613 75.0312 13.5859 75.0957 13.2988C75.166 13.0176 75.2012 12.7188 75.2012 12.4023V11.0664H76.792ZM93.4209 0.203125V13H91.7158L85.2734 3.12988V13H83.5771V0.203125H85.2734L91.7422 10.0996V0.203125H93.4209ZM97.9473 3.49023V13H96.3125V3.49023H97.9473ZM96.1895 0.967773C96.1895 0.704102 96.2686 0.481445 96.4268 0.299805C96.5908 0.118164 96.8311 0.0273438 97.1475 0.0273438C97.458 0.0273438 97.6953 0.118164 97.8594 0.299805C98.0293 0.481445 98.1143 0.704102 98.1143 0.967773C98.1143 1.21973 98.0293 1.43652 97.8594 1.61816C97.6953 1.79395 97.458 1.88184 97.1475 1.88184C96.8311 1.88184 96.5908 1.79395 96.4268 1.61816C96.2686 1.43652 96.1895 1.21973 96.1895 0.967773ZM104.363 11.8398C104.75 11.8398 105.107 11.7607 105.436 11.6025C105.764 11.4443 106.033 11.2275 106.244 10.9521C106.455 10.6709 106.575 10.3516 106.604 9.99414H108.151C108.122 10.5566 107.932 11.0811 107.58 11.5674C107.234 12.0479 106.78 12.4375 106.218 12.7363C105.655 13.0293 105.037 13.1758 104.363 13.1758C103.648 13.1758 103.024 13.0498 102.491 12.7979C101.964 12.5459 101.524 12.2002 101.173 11.7607C100.827 11.3213 100.566 10.8174 100.391 10.249C100.221 9.6748 100.136 9.06836 100.136 8.42969V8.06055C100.136 7.42188 100.221 6.81836 100.391 6.25C100.566 5.67578 100.827 5.16895 101.173 4.72949C101.524 4.29004 101.964 3.94434 102.491 3.69238C103.024 3.44043 103.648 3.31445 104.363 3.31445C105.107 3.31445 105.758 3.4668 106.314 3.77148C106.871 4.07031 107.308 4.48047 107.624 5.00195C107.946 5.51758 108.122 6.10352 108.151 6.75977H106.604C106.575 6.36719 106.464 6.0127 106.271 5.69629C106.083 5.37988 105.825 5.12793 105.497 4.94043C105.175 4.74707 104.797 4.65039 104.363 4.65039C103.865 4.65039 103.446 4.75 103.106 4.94922C102.772 5.14258 102.506 5.40625 102.307 5.74023C102.113 6.06836 101.973 6.43457 101.885 6.83887C101.803 7.2373 101.762 7.64453 101.762 8.06055V8.42969C101.762 8.8457 101.803 9.25586 101.885 9.66016C101.967 10.0645 102.104 10.4307 102.298 10.7588C102.497 11.0869 102.764 11.3506 103.098 11.5498C103.438 11.7432 103.859 11.8398 104.363 11.8398ZM115.587 11.374V6.47852C115.587 6.10352 115.511 5.77832 115.358 5.50293C115.212 5.22168 114.989 5.00488 114.69 4.85254C114.392 4.7002 114.022 4.62402 113.583 4.62402C113.173 4.62402 112.812 4.69434 112.502 4.83496C112.197 4.97559 111.957 5.16016 111.781 5.38867C111.611 5.61719 111.526 5.86328 111.526 6.12695H109.9C109.9 5.78711 109.988 5.4502 110.164 5.11621C110.34 4.78223 110.592 4.48047 110.92 4.21094C111.254 3.93555 111.652 3.71875 112.115 3.56055C112.584 3.39648 113.105 3.31445 113.68 3.31445C114.371 3.31445 114.98 3.43164 115.508 3.66602C116.041 3.90039 116.457 4.25488 116.756 4.72949C117.061 5.19824 117.213 5.78711 117.213 6.49609V10.9258C117.213 11.2422 117.239 11.5791 117.292 11.9365C117.351 12.2939 117.436 12.6016 117.547 12.8594V13H115.851C115.769 12.8125 115.704 12.5635 115.657 12.2529C115.61 11.9365 115.587 11.6436 115.587 11.374ZM115.868 7.23438L115.886 8.37695H114.242C113.779 8.37695 113.366 8.41504 113.003 8.49121C112.64 8.56152 112.335 8.66992 112.089 8.81641C111.843 8.96289 111.655 9.14746 111.526 9.37012C111.397 9.58691 111.333 9.8418 111.333 10.1348C111.333 10.4336 111.4 10.7061 111.535 10.9521C111.67 11.1982 111.872 11.3945 112.142 11.541C112.417 11.6816 112.754 11.752 113.152 11.752C113.65 11.752 114.09 11.6465 114.471 11.4355C114.852 11.2246 115.153 10.9668 115.376 10.6621C115.604 10.3574 115.728 10.0615 115.745 9.77441L116.439 10.5566C116.398 10.8027 116.287 11.0752 116.105 11.374C115.924 11.6729 115.681 11.96 115.376 12.2354C115.077 12.5049 114.72 12.7305 114.304 12.9121C113.894 13.0879 113.431 13.1758 112.915 13.1758C112.271 13.1758 111.705 13.0498 111.219 12.7979C110.738 12.5459 110.363 12.209 110.094 11.7871C109.83 11.3594 109.698 10.8818 109.698 10.3545C109.698 9.84473 109.798 9.39648 109.997 9.00977C110.196 8.61719 110.483 8.29199 110.858 8.03418C111.233 7.77051 111.685 7.57129 112.212 7.43652C112.739 7.30176 113.328 7.23438 113.979 7.23438H115.868ZM121.396 4.98438V13H119.771V3.49023H121.353L121.396 4.98438ZM124.367 3.4375L124.358 4.94922C124.224 4.91992 124.095 4.90234 123.972 4.89648C123.854 4.88477 123.72 4.87891 123.567 4.87891C123.192 4.87891 122.861 4.9375 122.574 5.05469C122.287 5.17188 122.044 5.33594 121.845 5.54688C121.646 5.75781 121.487 6.00977 121.37 6.30273C121.259 6.58984 121.186 6.90625 121.15 7.25195L120.693 7.51562C120.693 6.94141 120.749 6.40234 120.86 5.89844C120.978 5.39453 121.156 4.94922 121.396 4.5625C121.637 4.16992 121.941 3.86523 122.311 3.64844C122.686 3.42578 123.131 3.31445 123.646 3.31445C123.764 3.31445 123.898 3.3291 124.051 3.3584C124.203 3.38184 124.309 3.4082 124.367 3.4375ZM131.126 11.374V6.47852C131.126 6.10352 131.05 5.77832 130.897 5.50293C130.751 5.22168 130.528 5.00488 130.229 4.85254C129.931 4.7002 129.562 4.62402 129.122 4.62402C128.712 4.62402 128.352 4.69434 128.041 4.83496C127.736 4.97559 127.496 5.16016 127.32 5.38867C127.15 5.61719 127.065 5.86328 127.065 6.12695H125.439C125.439 5.78711 125.527 5.4502 125.703 5.11621C125.879 4.78223 126.131 4.48047 126.459 4.21094C126.793 3.93555 127.191 3.71875 127.654 3.56055C128.123 3.39648 128.645 3.31445 129.219 3.31445C129.91 3.31445 130.52 3.43164 131.047 3.66602C131.58 3.90039 131.996 4.25488 132.295 4.72949C132.6 5.19824 132.752 5.78711 132.752 6.49609V10.9258C132.752 11.2422 132.778 11.5791 132.831 11.9365C132.89 12.2939 132.975 12.6016 133.086 12.8594V13H131.39C131.308 12.8125 131.243 12.5635 131.196 12.2529C131.149 11.9365 131.126 11.6436 131.126 11.374ZM131.407 7.23438L131.425 8.37695H129.781C129.318 8.37695 128.905 8.41504 128.542 8.49121C128.179 8.56152 127.874 8.66992 127.628 8.81641C127.382 8.96289 127.194 9.14746 127.065 9.37012C126.937 9.58691 126.872 9.8418 126.872 10.1348C126.872 10.4336 126.939 10.7061 127.074 10.9521C127.209 11.1982 127.411 11.3945 127.681 11.541C127.956 11.6816 128.293 11.752 128.691 11.752C129.189 11.752 129.629 11.6465 130.01 11.4355C130.391 11.2246 130.692 10.9668 130.915 10.6621C131.144 10.3574 131.267 10.0615 131.284 9.77441L131.979 10.5566C131.938 10.8027 131.826 11.0752 131.645 11.374C131.463 11.6729 131.22 11.96 130.915 12.2354C130.616 12.5049 130.259 12.7305 129.843 12.9121C129.433 13.0879 128.97 13.1758 128.454 13.1758C127.81 13.1758 127.244 13.0498 126.758 12.7979C126.277 12.5459 125.902 12.209 125.633 11.7871C125.369 11.3594 125.237 10.8818 125.237 10.3545C125.237 9.84473 125.337 9.39648 125.536 9.00977C125.735 8.61719 126.022 8.29199 126.397 8.03418C126.772 7.77051 127.224 7.57129 127.751 7.43652C128.278 7.30176 128.867 7.23438 129.518 7.23438H131.407ZM141.471 3.49023H142.947V12.7979C142.947 13.6357 142.777 14.3506 142.438 14.9424C142.098 15.5342 141.623 15.9824 141.014 16.2871C140.41 16.5977 139.713 16.7529 138.922 16.7529C138.594 16.7529 138.207 16.7002 137.762 16.5947C137.322 16.4951 136.889 16.3223 136.461 16.0762C136.039 15.8359 135.685 15.5107 135.397 15.1006L136.25 14.1338C136.648 14.6143 137.064 14.9482 137.498 15.1357C137.938 15.3232 138.371 15.417 138.799 15.417C139.314 15.417 139.76 15.3203 140.135 15.127C140.51 14.9336 140.8 14.6465 141.005 14.2656C141.216 13.8906 141.321 13.4277 141.321 12.877V5.58203L141.471 3.49023ZM134.923 8.35059V8.16602C134.923 7.43945 135.008 6.78027 135.178 6.18848C135.354 5.59082 135.603 5.07812 135.925 4.65039C136.253 4.22266 136.648 3.89453 137.111 3.66602C137.574 3.43164 138.096 3.31445 138.676 3.31445C139.273 3.31445 139.795 3.41992 140.24 3.63086C140.691 3.83594 141.072 4.1377 141.383 4.53613C141.699 4.92871 141.948 5.40332 142.13 5.95996C142.312 6.5166 142.438 7.14648 142.508 7.84961V8.6582C142.443 9.35547 142.317 9.98242 142.13 10.5391C141.948 11.0957 141.699 11.5703 141.383 11.9629C141.072 12.3555 140.691 12.6572 140.24 12.8682C139.789 13.0732 139.262 13.1758 138.658 13.1758C138.09 13.1758 137.574 13.0557 137.111 12.8154C136.654 12.5752 136.262 12.2383 135.934 11.8047C135.605 11.3711 135.354 10.8613 135.178 10.2754C135.008 9.68359 134.923 9.04199 134.923 8.35059ZM136.549 8.16602V8.35059C136.549 8.8252 136.596 9.27051 136.689 9.68652C136.789 10.1025 136.938 10.4688 137.138 10.7852C137.343 11.1016 137.604 11.3506 137.92 11.5322C138.236 11.708 138.614 11.7959 139.054 11.7959C139.593 11.7959 140.038 11.6816 140.39 11.4531C140.741 11.2246 141.02 10.9229 141.225 10.5479C141.436 10.1729 141.6 9.76562 141.717 9.32617V7.20801C141.652 6.88574 141.553 6.5752 141.418 6.27637C141.289 5.97168 141.119 5.70215 140.908 5.46777C140.703 5.22754 140.448 5.03711 140.144 4.89648C139.839 4.75586 139.481 4.68555 139.071 4.68555C138.626 4.68555 138.242 4.7793 137.92 4.9668C137.604 5.14844 137.343 5.40039 137.138 5.72266C136.938 6.03906 136.789 6.4082 136.689 6.83008C136.596 7.24609 136.549 7.69141 136.549 8.16602ZM151.235 10.8027V3.49023H152.87V13H151.314L151.235 10.8027ZM151.543 8.79883L152.22 8.78125C152.22 9.41406 152.152 10 152.018 10.5391C151.889 11.0723 151.678 11.5352 151.385 11.9277C151.092 12.3203 150.708 12.6279 150.233 12.8506C149.759 13.0674 149.182 13.1758 148.502 13.1758C148.039 13.1758 147.614 13.1084 147.228 12.9736C146.847 12.8389 146.519 12.6309 146.243 12.3496C145.968 12.0684 145.754 11.7021 145.602 11.251C145.455 10.7998 145.382 10.2578 145.382 9.625V3.49023H147.008V9.64258C147.008 10.0703 147.055 10.4248 147.148 10.7061C147.248 10.9814 147.38 11.2012 147.544 11.3652C147.714 11.5234 147.901 11.6348 148.106 11.6992C148.317 11.7637 148.534 11.7959 148.757 11.7959C149.448 11.7959 149.996 11.6641 150.4 11.4004C150.805 11.1309 151.095 10.7705 151.271 10.3193C151.452 9.8623 151.543 9.35547 151.543 8.79883ZM160.956 11.374V6.47852C160.956 6.10352 160.88 5.77832 160.728 5.50293C160.581 5.22168 160.358 5.00488 160.06 4.85254C159.761 4.7002 159.392 4.62402 158.952 4.62402C158.542 4.62402 158.182 4.69434 157.871 4.83496C157.566 4.97559 157.326 5.16016 157.15 5.38867C156.98 5.61719 156.896 5.86328 156.896 6.12695H155.27C155.27 5.78711 155.357 5.4502 155.533 5.11621C155.709 4.78223 155.961 4.48047 156.289 4.21094C156.623 3.93555 157.021 3.71875 157.484 3.56055C157.953 3.39648 158.475 3.31445 159.049 3.31445C159.74 3.31445 160.35 3.43164 160.877 3.66602C161.41 3.90039 161.826 4.25488 162.125 4.72949C162.43 5.19824 162.582 5.78711 162.582 6.49609V10.9258C162.582 11.2422 162.608 11.5791 162.661 11.9365C162.72 12.2939 162.805 12.6016 162.916 12.8594V13H161.22C161.138 12.8125 161.073 12.5635 161.026 12.2529C160.979 11.9365 160.956 11.6436 160.956 11.374ZM161.237 7.23438L161.255 8.37695H159.611C159.148 8.37695 158.735 8.41504 158.372 8.49121C158.009 8.56152 157.704 8.66992 157.458 8.81641C157.212 8.96289 157.024 9.14746 156.896 9.37012C156.767 9.58691 156.702 9.8418 156.702 10.1348C156.702 10.4336 156.77 10.7061 156.904 10.9521C157.039 11.1982 157.241 11.3945 157.511 11.541C157.786 11.6816 158.123 11.752 158.521 11.752C159.02 11.752 159.459 11.6465 159.84 11.4355C160.221 11.2246 160.522 10.9668 160.745 10.6621C160.974 10.3574 161.097 10.0615 161.114 9.77441L161.809 10.5566C161.768 10.8027 161.656 11.0752 161.475 11.374C161.293 11.6729 161.05 11.96 160.745 12.2354C160.446 12.5049 160.089 12.7305 159.673 12.9121C159.263 13.0879 158.8 13.1758 158.284 13.1758C157.64 13.1758 157.074 13.0498 156.588 12.7979C156.107 12.5459 155.732 12.209 155.463 11.7871C155.199 11.3594 155.067 10.8818 155.067 10.3545C155.067 9.84473 155.167 9.39648 155.366 9.00977C155.565 8.61719 155.853 8.29199 156.228 8.03418C156.603 7.77051 157.054 7.57129 157.581 7.43652C158.108 7.30176 158.697 7.23438 159.348 7.23438H161.237Z" fill="#90949A"/>
</svg>
