<svg width="563" height="468" viewBox="0 0 563 468" fill="none" xmlns="http://www.w3.org/2000/svg">
<path d="M364.117 222.429L347.42 227.362L328.313 215.261L328.905 224.437L347.125 238.477L367.889 226.325L364.117 222.429Z" fill="#3F4249"/>
<path opacity="0.3" d="M364.117 222.429L347.42 227.362L328.313 215.261L328.905 224.437L347.125 238.477L367.889 226.325L364.117 222.429Z" fill="black"/>
<path d="M460.844 418.251H84.45C84.3737 418.267 84.2952 418.259 84.2206 418.236C84.1457 418.216 84.0763 418.173 84.0172 418.119C83.9581 418.064 83.9106 417.994 83.8782 417.916C83.8455 417.838 83.8286 417.752 83.8286 417.666C83.8286 417.581 83.8455 417.495 83.8782 417.417C83.9106 417.339 83.9581 417.269 84.0172 417.214C84.0763 417.159 84.1457 417.116 84.2206 417.097C84.2952 417.074 84.3737 417.066 84.45 417.081H460.844C460.921 417.066 460.998 417.074 461.072 417.097C461.15 417.116 461.217 417.159 461.276 417.214C461.336 417.269 461.382 417.339 461.417 417.417C461.449 417.495 461.466 417.581 461.466 417.666C461.466 417.752 461.449 417.838 461.417 417.916C461.382 417.994 461.336 418.064 461.276 418.119C461.217 418.173 461.15 418.216 461.072 418.236C460.998 418.259 460.921 418.267 460.844 418.251Z" fill="#B2B6BB"/>
<path d="M276.387 246.769C278.269 246.773 280.075 247.587 281.426 249.038L281.553 249.183L281.634 226.021H279.593C273.59 226.235 255.648 228.618 243.603 248.66C236.14 261.078 235.556 273.593 237.167 283.464H239.342L255.834 283.538L255.704 283.682C254.694 284.82 254.009 286.263 253.737 287.831C253.465 289.399 253.616 291.021 254.173 292.493C254.73 293.966 255.666 295.223 256.865 296.107C258.065 296.992 259.473 297.463 260.913 297.463C262.354 297.463 263.762 296.992 264.962 296.107C266.161 295.223 267.098 293.966 267.654 292.493C268.211 291.021 268.363 289.399 268.09 287.831C267.818 286.263 267.133 284.82 266.123 283.682L266.042 283.6H266.51L281.437 283.663L281.514 260.516L281.444 260.606C280.591 261.535 279.545 262.216 278.397 262.59C277.25 262.964 276.037 263.019 274.866 262.75C273.695 262.481 272.602 261.897 271.684 261.048C270.765 260.199 270.05 259.113 269.6 257.884C269.151 256.656 268.981 255.324 269.107 254.006C269.232 252.688 269.649 251.425 270.32 250.328C270.991 249.231 271.896 248.334 272.954 247.716C274.012 247.099 275.191 246.78 276.387 246.788V246.769Z" fill="#DADDDF"/>
<path d="M307.926 283.881L308.053 283.737C309.058 282.593 309.736 281.145 310.001 279.576C310.266 278.006 310.106 276.385 309.543 274.916C308.979 273.446 308.036 272.194 306.833 271.317C305.629 270.44 304.218 269.976 302.778 269.984C301.337 269.993 299.931 270.474 298.736 271.365C297.541 272.257 296.61 273.52 296.061 274.996C295.511 276.473 295.368 278.096 295.649 279.662C295.929 281.228 296.621 282.667 297.637 283.799L297.718 283.881H280.796V305.464L280.87 305.374C281.54 304.631 282.335 304.041 283.211 303.64C284.086 303.238 285.025 303.032 285.972 303.034C287.165 303.034 288.338 303.358 289.392 303.978C290.444 304.597 291.344 305.494 292.011 306.589C292.679 307.683 293.094 308.943 293.22 310.257C293.346 311.571 293.179 312.899 292.734 314.125C292.289 315.351 291.58 316.437 290.668 317.288C289.756 318.139 288.67 318.73 287.505 319.007C286.339 319.285 285.13 319.241 283.983 318.88C282.836 318.52 281.787 317.852 280.927 316.937L280.796 316.797V341.523H300.808C300.808 341.523 301.698 333.267 302.588 326.992C303.478 320.716 316.142 307.913 319.781 302.578C321.244 300.425 324.862 293.381 326.445 283.881H307.926Z" fill="#DADDDF"/>
<path d="M300.846 346.847H265.557C264.484 346.847 263.614 347.81 263.614 348.999V350.341C263.614 351.53 264.484 352.494 265.557 352.494H300.846C301.919 352.494 302.789 351.53 302.789 350.341V348.999C302.789 347.81 301.919 346.847 300.846 346.847Z" fill="#3F4249"/>
<path d="M273.009 355.871H294.122C294.122 355.871 291.307 362.111 283.133 362.111C274.596 362.092 273.009 355.871 273.009 355.871Z" fill="#3F4249"/>
<g opacity="0.3">
<path opacity="0.3" d="M307.926 283.881L308.053 283.737C309.058 282.593 309.736 281.145 310.001 279.576C310.266 278.006 310.106 276.385 309.543 274.916C308.979 273.446 308.036 272.194 306.833 271.317C305.629 270.44 304.218 269.976 302.778 269.984C301.337 269.993 299.931 270.474 298.736 271.365C297.541 272.257 296.61 273.52 296.061 274.996C295.511 276.473 295.368 278.096 295.649 279.662C295.929 281.228 296.621 282.667 297.637 283.799L297.718 283.881H280.796V305.464L280.87 305.764C282.186 304.313 283.97 303.034 285.972 303.034C287.905 303.034 289.759 303.885 291.125 305.4C292.492 306.914 293.26 308.968 293.26 311.111C293.26 313.253 292.492 315.307 291.125 316.822C289.759 318.337 287.905 319.188 285.972 319.188C284.013 319.188 282.236 317.944 280.927 316.547L280.796 316.797V341.523H300.808C300.808 341.523 301.698 333.267 302.588 326.992C303.478 320.716 316.142 307.913 319.781 302.578C321.244 300.425 324.862 293.381 326.445 283.881H307.926Z" stroke="black" stroke-width="2.52" stroke-miterlimit="10" stroke-dasharray="15.13 12.61"/>
</g>
<path opacity="0.3" d="M276.387 246.769C278.269 246.773 280.075 247.587 281.426 249.038L281.553 249.183L281.634 226.021H279.593C273.59 226.235 255.648 228.618 243.603 248.66C236.14 261.078 235.556 273.983 237.167 283.854H239.342L255.13 283.928L255 284.072C253.737 285.515 253.311 287.095 253.304 289.267C253.304 293.725 256.89 297.355 260.915 297.375C262.848 297.382 264.705 296.538 266.077 295.029C267.448 293.519 268.223 291.468 268.231 289.325C268.231 287.11 267.777 285.125 266.471 283.663L266.39 283.581H266.858L281.433 283.643L281.51 260.497L281.44 260.586C280.587 261.515 279.541 262.197 278.394 262.571C277.246 262.945 276.034 263 274.863 262.731C273.692 262.462 272.599 261.877 271.68 261.028C270.762 260.18 270.046 259.093 269.597 257.865C269.147 256.637 268.978 255.304 269.103 253.987C269.229 252.668 269.646 251.405 270.317 250.308C270.988 249.211 271.892 248.314 272.951 247.697C274.009 247.079 275.188 246.761 276.384 246.769H276.387Z" stroke="black" stroke-width="2.52" stroke-miterlimit="10" stroke-dasharray="15.13 12.61"/>
<path d="M280.796 248.072C279.423 246.586 277.585 245.747 275.666 245.732C271.545 245.7 268.195 250.135 268.164 254.67C268.132 259.206 271.433 264.101 275.536 264.136C276.501 264.146 277.46 263.944 278.355 263.542C279.251 263.14 280.066 262.547 280.754 261.796L280.828 261.706L280.666 284.42L298.714 284.56L298.629 284.478C297.265 282.935 296.506 280.855 296.518 278.694C296.55 274.147 298.844 270.504 302.947 270.504C307.049 270.504 309.28 274.252 309.28 278.8C309.269 280.926 308.512 282.963 307.169 284.482L307.035 284.63L326.079 284.392C327.838 274.35 327.36 262.673 319.886 249.92C307.82 229.336 289.561 226.676 283.446 226.38H281.102L280.94 248.22L280.796 248.072Z" fill="#DADDDF"/>
<path opacity="0.3" d="M281.5 248.851C280.63 247.91 279.565 247.221 278.399 246.842C277.232 246.464 276 246.409 274.81 246.681C273.62 246.954 272.508 247.546 271.572 248.405C270.637 249.265 269.906 250.366 269.443 251.612C268.981 252.858 268.802 254.21 268.92 255.55C269.039 256.891 269.454 258.178 270.126 259.3C270.799 260.422 271.709 261.344 272.778 261.985C273.847 262.626 275.042 262.966 276.257 262.977C277.223 262.986 278.181 262.785 279.077 262.383C279.972 261.982 280.787 261.388 281.475 260.637L281.549 260.547L281.387 283.65L297.676 283.791L297.591 283.709C296.578 282.55 295.896 281.085 295.629 279.499C295.363 277.912 295.524 276.273 296.094 274.788C296.663 273.302 297.614 272.035 298.83 271.146C300.045 270.257 301.47 269.784 302.926 269.788C304.382 269.791 305.805 270.27 307.017 271.164C308.229 272.059 309.176 273.33 309.74 274.818C310.304 276.306 310.46 277.945 310.188 279.531C309.916 281.116 309.228 282.578 308.211 283.732L308.077 283.881L326.065 284.033C327.824 273.99 327.346 262.704 319.872 249.951C307.806 229.366 289.547 226.707 283.432 226.41H281.792L281.63 249.03L281.5 248.851Z" stroke="black" stroke-width="2.52" stroke-miterlimit="10" stroke-dasharray="15.13 12.61"/>
<path d="M293.869 205.214C293.216 203.758 292.19 202.547 290.919 201.735C289.648 200.922 288.189 200.544 286.725 200.648C285.261 200.752 283.857 201.333 282.689 202.318C281.522 203.302 280.643 204.648 280.163 206.184C279.683 207.721 279.624 209.381 279.992 210.955C280.36 212.529 281.14 213.947 282.233 215.032C283.327 216.117 284.685 216.819 286.137 217.051C287.589 217.284 289.07 217.035 290.396 216.337L290.494 216.275L283.562 238.064L298.925 244.066L298.869 243.961C298.25 242.499 298.033 240.867 298.247 239.269C298.46 237.671 299.093 236.179 300.068 234.978C301.042 233.777 302.315 232.922 303.726 232.518C305.137 232.114 306.624 232.181 308.001 232.709C309.378 233.237 310.584 234.204 311.468 235.488C312.352 236.771 312.875 238.316 312.972 239.927C313.068 241.539 312.733 243.146 312.01 244.548C311.287 245.95 310.207 247.085 308.904 247.81L308.735 247.9L325.699 254.53C330.298 245.661 333.17 234.819 329.841 220.065C324.471 196.256 307.982 187.161 302.285 184.677L300.741 184.08L293.953 205.413L293.869 205.214Z" fill="#F3603C"/>
<path d="M281.296 341.585H262.365C262.365 341.585 261.475 333.329 260.581 327.054C259.687 320.779 247.016 307.975 243.392 302.64C241.928 300.491 238.311 292.667 236.707 283.163H255.989L255.859 283.307C254.683 284.663 253.973 286.432 253.85 288.307C253.498 293.677 258.262 297.823 262.907 296.248C265.676 295.308 267.351 292.508 267.351 288.9C267.35 287.849 267.161 286.808 266.795 285.837C266.43 284.867 265.896 283.986 265.222 283.245L265.142 283.163L281.131 283.296V304.878C281.131 304.878 282.999 302.706 286.659 302.819C290.318 302.932 292.736 306.2 293.323 309.11C293.911 312.019 293.619 318.131 288.488 319.386C283.594 320.584 281.074 317.011 281.074 317.011L281.148 341.718" fill="#F3603C"/>
<path d="M406.768 136.052H341.013V164.381H406.768V136.052Z" fill="white"/>
<path d="M406.958 164.58H340.826V135.845H406.958V164.58ZM341.203 164.19H406.578V136.262H341.203V164.19Z" fill="#DADDDF"/>
<path opacity="0.6" d="M406.768 136.052H341.013V142.124H406.768V136.052Z" fill="#F3603C"/>
<path opacity="0.6" d="M355.285 151.086V146.753H348.828V153.909H352.74V158.246H359.197V151.086H355.285Z" fill="#F3603C"/>
<path d="M370.676 146.753H364.219V153.909H370.676V146.753Z" fill="#E1E1E1"/>
<g opacity="0.61">
<path opacity="0.61" d="M374.641 158.305H367.808V150.731H374.641V158.305ZM368.184 157.888H374.265V151.149H368.184V157.888Z" fill="#F3603C"/>
</g>
<path d="M385.039 151.086H382.492V153.91H385.039V151.086Z" fill="#E1E1E1"/>
<path d="M385.145 146.597H378.347V154.131H385.145V146.597Z" fill="#DADDDF"/>
<path d="M388.924 150.782H382.126V158.317H388.924V150.782Z" fill="#DADDDF"/>
<path opacity="0.61" d="M385.148 150.782H382.126V154.132H385.148V150.782Z" fill="#F3603C"/>
<path opacity="0.6" d="M398.242 146.753H391.785V153.909H398.242V146.753Z" fill="#F3603C"/>
<path opacity="0.6" d="M402.151 151.086H395.694V158.242H402.151V151.086Z" fill="#F3603C"/>
<path d="M398.242 151.086H395.694V153.91H398.242V151.086Z" fill="#FAFAFA"/>
<path d="M191.772 192.109L141.873 193.084L142.576 237.299L192.475 236.324L191.772 192.109Z" fill="white"/>
<path d="M190.48 194.455L144.082 195.484L144.779 234.136L191.178 233.108L190.48 194.455Z" fill="#F4F4F4"/>
<path d="M144.248 234.483L160.068 210.144L170.346 224.979L177.025 216.813L190.639 233.579L144.248 234.483Z" fill="#F3603C"/>
<path d="M174.319 206.922C174.332 207.723 174.131 208.51 173.74 209.183C173.35 209.857 172.788 210.388 172.125 210.707C171.463 211.027 170.73 211.121 170.019 210.98C169.308 210.837 168.651 210.465 168.131 209.909C167.611 209.352 167.252 208.638 167.098 207.856C166.944 207.073 167.004 206.258 167.269 205.513C167.533 204.768 167.991 204.126 168.585 203.67C169.178 203.213 169.881 202.962 170.603 202.948C171.571 202.929 172.507 203.337 173.203 204.082C173.9 204.828 174.301 205.849 174.319 206.922Z" fill="#F3603C"/>
<g opacity="0.5">
<path opacity="0.5" d="M144.248 234.483L160.068 210.144L170.346 224.979L177.025 216.813L190.639 233.579L144.248 234.483Z" fill="white"/>
</g>
<g opacity="0.5">
<path opacity="0.5" d="M174.319 206.922C174.332 207.723 174.131 208.51 173.74 209.183C173.35 209.857 172.788 210.388 172.125 210.707C171.463 211.027 170.73 211.121 170.019 210.98C169.308 210.837 168.651 210.465 168.131 209.909C167.611 209.352 167.252 208.638 167.098 207.856C166.944 207.073 167.004 206.258 167.269 205.513C167.533 204.768 167.991 204.126 168.585 203.67C169.178 203.213 169.881 202.962 170.603 202.948C171.571 202.929 172.507 203.337 173.203 204.082C173.9 204.828 174.301 205.849 174.319 206.922Z" fill="white"/>
</g>
<path d="M174.764 155.535L164.762 221.428L239.127 235.294L249.129 169.402L174.764 155.535Z" fill="white"/>
<path d="M176.697 160.158L167.954 217.755L237.094 230.648L245.837 173.05L176.697 160.158Z" fill="#F4F4F4"/>
<path d="M167.95 217.753L197.532 186.455L209.091 211.641L221.055 201.56L237.09 230.642L167.95 217.753Z" fill="#F3603C"/>
<path d="M219.507 186.03C219.33 187.226 218.836 188.337 218.089 189.222C217.341 190.107 216.373 190.726 215.308 191C214.242 191.275 213.127 191.192 212.104 190.763C211.081 190.334 210.196 189.577 209.562 188.59C208.927 187.602 208.572 186.428 208.54 185.216C208.508 184.005 208.802 182.81 209.384 181.783C209.967 180.757 210.811 179.945 211.81 179.452C212.809 178.958 213.918 178.804 214.996 179.01C216.431 179.284 217.71 180.175 218.555 181.49C219.401 182.805 219.742 184.437 219.507 186.03Z" fill="#F3603C"/>
<g opacity="0.5">
<path opacity="0.5" d="M167.95 217.753L197.532 186.455L209.091 211.641L221.055 201.56L237.09 230.642L167.95 217.753Z" fill="white"/>
</g>
<g opacity="0.5">
<path opacity="0.5" d="M219.507 186.03C219.33 187.226 218.836 188.337 218.089 189.222C217.341 190.107 216.373 190.726 215.308 191C214.242 191.275 213.127 191.192 212.104 190.763C211.081 190.334 210.196 189.577 209.562 188.59C208.927 187.602 208.572 186.428 208.54 185.216C208.508 184.005 208.802 182.81 209.384 181.783C209.967 180.757 210.811 179.945 211.81 179.452C212.809 178.958 213.918 178.804 214.996 179.01C216.431 179.284 217.71 180.175 218.555 181.49C219.401 182.805 219.742 184.437 219.507 186.03Z" fill="white"/>
</g>
<g opacity="0.6">
<path opacity="0.6" d="M443.524 260.66L440.357 261.23L440.255 260.524L443.44 259.954L443.524 260.66ZM437.159 261.795L433.992 262.365L433.89 261.659L437.057 261.089L437.159 261.795ZM430.79 262.934L427.623 263.503L427.521 262.797L430.688 262.228L430.79 262.934ZM424.425 264.073L421.258 264.638L421.156 263.936L424.34 263.367L424.425 264.073ZM443.732 259.826L443.095 259.939L442.581 256.429L443.218 256.316L443.732 259.826ZM418.911 263.897L418.274 264.01L417.76 260.5L418.397 260.383L418.911 263.897ZM442.705 252.767L442.068 252.884L441.554 249.374L442.191 249.261L442.705 252.767ZM417.883 256.842L417.246 256.955L416.736 253.426L417.373 253.313L417.883 256.842ZM441.677 245.7L441.04 245.813L440.526 242.283L441.163 242.17L441.677 245.7ZM416.859 249.771L416.222 249.885L415.709 246.375L416.346 246.261L416.859 249.771ZM440.653 238.645L440.016 238.758L439.502 235.228L440.139 235.115L440.653 238.645ZM415.832 242.716L415.195 242.829L414.681 239.319L415.318 239.206L415.832 242.716ZM438.436 233.399L435.269 233.969L435.167 233.263L438.334 232.693L438.436 233.399ZM432.067 234.538L428.9 235.107L428.798 234.402L431.965 233.832L432.067 234.538ZM425.702 235.677L422.535 236.246L422.433 235.54L425.6 234.971L425.702 235.677ZM419.336 236.812L416.17 237.381L416.068 236.675L419.234 236.106L419.336 236.812Z" fill="#F3603C"/>
</g>
<g opacity="0.6">
<path opacity="0.6" d="M415.353 240.189C414.889 240.272 414.414 240.201 413.984 239.984C413.559 239.767 413.2 239.415 412.953 238.972C412.707 238.528 412.584 238.014 412.602 237.493C412.619 236.973 412.774 236.47 413.048 236.048C413.326 235.626 413.706 235.304 414.146 235.122C414.59 234.941 415.068 234.909 415.526 235.03C415.983 235.15 416.395 235.418 416.715 235.8C417.035 236.182 417.246 236.66 417.32 237.175C417.419 237.863 417.267 238.568 416.898 239.133C416.532 239.698 415.976 240.078 415.353 240.189ZM414.702 235.7C414.364 235.761 414.051 235.93 413.801 236.188C413.552 236.446 413.376 236.78 413.295 237.149C413.217 237.517 413.238 237.903 413.358 238.258C413.478 238.613 413.689 238.921 413.963 239.143C414.241 239.364 414.572 239.49 414.913 239.504C415.255 239.518 415.592 239.42 415.885 239.221C416.173 239.023 416.405 238.733 416.546 238.389C416.69 238.045 416.736 237.662 416.683 237.288C416.609 236.786 416.36 236.338 415.99 236.04C415.617 235.743 415.156 235.62 414.702 235.7Z" fill="#F3603C"/>
</g>
<g opacity="0.6">
<path opacity="0.6" d="M439.78 235.825C439.316 235.908 438.841 235.837 438.415 235.62C437.986 235.403 437.627 235.051 437.381 234.608C437.134 234.164 437.011 233.65 437.029 233.129C437.046 232.609 437.201 232.106 437.476 231.684C437.754 231.262 438.134 230.94 438.574 230.758C439.017 230.577 439.495 230.545 439.953 230.666C440.41 230.786 440.822 231.054 441.142 231.436C441.462 231.818 441.674 232.296 441.747 232.811C441.846 233.499 441.695 234.203 441.325 234.768C440.956 235.333 440.4 235.713 439.78 235.825ZM439.14 231.336C438.802 231.397 438.489 231.566 438.239 231.824C437.989 232.082 437.813 232.416 437.733 232.785C437.655 233.153 437.676 233.539 437.796 233.894C437.916 234.249 438.127 234.557 438.401 234.778C438.679 235 439.01 235.126 439.351 235.14C439.692 235.154 440.03 235.056 440.322 234.857C440.611 234.659 440.843 234.369 440.984 234.025C441.128 233.681 441.174 233.298 441.121 232.924C441.047 232.422 440.797 231.974 440.428 231.676C440.055 231.379 439.594 231.256 439.14 231.336Z" fill="#F3603C"/>
</g>
<g opacity="0.6">
<path opacity="0.6" d="M419.403 268.027C418.939 268.11 418.464 268.039 418.038 267.823C417.612 267.607 417.253 267.255 417.007 266.813C416.761 266.37 416.638 265.857 416.655 265.337C416.673 264.818 416.828 264.315 417.102 263.894C417.377 263.472 417.76 263.15 418.196 262.969C418.636 262.788 419.115 262.755 419.572 262.874C420.03 262.994 420.441 263.261 420.762 263.642C421.082 264.022 421.293 264.499 421.367 265.013C421.465 265.701 421.314 266.405 420.948 266.97C420.579 267.535 420.023 267.915 419.403 268.027ZM418.752 263.542C418.415 263.603 418.101 263.773 417.852 264.031C417.602 264.289 417.426 264.623 417.348 264.992C417.267 265.361 417.289 265.747 417.408 266.102C417.528 266.457 417.739 266.764 418.017 266.986C418.295 267.208 418.626 267.333 418.967 267.346C419.308 267.36 419.646 267.261 419.935 267.062C420.227 266.862 420.459 266.572 420.6 266.228C420.741 265.883 420.79 265.5 420.733 265.126C420.66 264.625 420.41 264.178 420.037 263.881C419.667 263.584 419.203 263.462 418.752 263.542Z" fill="#F3603C"/>
</g>
<g opacity="0.6">
<path opacity="0.6" d="M443.83 263.663C443.366 263.746 442.891 263.675 442.465 263.458C442.039 263.242 441.68 262.891 441.434 262.448C441.188 262.006 441.065 261.492 441.082 260.973C441.1 260.453 441.255 259.951 441.529 259.53C441.804 259.108 442.184 258.786 442.623 258.605C443.063 258.423 443.542 258.39 443.999 258.51C444.457 258.63 444.868 258.897 445.189 259.278C445.509 259.658 445.72 260.135 445.794 260.648C445.892 261.337 445.741 262.04 445.375 262.606C445.006 263.171 444.45 263.551 443.83 263.663ZM443.179 259.178C442.842 259.238 442.528 259.407 442.279 259.665C442.025 259.923 441.849 260.257 441.772 260.626C441.691 260.994 441.712 261.381 441.832 261.736C441.951 262.091 442.162 262.4 442.44 262.621C442.718 262.843 443.049 262.969 443.39 262.983C443.732 262.997 444.07 262.898 444.358 262.698C444.65 262.499 444.882 262.209 445.023 261.864C445.164 261.519 445.213 261.136 445.157 260.762C445.083 260.261 444.833 259.814 444.464 259.517C444.094 259.22 443.63 259.098 443.179 259.178Z" fill="#F3603C"/>
</g>
<path d="M427.848 243.871L423.274 244.69L422.922 242.28L434.654 240.186L435.005 242.596L430.431 243.411L432.31 256.328L429.741 256.788L427.848 243.871Z" fill="#B2B6BB"/>
<path d="M204.088 300.3C204.224 301.098 204.16 301.922 203.905 302.683C203.641 303.482 203.162 304.173 202.533 304.661C201.903 305.149 201.154 305.412 200.386 305.413C199.993 305.407 199.604 305.334 199.232 305.198C198.806 305.05 198.35 305.048 197.922 305.192C197.495 305.335 197.116 305.617 196.835 306.002C196.29 306.73 195.576 307.28 194.771 307.593C193.965 307.906 193.097 307.971 192.261 307.78C191.588 307.607 190.956 307.281 190.403 306.822C189.85 306.363 189.389 305.781 189.05 305.114C188.712 304.447 188.502 303.71 188.434 302.948C188.366 302.186 188.443 301.417 188.658 300.69C188.971 299.563 189.612 298.582 190.481 297.901C191.35 297.22 192.398 296.878 193.461 296.926C194.175 296.972 194.871 297.195 195.496 297.58C196.121 297.965 196.659 298.501 197.071 299.149C197.369 298.489 197.817 297.926 198.37 297.515C197.798 296.861 197.379 296.062 197.15 295.188C196.92 294.314 196.885 293.392 197.05 292.5C197.167 291.786 197.413 291.107 197.775 290.503C198.137 289.899 198.607 289.383 199.155 288.988C199.704 288.593 200.319 288.326 200.964 288.204C201.609 288.083 202.27 288.108 202.905 288.28C203.769 288.552 204.551 289.077 205.17 289.798C205.789 290.52 206.221 291.412 206.423 292.383C206.624 293.353 206.587 294.365 206.315 295.314C206.043 296.263 205.546 297.113 204.876 297.777C204.557 298.084 204.316 298.478 204.177 298.922C204.039 299.364 204.008 299.84 204.088 300.3Z" fill="#FBE7A1"/>
<path d="M204.725 343.508L208.31 342.389C208.751 342.252 209.222 342.295 209.637 342.51L213.31 344.417C213.708 344.624 214.03 344.977 214.222 345.415L216.586 350.875C216.637 350.986 216.667 351.108 216.675 351.233C216.683 351.357 216.668 351.482 216.632 351.6C216.595 351.718 216.538 351.827 216.463 351.92C216.388 352.013 216.297 352.089 216.196 352.143C216.127 352.189 216.047 352.208 215.967 352.197C215.888 352.185 215.815 352.144 215.759 352.08L215.344 351.636L205.421 348.059L204.725 343.508Z" fill="#FC9D9D"/>
<path d="M192.722 312.246L191.638 293.654H182.004L181.314 297.387L180.586 309.25L192.722 312.246Z" fill="#FC9D9D"/>
<path opacity="0.15" d="M192.24 304.09C191.759 304.225 191.265 304.294 190.769 304.293C189.498 304.274 188.267 303.792 187.268 302.92C186.186 302.796 185.142 302.409 184.21 301.789C184.166 301.757 184.135 301.706 184.124 301.649C184.113 301.591 184.122 301.531 184.15 301.481C184.164 301.457 184.181 301.435 184.202 301.418C184.223 301.401 184.247 301.389 184.273 301.383C184.298 301.377 184.324 301.376 184.35 301.382C184.375 301.387 184.4 301.399 184.421 301.415C185.14 301.892 185.932 302.218 186.758 302.374C186.817 302.374 186.874 302.409 186.933 302.409C187.113 302.441 187.264 302.441 187.412 302.476H187.472C187.57 302.508 187.672 302.521 187.774 302.515H188.58C189.771 302.478 190.935 302.112 191.965 301.45L192.24 304.09Z" fill="black"/>
<path d="M197.603 300.604L190.97 296.813L191.856 278.971L197.553 279.786L200.242 282.294C200.242 282.294 200.09 283.3 200.052 283.889C199.904 286.147 201.589 287.325 203.511 288.514L197.603 300.604Z" fill="#FBE7A1"/>
<path d="M196.233 293.389L195.899 282.126C195.892 281.642 195.799 281.164 195.625 280.721C195.452 280.277 195.2 279.876 194.886 279.539C194.572 279.204 194.201 278.94 193.795 278.763C193.388 278.587 192.954 278.501 192.518 278.511L182.602 278.928C182.265 278.945 181.934 279.036 181.629 279.196C181.324 279.355 181.05 279.58 180.823 279.856C180.596 280.133 180.421 280.457 180.307 280.808C180.193 281.161 180.143 281.534 180.16 281.907L180.512 294.029C180.652 298.783 184.136 302.515 188.327 302.359L188.907 302.328C193.077 302.164 196.346 298.147 196.233 293.389Z" fill="#FC9D9D"/>
<path d="M207.68 411.875L223.983 412.327L217.459 407.16C216.364 406.294 215.974 404.941 215.911 403.451L216.224 397.8L207.339 397.831L207.68 411.875Z" fill="#FC9D9D"/>
<path opacity="0.15" d="M209.496 406.412V406.326C209.49 406.189 209.509 406.053 209.552 405.928C209.595 405.799 209.661 405.682 209.745 405.585C209.831 405.487 209.933 405.409 210.046 405.355C210.159 405.304 210.281 405.277 210.404 405.277L216.129 404.594L216.051 403.65H207.367L207.621 411.489L214.721 410.776L212.374 409.925C210.773 409.337 209.623 407.975 209.496 406.412Z" fill="black"/>
<path d="M206.55 408.685V415.705C206.548 415.974 206.594 416.244 206.686 416.493C206.778 416.743 206.914 416.969 207.086 417.16C207.258 417.351 207.463 417.499 207.688 417.601C207.913 417.706 208.155 417.757 208.398 417.753H230.021C230.123 417.753 230.225 417.733 230.321 417.69C230.416 417.648 230.502 417.581 230.575 417.503C230.648 417.421 230.705 417.324 230.744 417.219C230.783 417.113 230.803 417 230.802 416.887C230.801 416.068 230.568 415.269 230.135 414.602C229.703 413.935 229.093 413.436 228.391 413.174L223.511 411.408L217.318 406.1C217.006 405.831 216.62 405.694 216.226 405.706C215.832 405.717 215.455 405.881 215.157 406.17L212.406 408.771C212.203 408.954 211.964 409.079 211.708 409.142C211.452 409.2 211.187 409.192 210.935 409.118L207.462 407.905C207.354 407.87 207.24 407.862 207.129 407.882C207.017 407.905 206.913 407.956 206.824 408.034C206.734 408.108 206.663 408.21 206.615 408.323C206.568 408.436 206.546 408.561 206.55 408.685Z" fill="#F3603C"/>
<path opacity="0.5" d="M208.402 417.772H230.021C230.124 417.772 230.226 417.752 230.321 417.709C230.416 417.666 230.503 417.6 230.575 417.522C230.648 417.44 230.705 417.343 230.744 417.237C230.783 417.132 230.803 417.019 230.802 416.906C230.803 416.613 230.771 416.321 230.707 416.036H206.586C206.644 416.524 206.86 416.968 207.195 417.288C207.53 417.608 207.959 417.779 208.402 417.772Z" fill="black"/>
<path d="M217.191 408.931C217.167 408.931 217.144 408.923 217.122 408.912C217.101 408.9 217.082 408.88 217.068 408.861C217.037 408.818 217.021 408.759 217.021 408.705C217.021 408.65 217.037 408.592 217.068 408.549L218.38 406.989C218.419 406.954 218.467 406.938 218.516 406.942C218.565 406.946 218.611 406.969 218.645 407.008C218.68 407.043 218.701 407.098 218.704 407.149C218.707 407.203 218.692 407.258 218.662 407.301L217.35 408.861C217.306 408.904 217.25 408.931 217.191 408.931Z" fill="white"/>
<path d="M218.226 409.832C218.201 409.832 218.177 409.824 218.155 409.812C218.133 409.801 218.114 409.781 218.099 409.762C218.068 409.719 218.052 409.66 218.052 409.606C218.052 409.551 218.068 409.492 218.099 409.45L219.415 407.89C219.456 407.854 219.505 407.835 219.556 407.835C219.607 407.835 219.656 407.854 219.697 407.89C219.726 407.936 219.741 407.991 219.741 408.046C219.741 408.1 219.726 408.155 219.697 408.202L218.381 409.762C218.338 409.805 218.283 409.828 218.226 409.832Z" fill="white"/>
<path d="M219.288 410.713C219.264 410.713 219.24 410.705 219.218 410.693C219.196 410.681 219.177 410.662 219.162 410.642C219.131 410.6 219.114 410.541 219.114 410.486C219.114 410.432 219.131 410.373 219.162 410.33L220.474 408.77C220.516 408.739 220.566 408.72 220.617 408.72C220.668 408.72 220.718 408.739 220.759 408.77C220.788 408.817 220.804 408.872 220.804 408.926C220.804 408.981 220.788 409.036 220.759 409.082L219.443 410.642C219.401 410.685 219.346 410.709 219.288 410.713Z" fill="white"/>
<path d="M162.31 399.134L166.94 416.462L169.372 408.011C169.78 406.587 170.818 405.76 172.081 405.234L177.029 403.822L174.263 394.462L162.31 399.134Z" fill="#FC9D9D"/>
<path opacity="0.15" d="M167.56 399.36L167.633 399.333C167.748 399.282 167.87 399.263 167.993 399.267C168.116 399.274 168.236 399.306 168.346 399.364C168.457 399.427 168.555 399.508 168.635 399.61C168.715 399.715 168.776 399.836 168.812 399.965L171.159 405.791L171.944 405.436L169.27 396.268L162.616 398.97L165.413 406.24V403.51C165.441 401.618 166.258 399.98 167.56 399.36Z" fill="black"/>
<path d="M164.702 396.966L158.657 399.134C158.427 399.216 158.213 399.349 158.028 399.524C157.844 399.696 157.692 399.91 157.582 400.148C157.472 400.386 157.406 400.647 157.387 400.916C157.368 401.185 157.396 401.455 157.471 401.708L162.144 417.698L167.676 417.737C168.643 417.698 169.752 417.846 170.167 417.698C171.191 417.331 171.223 416.77 171.166 415.861C171.144 415.506 171.014 415.171 170.797 414.906C170.581 414.644 170.29 414.469 169.973 414.41L168.077 413.7L170.216 407.503C170.351 407.094 170.352 406.641 170.219 406.232C170.087 405.822 169.83 405.471 169.491 405.249L166.412 403.147C166.193 402.991 166.01 402.777 165.879 402.527C165.749 402.277 165.675 401.993 165.663 401.704L165.635 397.668C165.63 397.547 165.6 397.43 165.546 397.321C165.493 397.215 165.418 397.125 165.327 397.059C165.237 396.989 165.133 396.946 165.025 396.931C164.916 396.915 164.806 396.927 164.702 396.966Z" fill="#F3603C"/>
<path opacity="0.5" d="M168.39 417.717H162.144L157.471 401.728C157.327 401.263 157.342 400.76 157.514 400.308C157.685 399.856 158.001 399.493 158.4 399.282L163.27 416.31L171.169 416.871C171.169 416.871 170.927 417.998 168.39 417.717Z" fill="black"/>
<path d="M167.767 408.255C167.759 408.228 167.757 408.205 167.761 408.177C167.765 408.15 167.774 408.127 167.788 408.103C167.818 408.057 167.86 408.025 167.908 408.006C167.956 407.99 168.007 407.99 168.056 408.006L169.815 408.911C169.856 408.946 169.886 408.993 169.902 409.047C169.917 409.098 169.916 409.156 169.9 409.211C169.87 409.258 169.828 409.289 169.78 409.308C169.732 409.324 169.68 409.324 169.632 409.305L167.873 408.4C167.823 408.369 167.785 408.318 167.767 408.255Z" fill="white"/>
<path d="M167.309 409.625C167.303 409.598 167.301 409.57 167.305 409.543C167.308 409.516 167.317 409.493 167.331 409.469C167.36 409.422 167.402 409.391 167.45 409.372C167.498 409.356 167.55 409.356 167.598 409.376L169.357 410.28C169.398 410.311 169.429 410.358 169.445 410.413C169.461 410.467 169.461 410.522 169.445 410.577C169.415 410.623 169.372 410.655 169.324 410.674C169.275 410.69 169.223 410.69 169.174 410.674L167.433 409.766C167.377 409.738 167.332 409.687 167.309 409.625Z" fill="white"/>
<path d="M166.88 411.017C166.872 410.989 166.87 410.962 166.874 410.935C166.878 410.908 166.887 410.884 166.901 410.861C166.93 410.814 166.972 410.783 167.02 410.763C167.069 410.748 167.121 410.748 167.169 410.767L168.91 411.672C168.953 411.703 168.984 411.75 169 411.804C169.016 411.855 169.016 411.914 168.998 411.968C168.969 412.015 168.927 412.046 168.879 412.066C168.831 412.081 168.779 412.081 168.731 412.066L166.972 411.157C166.926 411.126 166.893 411.075 166.88 411.017Z" fill="white"/>
<path d="M186.554 290.101C186.559 289.922 186.611 289.75 186.704 289.604C186.797 289.458 186.926 289.346 187.077 289.281C187.227 289.217 187.391 289.203 187.548 289.241C187.705 289.279 187.849 289.368 187.962 289.495C188.074 289.624 188.15 289.786 188.179 289.961C188.209 290.137 188.191 290.318 188.128 290.482C188.066 290.647 187.961 290.787 187.826 290.886C187.692 290.984 187.535 291.037 187.374 291.037C187.153 291.033 186.943 290.932 186.789 290.757C186.636 290.581 186.551 290.346 186.554 290.101Z" fill="#21252B"/>
<path d="M187.549 290.265C187.55 290.229 187.561 290.193 187.58 290.162C187.599 290.132 187.625 290.109 187.656 290.095C187.687 290.082 187.721 290.078 187.754 290.086C187.786 290.094 187.816 290.112 187.839 290.138C187.863 290.165 187.879 290.198 187.885 290.234C187.891 290.27 187.887 290.308 187.874 290.342C187.862 290.376 187.84 290.404 187.812 290.425C187.784 290.445 187.752 290.456 187.719 290.456C187.673 290.455 187.63 290.435 187.599 290.399C187.567 290.363 187.549 290.315 187.549 290.265Z" fill="white"/>
<path d="M192.926 290.16C192.931 289.981 192.983 289.808 193.076 289.662C193.169 289.516 193.299 289.404 193.45 289.34C193.6 289.275 193.764 289.261 193.922 289.299C194.079 289.338 194.223 289.427 194.335 289.556C194.447 289.684 194.522 289.846 194.552 290.022C194.581 290.198 194.563 290.379 194.5 290.544C194.436 290.708 194.331 290.848 194.196 290.946C194.061 291.044 193.904 291.097 193.742 291.096C193.522 291.091 193.313 290.989 193.16 290.814C193.007 290.639 192.923 290.403 192.926 290.16Z" fill="#21252B"/>
<path d="M193.915 290.285C193.914 290.26 193.918 290.235 193.926 290.212C193.935 290.188 193.947 290.167 193.963 290.149C193.978 290.131 193.997 290.116 194.018 290.106C194.039 290.096 194.061 290.09 194.084 290.09C194.119 290.088 194.154 290.099 194.184 290.119C194.213 290.14 194.237 290.169 194.252 290.205C194.266 290.24 194.271 290.28 194.265 290.318C194.259 290.356 194.242 290.392 194.218 290.42C194.194 290.448 194.162 290.467 194.128 290.475C194.094 290.483 194.058 290.48 194.025 290.466C193.992 290.451 193.965 290.426 193.945 290.394C193.925 290.362 193.915 290.324 193.915 290.285Z" fill="white"/>
<path opacity="0.15" d="M190.807 293.311C190.787 293.022 190.666 292.753 190.468 292.562C190.271 292.372 190.013 292.275 189.752 292.293C189.692 292.314 189.641 292.355 189.603 292.411C189.566 292.466 189.546 292.532 189.544 292.601C189.561 292.668 189.596 292.726 189.645 292.769C189.693 292.812 189.753 292.836 189.815 292.839C189.95 292.842 190.08 292.9 190.18 293.001C190.279 293.102 190.342 293.24 190.357 293.389C190.371 293.537 190.332 293.685 190.248 293.801C190.165 293.917 190.043 293.992 189.91 294.009L188.819 294.118C188.76 294.139 188.708 294.18 188.671 294.236C188.634 294.291 188.613 294.357 188.612 294.427C188.629 294.493 188.664 294.551 188.712 294.594C188.761 294.637 188.82 294.661 188.882 294.664L189.974 294.555C190.108 294.549 190.239 294.51 190.357 294.441C190.476 294.372 190.579 294.274 190.659 294.155C190.739 294.035 190.794 293.897 190.82 293.751C190.845 293.606 190.841 293.455 190.807 293.311Z" fill="black"/>
<path d="M169.157 395.932L194.175 383.425L168.643 384.817L168.136 365.134L210.611 370.914L216.889 380.929L215.235 393.495L171.929 405.698L169.157 395.932Z" fill="#21252B"/>
<path opacity="0.3" d="M176.87 384.427L201.392 369.79L195.52 369.225L170.22 384.54L176.87 384.427Z" fill="black"/>
<path opacity="0.3" d="M171.93 405.697L215.235 393.51L216.889 380.944L210.611 370.929L202.367 369.806L202.912 385.406C202.98 387.339 202.468 389.242 201.457 390.819C200.446 392.398 198.994 393.561 197.325 394.126L171.159 402.999L171.93 405.697Z" fill="black"/>
<path d="M216.801 404.227L218.624 359.517C218.508 355.43 216.312 351.698 212.821 349.646C209.893 347.952 206.481 347.599 203.321 348.664L174.467 358.414L158.632 362.544C157.502 365.72 156.819 369.07 156.606 372.477C156.183 380.086 161.986 386.942 169.491 384.848C176.434 382.898 203.391 368.226 203.391 368.226L206.688 404.496L216.801 404.227Z" fill="#21252B"/>
<g opacity="0.3">
<path opacity="0.3" d="M199.601 380.172C199.601 380.102 198.173 380.383 196.639 381.342C195.104 382.302 194.13 383.468 194.175 383.511C194.221 383.554 195.263 382.516 196.765 381.604C198.268 380.691 199.622 380.25 199.601 380.172Z" fill="black"/>
</g>
<g opacity="0.3">
<path opacity="0.3" d="M207.511 363.909C207.55 363.999 206.217 364.533 205.048 365.886C203.88 367.24 203.391 368.71 203.31 368.667C203.335 368.324 203.428 367.992 203.581 367.692C203.894 366.942 204.321 366.257 204.844 365.668C205.366 365.075 205.977 364.588 206.649 364.229C206.913 364.055 207.207 363.946 207.511 363.909Z" fill="black"/>
</g>
<path d="M187.409 296.24C187.271 296.24 187.229 296.338 187.25 296.459C187.387 296.935 187.645 297.357 187.995 297.672C188.344 297.988 188.769 298.184 189.218 298.235C189.666 298.287 190.118 298.193 190.519 297.964C190.919 297.735 191.251 297.381 191.473 296.946C191.484 296.922 191.489 296.895 191.489 296.868C191.489 296.841 191.483 296.815 191.471 296.79C191.46 296.767 191.444 296.746 191.424 296.73C191.404 296.714 191.381 296.704 191.357 296.7L187.409 296.24Z" fill="white"/>
<path d="M198.693 282.056C198.362 282.798 197.836 283.411 197.184 283.814C196.531 284.216 195.784 284.39 195.041 284.31C193.791 284.202 192.619 283.592 191.746 282.594C190.873 281.597 190.358 280.281 190.298 278.893H190.252C189.755 279.624 189.102 280.207 188.352 280.591C187.603 280.974 186.779 281.147 185.955 281.093C185.474 281.059 184.999 280.946 184.548 280.758C183.964 286.842 180.572 287.317 180.572 287.317C180.54 287.898 180.48 289.068 180.406 290.437C180.354 291.377 181.36 291.83 180.874 292.512H181.138C180.994 292.738 181.374 293.031 181.272 293.292C181.105 293.722 181.007 294.182 180.983 294.649C180.941 295.314 181.055 295.979 181.316 296.58C181.576 297.18 181.973 297.695 182.468 298.074C183.482 298.893 184.58 299.996 184.745 301.428C184.938 303.202 183.756 306.459 179.773 306.369C178.626 306.345 169.424 306.072 170.529 296.982C170.696 296.231 170.965 295.512 171.328 294.852C171.55 294.389 171.679 293.878 171.708 293.355C171.778 292.107 171.082 291.213 170.357 290.406C169.948 289.995 169.627 289.487 169.419 288.92C169.21 288.353 169.12 287.741 169.153 287.13C169.193 286.294 169.468 285.494 169.94 284.841C170.412 284.188 171.058 283.716 171.785 283.491C171.989 283.431 172.174 283.305 172.315 283.131C172.456 282.956 172.548 282.74 172.581 282.509C172.89 280.52 174.973 275.438 181.402 276.241C181.286 274.147 183.183 271.078 185.977 270.992C188.373 270.922 190.333 273.004 191.585 274.779C191.939 275.292 192.402 275.701 192.933 275.967C193.465 276.233 194.047 276.349 194.629 276.304C195.146 276.257 195.899 275.98 196.624 276.023C199.422 276.191 200.674 278.893 200.22 282.286L198.693 282.056Z" fill="#FBE7A1"/>
<path d="M242.653 297.784L243.592 298.705C243.592 298.705 245.186 300.522 245.155 300.565C245.123 300.608 245.098 302.515 245.098 302.515L245.025 303.763C245.016 303.83 244.992 303.894 244.955 303.947C244.917 304.001 244.868 304.043 244.811 304.069C244.755 304.094 244.693 304.104 244.632 304.095C244.572 304.087 244.514 304.061 244.465 304.02C244.281 303.836 244.157 303.589 244.113 303.318L244.039 303.708C244.025 303.766 243.998 303.82 243.961 303.865C243.925 303.91 243.879 303.945 243.828 303.966C243.777 303.988 243.723 303.997 243.668 303.991C243.614 303.986 243.562 303.966 243.515 303.934C243.306 303.762 243.142 303.53 243.043 303.263C242.943 302.995 242.911 302.703 242.949 302.417C242.994 301.788 243.008 301.157 242.991 300.526L242.685 300.222C242.607 300.276 240.007 301.22 240.01 301.15C240.014 301.08 239.715 299.087 239.715 299.087L242.653 297.784Z" fill="#FC9D9D"/>
<g opacity="0.15">
<path opacity="0.15" d="M242.653 297.784L243.592 298.705C243.592 298.705 245.186 300.522 245.155 300.565C245.123 300.608 245.098 302.515 245.098 302.515L245.025 303.763C245.016 303.83 244.992 303.894 244.955 303.947C244.917 304.001 244.868 304.043 244.811 304.069C244.755 304.094 244.693 304.104 244.632 304.095C244.572 304.087 244.514 304.061 244.465 304.02C244.281 303.836 244.157 303.589 244.113 303.318L244.039 303.708C244.025 303.766 243.998 303.82 243.961 303.865C243.925 303.91 243.879 303.945 243.828 303.966C243.777 303.988 243.723 303.997 243.668 303.991C243.614 303.986 243.562 303.966 243.515 303.934C243.306 303.762 243.142 303.53 243.043 303.263C242.943 302.995 242.911 302.703 242.949 302.417C242.994 301.788 243.008 301.157 242.991 300.526L242.685 300.222C242.607 300.276 240.007 301.22 240.01 301.15C240.014 301.08 239.715 299.087 239.715 299.087L242.653 297.784Z" fill="black"/>
</g>
<path d="M234.169 304.231L237.537 298.588C237.83 298.093 238.288 297.747 238.811 297.624L242.21 296.821C242.513 296.749 242.826 296.754 243.127 296.836C243.428 296.919 243.707 297.077 243.945 297.297L246.147 299.344L246.573 300.756C246.598 300.838 246.601 300.925 246.582 301.009C246.563 301.093 246.523 301.168 246.466 301.227C246.409 301.286 246.338 301.326 246.262 301.341C246.185 301.356 246.106 301.347 246.035 301.314C245.5 301.034 245.037 300.61 244.687 300.081C244.161 299.384 243.512 298.814 242.78 298.404L240.042 299.734L240.187 301.345L235.222 306.435L234.169 304.231Z" fill="#FC9D9D"/>
<path d="M247.836 302.863L237.752 294.583C237.691 294.533 237.622 294.497 237.549 294.477C237.476 294.457 237.4 294.453 237.326 294.465C237.251 294.477 237.18 294.506 237.115 294.549C237.051 294.592 236.994 294.648 236.949 294.715C236.905 294.782 236.872 294.859 236.854 294.94C236.836 295.021 236.832 295.105 236.843 295.188C236.854 295.27 236.88 295.35 236.919 295.421C236.957 295.493 237.008 295.555 237.069 295.605L247.154 303.884L248.484 304.185L247.836 302.863Z" fill="black"/>
<path d="M236.189 308.459L239.085 306.509C239.454 306.261 239.77 305.927 240.01 305.53C240.637 304.488 241.918 302.41 242.368 302.063C242.977 301.591 245.155 300.074 244.94 299.415C244.726 298.755 244.212 298.167 242.963 299.079C241.714 299.992 238.635 301.661 238.635 301.661L234.701 305.327L236.189 308.459Z" fill="#FC9D9D"/>
<g opacity="0.15">
<path opacity="0.15" d="M238.948 301.47C239.425 301.272 239.888 301.032 240.331 300.753C241.161 300.289 242.34 299.583 243.575 298.877C243.715 298.803 243.869 298.77 244.024 298.78C244.178 298.79 244.328 298.844 244.458 298.935C244.569 299.03 244.649 299.161 244.69 299.309C244.73 299.457 244.728 299.616 244.683 299.762C244.565 300.04 244.391 300.285 244.173 300.476C243.972 300.683 243.779 300.866 243.596 301.026C242.864 301.669 242.343 301.966 242.364 302.005C242.5 301.973 242.628 301.915 242.744 301.833C243.078 301.642 243.398 301.422 243.702 301.178C243.892 301.026 244.099 300.846 244.31 300.644C244.558 300.438 244.758 300.171 244.894 299.864C244.957 299.667 244.964 299.453 244.912 299.253C244.86 299.052 244.753 298.874 244.606 298.744C244.443 298.623 244.254 298.55 244.058 298.533C243.863 298.515 243.666 298.553 243.487 298.643C242.178 299.396 241.077 300.09 240.25 300.593C239.795 300.845 239.359 301.138 238.948 301.47Z" fill="black"/>
</g>
<path d="M193.939 294.216C193.247 294.212 192.572 293.981 191.999 293.553C191.425 293.124 190.979 292.516 190.717 291.807C190.455 291.098 190.388 290.318 190.525 289.566C190.662 288.815 190.997 288.125 191.487 287.585C191.977 287.044 192.601 286.676 193.28 286.528C193.959 286.38 194.662 286.458 195.301 286.752C195.939 287.047 196.485 287.544 196.869 288.181C197.253 288.819 197.458 289.569 197.458 290.335C197.453 291.367 197.08 292.353 196.421 293.081C195.762 293.808 194.869 294.216 193.939 294.216ZM193.939 286.74C193.297 286.74 192.669 286.951 192.134 287.346C191.6 287.742 191.184 288.305 190.938 288.963C190.692 289.621 190.628 290.345 190.754 291.043C190.88 291.741 191.189 292.383 191.644 292.886C192.099 293.39 192.677 293.732 193.308 293.87C193.938 294.009 194.591 293.937 195.184 293.664C195.778 293.391 196.285 292.929 196.641 292.337C196.998 291.744 197.188 291.048 197.187 290.335C197.185 289.382 196.842 288.468 196.233 287.794C195.625 287.12 194.8 286.741 193.939 286.74Z" fill="#21252B"/>
<path d="M185.99 294.216C185.298 294.217 184.62 293.99 184.044 293.564C183.468 293.138 183.019 292.532 182.753 291.823C182.488 291.114 182.418 290.334 182.553 289.581C182.687 288.828 183.021 288.136 183.51 287.593C183.999 287.05 184.623 286.68 185.303 286.53C185.982 286.38 186.686 286.457 187.326 286.75C187.966 287.044 188.513 287.541 188.898 288.179C189.283 288.818 189.488 289.568 189.488 290.336C189.483 291.362 189.114 292.346 188.459 293.073C187.804 293.799 186.917 294.21 185.99 294.216ZM185.99 286.74C185.348 286.739 184.719 286.95 184.185 287.345C183.65 287.74 183.233 288.302 182.987 288.96C182.741 289.618 182.676 290.342 182.801 291.041C182.927 291.74 183.236 292.381 183.69 292.885C184.145 293.389 184.724 293.731 185.354 293.87C185.984 294.009 186.638 293.937 187.231 293.664C187.825 293.392 188.332 292.929 188.689 292.337C189.045 291.744 189.235 291.048 189.235 290.336C189.233 289.382 188.891 288.469 188.282 287.795C187.674 287.121 186.85 286.742 185.99 286.74Z" fill="#21252B"/>
<path d="M190.611 289.482C190.415 289.365 190.196 289.304 189.974 289.304C189.751 289.304 189.532 289.365 189.337 289.482L189.207 289.244C189.441 289.102 189.703 289.027 189.97 289.027C190.237 289.027 190.5 289.102 190.734 289.244L190.611 289.482Z" fill="#21252B"/>
<path d="M182.542 289.634L180.012 288.015L180.16 287.789L182.693 289.408L182.542 289.634Z" fill="#21252B"/>
<path d="M191.635 326.43L192.733 313.272L214.31 315.085L234.046 302.379L238.16 308.97L216.871 326.13C216.034 326.807 215.018 327.157 213.982 327.124L191.635 326.43Z" fill="#F3603C"/>
<path opacity="0.15" d="M216.871 326.13L238.16 308.97L237.456 307.897L215.703 324.153C215.041 324.687 214.222 324.925 213.409 324.82L203.736 323.556C202.317 323.368 200.961 322.795 199.788 321.89C198.616 320.984 197.662 319.772 197.011 318.361L194.742 313.435L192.719 313.268L191.635 326.43L213.982 327.128C215.019 327.16 216.035 326.809 216.871 326.13Z" fill="black"/>
<path d="M192.747 310.865C192.725 311.446 196.87 324.905 196.811 330.408C196.737 337.643 189.879 343.227 189.879 343.227L182.919 355.547C172.345 363.492 156.637 368.772 157.232 360.376L165.381 336.824L170.434 323.778C171.887 318.424 174.532 313.561 178.126 309.637L182.271 306.567L192.747 310.865Z" fill="#F3603C"/>
<path d="M181.215 355.251L205.449 349.401L204.432 340.965L182.975 343.145L186.845 323.423C187.09 321.897 186.831 320.324 186.117 318.992C185.402 317.66 184.28 316.656 182.954 316.165C179.91 315.038 175.976 316.828 174.839 320.096C174.735 320.413 174.656 320.739 174.604 321.071L170.578 345.419C170.578 345.419 167.63 358.819 181.215 355.251Z" fill="#F3603C"/>
<g opacity="0.15">
<path opacity="0.15" d="M178.302 318.307C178.334 318.393 179.513 317.659 181.117 317.55C182.722 317.441 183.989 317.967 184.013 317.878C184.038 317.788 182.789 317.121 181.1 317.258C179.411 317.394 178.253 318.24 178.302 318.307Z" fill="black"/>
</g>
<path d="M161.863 363.554C161.824 363.624 161.141 363.253 160.423 362.594C159.706 361.935 159.248 361.264 159.304 361.21C159.361 361.155 159.903 361.717 160.603 362.356C161.303 362.996 161.905 363.48 161.863 363.554Z" fill="#FAFAFA"/>
<path d="M179.013 308.982L179.6 306.685C179.64 306.528 179.708 306.382 179.801 306.257C179.894 306.131 180.01 306.029 180.14 305.955C180.271 305.882 180.414 305.839 180.561 305.831C180.707 305.822 180.853 305.847 180.99 305.905L192.363 310.585C192.638 310.665 192.893 310.814 193.109 311.021C193.324 311.228 193.494 311.486 193.605 311.777C193.716 312.068 193.765 312.383 193.75 312.698C193.734 313.013 193.653 313.32 193.513 313.595C193.285 314.049 192.911 314.391 192.466 314.553C192.02 314.715 191.537 314.685 191.11 314.469L179.013 308.982Z" fill="#F3603C"/>
<path d="M181.772 327.378C181.705 327.417 181.307 326.66 181.068 325.623C180.829 324.585 180.871 323.708 180.945 323.708C181.018 323.708 181.114 324.543 181.339 325.549C181.564 326.555 181.845 327.339 181.772 327.378Z" fill="#FAFAFA"/>
<path d="M177.651 330.057C177.707 330.111 177.299 330.762 176.648 331.402C175.997 332.042 175.36 332.412 175.322 332.342C175.283 332.272 175.828 331.796 176.462 331.172C177.095 330.548 177.588 330.002 177.651 330.057Z" fill="#FAFAFA"/>
<path d="M181.944 336.215C181.884 336.266 181.476 335.806 181.173 335.096C180.871 334.386 180.821 333.746 180.878 333.731C180.934 333.715 181.135 334.288 181.427 334.963C181.719 335.638 182.007 336.18 181.944 336.215Z" fill="#FAFAFA"/>
<path d="M176.846 340.575C176.772 340.575 176.891 339.795 177.113 338.851C177.335 337.907 177.577 337.182 177.651 337.202C177.725 337.221 177.606 337.982 177.384 338.929C177.162 339.877 176.919 340.598 176.846 340.575Z" fill="#FAFAFA"/>
<path d="M174.224 345.93C174.15 345.961 173.893 345.435 173.647 344.76C173.4 344.085 173.256 343.492 173.326 343.461C173.397 343.43 173.657 343.96 173.907 344.631C174.157 345.302 174.294 345.93 174.224 345.93Z" fill="#FAFAFA"/>
<path d="M182.05 342.182C182.092 342.26 181.522 342.747 180.857 343.391C180.192 344.034 179.678 344.6 179.618 344.561C179.559 344.522 179.988 343.839 180.674 343.176C181.36 342.513 182.011 342.112 182.05 342.182Z" fill="#FAFAFA"/>
<path d="M175.17 354.755C175.097 354.79 174.706 353.975 174.182 353.047C173.657 352.119 173.196 351.351 173.26 351.296C173.323 351.241 173.886 351.916 174.421 352.887C174.956 353.858 175.234 354.72 175.17 354.755Z" fill="#FAFAFA"/>
<path d="M180.346 352.073C180.297 352.143 179.713 351.718 178.939 351.293C178.165 350.868 177.531 350.599 177.531 350.513C177.531 350.427 178.26 350.571 179.051 351.02C179.843 351.468 180.396 352.01 180.346 352.073Z" fill="#FAFAFA"/>
<path d="M184.735 351.105C184.794 351.167 184.464 351.651 184.189 352.322C183.915 352.993 183.788 353.581 183.707 353.57C183.626 353.558 183.633 352.911 183.932 352.193C184.231 351.475 184.682 351.046 184.735 351.105Z" fill="#FAFAFA"/>
<path d="M187.768 347.225C187.722 347.299 187.191 346.948 186.504 346.601C185.818 346.254 185.241 346.024 185.262 345.934C185.283 345.845 185.913 345.934 186.624 346.324C187.335 346.714 187.813 347.159 187.768 347.225Z" fill="#FAFAFA"/>
<path d="M190.185 349.705C190.245 349.759 189.992 350.204 189.622 350.699C189.253 351.195 188.918 351.546 188.841 351.479C188.763 351.413 189.035 350.98 189.408 350.489C189.781 349.997 190.126 349.65 190.185 349.705Z" fill="#FAFAFA"/>
<path d="M192.778 345.836C192.697 345.86 192.518 345.302 192.152 344.709C191.786 344.116 191.395 343.718 191.448 343.644C191.501 343.57 191.997 343.886 192.391 344.534C192.785 345.181 192.849 345.824 192.778 345.836Z" fill="#FAFAFA"/>
<path d="M195.544 348.114C195.47 348.094 195.59 347.256 195.811 346.242C196.033 345.228 196.276 344.424 196.35 344.444C196.423 344.463 196.307 345.302 196.082 346.316C195.857 347.33 195.618 348.133 195.544 348.114Z" fill="#FAFAFA"/>
<path d="M201.389 349.389C201.346 349.459 200.804 349.12 200.185 348.609C199.566 348.098 199.098 347.669 199.129 347.599C199.161 347.529 199.714 347.868 200.336 348.356C200.959 348.843 201.434 349.319 201.389 349.389Z" fill="#FAFAFA"/>
<path d="M203.078 342.362C203.145 342.401 202.969 342.931 202.553 343.446C202.138 343.961 201.684 344.226 201.645 344.148C201.607 344.07 201.959 343.723 202.349 343.239C202.74 342.756 203.007 342.323 203.078 342.362Z" fill="#FAFAFA"/>
<path d="M178.922 320.159C178.978 320.221 178.598 320.713 178.077 321.263C177.556 321.812 177.095 322.202 177.043 322.14C176.99 322.078 177.366 321.582 177.887 321.036C178.408 320.49 178.869 320.096 178.922 320.159Z" fill="#FAFAFA"/>
<path d="M184.312 322.604C184.238 322.627 184.031 321.976 183.848 321.157C183.665 320.338 183.584 319.656 183.658 319.636C183.731 319.617 183.943 320.264 184.122 321.083C184.302 321.902 184.382 322.585 184.312 322.604Z" fill="#FAFAFA"/>
<path d="M183.38 312.893C183.38 312.975 182.845 312.979 182.201 312.893C181.557 312.807 181.043 312.675 181.054 312.589C181.064 312.503 181.589 312.503 182.233 312.589C182.877 312.675 183.39 312.807 183.38 312.893Z" fill="#FAFAFA"/>
<path d="M187.409 319.64C187.338 319.64 187.176 319.223 187.176 318.646C187.176 318.069 187.338 317.632 187.409 317.655C187.479 317.679 187.455 318.115 187.458 318.646C187.462 319.176 187.486 319.621 187.409 319.64Z" fill="#FAFAFA"/>
<path d="M192.346 321.411C192.293 321.473 191.73 320.994 191.086 320.338C190.442 319.683 189.96 319.098 190.03 319.036C190.101 318.973 190.65 319.453 191.294 320.108C191.937 320.763 192.398 321.36 192.346 321.411Z" fill="#FAFAFA"/>
<path d="M190.635 325.202C190.678 325.272 190.372 325.592 189.949 325.877C189.527 326.161 189.154 326.364 189.112 326.29C189.07 326.216 189.376 325.9 189.798 325.615C190.22 325.331 190.593 325.128 190.635 325.202Z" fill="#FAFAFA"/>
<path d="M193.686 330.454C193.612 330.454 193.521 329.725 193.686 328.844C193.851 327.962 194.21 327.331 194.273 327.366C194.337 327.401 194.122 328.068 193.96 328.926C193.798 329.784 193.767 330.454 193.686 330.454Z" fill="#FAFAFA"/>
<path d="M190.899 333.036C190.833 333.075 190.548 332.572 190.238 331.913C189.928 331.254 189.756 330.692 189.826 330.653C189.897 330.614 190.178 331.118 190.488 331.777C190.797 332.436 190.97 332.997 190.899 333.036Z" fill="#FAFAFA"/>
<path d="M186.803 334.433C186.874 334.472 186.67 335.143 186.349 335.938C186.029 336.734 185.709 337.346 185.646 337.311C185.582 337.276 185.779 336.605 186.103 335.81C186.427 335.014 186.733 334.398 186.803 334.433Z" fill="#FAFAFA"/>
<path d="M190.544 338.598C190.544 338.688 189.84 338.723 188.978 338.855C188.116 338.988 187.43 339.16 187.405 339.074C187.38 338.988 188.052 338.684 188.939 338.547C189.826 338.411 190.547 338.52 190.544 338.598Z" fill="#FAFAFA"/>
<path d="M170.016 333.734C169.938 333.734 169.738 333.083 169.565 332.233C169.393 331.383 169.315 330.673 169.393 330.673C169.47 330.673 169.667 331.328 169.84 332.178C170.012 333.028 170.09 333.719 170.016 333.734Z" fill="#FAFAFA"/>
<path d="M173.446 325.003C173.481 325.077 173.094 325.365 172.542 325.447C171.989 325.529 171.546 325.373 171.563 325.295C171.581 325.217 172 325.221 172.503 325.139C173.006 325.057 173.411 324.921 173.446 325.003Z" fill="#FAFAFA"/>
<path d="M166.996 341.367C166.972 341.285 167.594 340.997 168.404 340.72C169.213 340.443 169.854 340.291 169.878 340.373C169.903 340.455 169.276 340.763 168.471 341.02C167.665 341.277 167.017 341.449 166.996 341.367Z" fill="#FAFAFA"/>
<path d="M164.742 347.724C164.664 347.724 164.541 346.983 164.467 346.051C164.393 345.119 164.393 344.358 164.467 344.351C164.541 344.343 164.668 345.092 164.742 346.024C164.816 346.956 164.819 347.716 164.742 347.724Z" fill="#FAFAFA"/>
<path d="M166.486 355.083C166.419 355.04 166.764 354.205 167.26 353.219C167.757 352.232 168.214 351.468 168.281 351.511C168.348 351.553 168.003 352.384 167.507 353.371C167.011 354.358 166.553 355.122 166.486 355.083Z" fill="#FAFAFA"/>
<path d="M163.024 357.26C162.95 357.283 162.672 356.527 162.429 355.571C162.186 354.616 162.028 353.82 162.105 353.793C162.183 353.765 162.457 354.526 162.7 355.481C162.943 356.437 163.098 357.24 163.024 357.26Z" fill="#FAFAFA"/>
<path d="M170.219 359.63C170.247 359.712 169.663 360.02 168.981 360.449C168.298 360.878 167.763 361.284 167.714 361.229C167.665 361.175 168.133 360.64 168.84 360.192C169.547 359.743 170.195 359.552 170.219 359.63Z" fill="#FAFAFA"/>
<path d="M175.332 318.946C175.255 318.946 175.248 318.197 175.332 317.292C175.417 316.388 175.523 315.662 175.6 315.67C175.678 315.678 175.685 316.415 175.6 317.32C175.516 318.224 175.41 318.954 175.332 318.946Z" fill="#FAFAFA"/>
<path d="M182.395 309.32C182.321 309.344 182.18 309.051 182.082 308.665C181.983 308.279 181.962 307.951 182.039 307.928C182.117 307.905 182.254 308.197 182.353 308.579C182.452 308.962 182.473 309.293 182.395 309.32Z" fill="#FAFAFA"/>
<path d="M187.947 310.705C187.947 310.787 187.324 310.767 186.631 310.455C185.938 310.143 185.48 309.675 185.526 309.621C185.572 309.566 186.079 309.874 186.737 310.167C187.395 310.459 187.958 310.615 187.947 310.705Z" fill="#FAFAFA"/>
<path d="M192.518 312C192.56 312.066 192.226 312.417 191.709 312.64C191.191 312.862 190.73 312.866 190.72 312.78C190.709 312.694 191.121 312.566 191.607 312.351C192.092 312.137 192.476 311.934 192.518 312Z" fill="#FAFAFA"/>
<path d="M197.705 318.24C197.662 318.17 198.025 317.819 198.408 317.335C198.792 316.851 199.066 316.415 199.137 316.454C199.207 316.493 199.035 317.027 198.619 317.542C198.204 318.057 197.754 318.322 197.705 318.24Z" fill="#FAFAFA"/>
<path d="M201.726 324.512C201.67 324.574 201.086 324.02 200.421 323.279C199.756 322.538 199.26 321.883 199.316 321.825C199.372 321.766 199.956 322.316 200.621 323.057C201.286 323.798 201.779 324.449 201.726 324.512Z" fill="#FAFAFA"/>
<path d="M204.693 318.154C204.76 318.201 204.446 318.879 203.989 319.667C203.531 320.455 203.12 321.063 203.053 321.016C202.986 320.97 203.299 320.291 203.757 319.503C204.214 318.715 204.629 318.107 204.693 318.154Z" fill="#FAFAFA"/>
<path d="M209.433 324.09C209.362 324.133 209.105 323.77 208.855 323.279C208.606 322.787 208.454 322.354 208.521 322.315C208.588 322.276 208.848 322.635 209.098 323.127C209.348 323.618 209.499 324.063 209.433 324.09Z" fill="#FAFAFA"/>
<path d="M210.143 316.964C210.076 317.015 209.823 316.719 209.577 316.309C209.33 315.9 209.179 315.529 209.246 315.478C209.313 315.428 209.563 315.724 209.809 316.137C210.055 316.551 210.206 316.917 210.143 316.964Z" fill="#FAFAFA"/>
<path d="M214.94 322.07C214.996 322.132 214.693 322.569 214.26 323.053C213.828 323.536 213.437 323.875 213.381 323.833C213.324 323.79 213.631 323.329 214.063 322.85C214.496 322.37 214.887 322.011 214.94 322.07Z" fill="#FAFAFA"/>
<path d="M214.894 319.223C214.894 319.309 214.471 319.445 213.926 319.527C213.38 319.609 212.934 319.605 212.923 319.527C212.912 319.449 213.345 319.309 213.891 319.227C214.436 319.145 214.883 319.137 214.894 319.223Z" fill="#FAFAFA"/>
<path d="M217.328 316.255C217.286 316.294 217.033 315.865 216.762 315.319C216.568 314.99 216.428 314.626 216.347 314.243C216.389 314.204 216.642 314.633 216.913 315.179C217.107 315.508 217.248 315.872 217.328 316.255Z" fill="#FAFAFA"/>
<path d="M219.644 320.236C219.7 320.295 219.461 320.693 219.109 321.126C218.757 321.558 218.426 321.863 218.37 321.804C218.314 321.746 218.55 321.348 218.901 320.915C219.253 320.482 219.57 320.19 219.644 320.236Z" fill="#FAFAFA"/>
<path d="M222.237 314.777C222.171 314.828 221.854 314.41 221.368 314.04C220.883 313.669 220.429 313.474 220.446 313.384C220.464 313.295 220.999 313.384 221.53 313.775C222.061 314.165 222.301 314.73 222.237 314.777Z" fill="#FAFAFA"/>
<path d="M226.607 314.461C226.667 314.511 226.438 314.975 226.094 315.498C225.749 316.021 225.418 316.399 225.355 316.348C225.291 316.297 225.524 315.833 225.868 315.315C226.213 314.796 226.54 314.41 226.607 314.461Z" fill="#FAFAFA"/>
<path d="M227.015 311.883C226.945 311.914 226.664 311.283 226.361 310.467C226.058 309.652 225.893 308.97 225.963 308.939C226.034 308.907 226.315 309.539 226.621 310.354C226.927 311.169 227.089 311.852 227.015 311.883Z" fill="#FAFAFA"/>
<path d="M230.397 308.135C230.334 308.085 230.605 307.558 231.003 306.965C231.4 306.372 231.773 305.916 231.833 305.967C231.893 306.017 231.625 306.548 231.228 307.137C230.83 307.726 230.457 308.186 230.397 308.135Z" fill="#FAFAFA"/>
<path d="M234.064 309.683C234.039 309.769 233.529 309.66 232.896 309.644C232.262 309.629 231.749 309.711 231.731 309.625C231.713 309.539 232.227 309.313 232.903 309.332C233.578 309.352 234.089 309.609 234.064 309.683Z" fill="#FAFAFA"/>
<path d="M181.567 294.84L181.215 290.32C180.716 286.175 176.268 286.756 176.905 290.882C177.542 295.008 181.17 294.782 181.17 294.782L181.567 294.84Z" fill="#FC9D9D"/>
<path opacity="0.2" d="M180.318 347.073C180.318 347.073 181.585 344.378 183.485 343.228L180.318 347.073Z" fill="black"/>
<path opacity="0.15" d="M177.922 289.095C177.959 289.152 178.013 289.192 178.075 289.208C178.136 289.224 178.201 289.214 178.256 289.181C178.361 289.093 178.481 289.028 178.608 288.992C178.736 288.955 178.868 288.946 178.999 288.967C179.248 289.072 179.449 289.283 179.558 289.552C179.742 289.965 179.836 290.421 179.833 290.882L179.854 291.353C179.854 291.743 180.336 291.658 180.332 291.353V290.924C180.352 290.361 180.23 289.802 179.981 289.31C179.903 289.113 179.787 288.937 179.642 288.795C179.497 288.653 179.325 288.548 179.14 288.487C178.949 288.447 178.754 288.451 178.565 288.501C178.377 288.549 178.199 288.642 178.045 288.772C177.998 288.806 177.961 288.855 177.939 288.912C177.917 288.97 177.911 289.034 177.922 289.095Z" fill="black"/>
<path d="M179.488 293.28C179.496 293.128 179.543 292.982 179.625 292.859C179.707 292.736 179.819 292.643 179.948 292.59C180.077 292.538 180.217 292.529 180.351 292.564C180.485 292.598 180.607 292.676 180.702 292.786C180.796 292.897 180.859 293.036 180.884 293.186C180.908 293.336 180.892 293.491 180.837 293.631C180.783 293.771 180.693 293.89 180.578 293.974C180.464 294.058 180.329 294.102 180.192 294.103C180.001 294.096 179.819 294.005 179.688 293.851C179.556 293.697 179.484 293.492 179.488 293.28Z" fill="#F3603C"/>
<path opacity="0.15" d="M180.607 294.01C180.487 294.116 180.334 294.166 180.181 294.15C180.084 294.15 179.988 294.128 179.898 294.085C179.809 294.042 179.729 293.979 179.662 293.9C179.596 293.821 179.546 293.727 179.514 293.625C179.482 293.523 179.47 293.415 179.477 293.308C179.49 293.176 179.528 293.049 179.588 292.935C179.649 292.822 179.731 292.724 179.829 292.648C179.748 292.784 179.697 292.939 179.681 293.101C179.675 293.217 179.69 293.334 179.725 293.444C179.76 293.553 179.815 293.654 179.886 293.74C179.957 293.827 180.042 293.896 180.138 293.945C180.233 293.994 180.336 294.021 180.441 294.025C180.47 293.99 180.54 293.998 180.607 294.01Z" fill="black"/>
<path opacity="0.15" d="M187.081 324.141L184.734 341.39H191.772L190.913 342.17L182.975 343.145L186.846 324.09C186.857 324.062 186.877 324.039 186.901 324.024C186.926 324.01 186.954 324.005 186.982 324.011C187.009 324.017 187.034 324.033 187.052 324.057C187.07 324.08 187.08 324.11 187.081 324.141Z" fill="black"/>
<path opacity="0.15" d="M181.216 355.251L205.449 349.401L205.192 347.276L178.971 351.308C170.505 351.242 170.951 343.243 170.951 343.243L170.6 345.435C170.6 345.435 167.63 358.82 181.216 355.251Z" fill="black"/>
<path opacity="0.15" d="M161.824 353.46L171.159 321.441C170.892 322.221 170.649 323.001 170.434 323.781L165.381 336.823L157.239 360.359C156.972 364.092 159.931 365.117 164.227 364.412L164.906 364.267C159.136 363.433 161.824 353.46 161.824 353.46Z" fill="black"/>
<path opacity="0.15" d="M174.607 322.814L171.324 340.872" stroke="black" stroke-width="0.72" stroke-miterlimit="10"/>
<path d="M343.603 415.842V417.402H371.309V415.682L343.603 415.842Z" fill="black"/>
<path d="M370.69 412.191L350.77 412.749L358.715 406.478C359.359 405.979 359.887 405.316 360.257 404.547C360.626 403.779 360.83 402.925 360.848 402.055L361.2 395.035L372.009 395.078L370.69 412.191Z" fill="#FC9D9D"/>
<path opacity="0.15" d="M361.003 400.039L360.422 404.895L362.013 408.069L364.043 403.518C364.208 403.147 364.458 402.828 364.764 402.59C365.074 402.356 365.429 402.207 365.802 402.168L371.432 401.548L371.728 400.039H361.003Z" fill="black"/>
<path d="M343.603 415.841V415.369C343.602 414.995 343.668 414.628 343.796 414.285C343.925 413.938 344.113 413.626 344.351 413.365C344.588 413.099 344.871 412.893 345.181 412.748C345.492 412.608 345.825 412.534 346.161 412.534H349.725C350.479 412.542 351.203 412.218 351.741 411.633L360.848 402.055L363.663 406.177C363.885 406.501 364.17 406.762 364.493 406.945C364.821 407.129 365.18 407.226 365.545 407.238C365.911 407.246 366.27 407.16 366.605 406.992C366.935 406.824 367.231 406.575 367.463 406.263C367.692 405.962 367.977 405.717 368.297 405.549C368.617 405.377 368.966 405.284 369.321 405.276H371.221V415.67L343.603 415.841Z" fill="#3F4249"/>
<path d="M362.667 404.632L356.506 410.174C356.175 410.467 355.763 410.615 355.341 410.591C354.919 410.568 354.517 410.373 354.218 410.045L353.754 409.527L360.848 402.054C361.031 401.996 361.228 402 361.407 402.07C361.587 402.14 361.745 402.273 361.854 402.444L362.589 403.614C362.684 403.747 362.744 403.903 362.765 404.067C362.787 404.234 362.765 404.402 362.706 404.558L362.667 404.632Z" fill="black"/>
<path d="M355.615 406.61L358.367 409.485" stroke="white" stroke-width="1.45" stroke-linecap="round" stroke-linejoin="round"/>
<path d="M357.086 405.104L359.901 408.068" stroke="white" stroke-width="1.45" stroke-linecap="round" stroke-linejoin="round"/>
<path d="M358.599 403.689L361.39 406.611" stroke="white" stroke-width="1.45" stroke-linecap="round" stroke-linejoin="round"/>
<path opacity="0.3" d="M349.989 412.522L349.285 417.39H346.044L346.871 412.534L349.989 412.522Z" fill="black"/>
<path d="M346.72 412.191L326.804 412.749L334.746 406.478C335.39 405.979 335.918 405.316 336.289 404.547C336.659 403.779 336.861 402.925 336.878 402.055L337.23 395.035L348.04 395.078L346.72 412.191Z" fill="#FC9D9D"/>
<path opacity="0.15" d="M347.765 400.039H337.033L336.561 405.109L339.134 409.758L339.458 404.508C339.584 403.935 339.863 403.42 340.258 403.026C340.652 402.629 341.145 402.375 341.671 402.293L347.603 401.747L347.765 400.039Z" fill="black"/>
<path d="M319.633 415.841V415.369C319.633 414.617 319.902 413.895 320.382 413.365C320.862 412.834 321.513 412.534 322.191 412.534H325.755C326.509 412.542 327.234 412.218 327.772 411.633L336.878 402.055L339.693 406.177C339.915 406.501 340.198 406.762 340.524 406.945C340.849 407.129 341.208 407.226 341.573 407.238C341.938 407.246 342.3 407.16 342.632 406.992C342.964 406.824 343.257 406.575 343.49 406.263C343.72 405.962 344.004 405.717 344.325 405.549C344.646 405.377 344.996 405.284 345.351 405.276H347.248V415.67L319.633 415.841Z" fill="#3F4249"/>
<path d="M319.633 415.842V417.402H347.34V415.682L319.633 415.842Z" fill="black"/>
<path d="M338.697 404.632L332.522 410.174C332.194 410.467 331.779 410.615 331.358 410.591C330.937 410.568 330.538 410.373 330.238 410.045L329.774 409.527L336.864 402.054C337.048 401.996 337.243 402 337.423 402.07C337.604 402.14 337.76 402.273 337.87 402.444L338.606 403.614C338.701 403.743 338.763 403.903 338.783 404.067C338.804 404.234 338.782 404.406 338.722 404.558L338.697 404.632Z" fill="black"/>
<path d="M331.646 406.61L334.397 409.485" stroke="white" stroke-width="1.45" stroke-linecap="round" stroke-linejoin="round"/>
<path d="M333.12 405.104L335.935 408.068" stroke="white" stroke-width="1.45" stroke-linecap="round" stroke-linejoin="round"/>
<path d="M334.633 403.689L337.423 406.611" stroke="white" stroke-width="1.45" stroke-linecap="round" stroke-linejoin="round"/>
<path d="M379.353 284.501L371.914 400.155H360.045L358.824 321.847L370.88 285.304L379.353 284.501Z" fill="#F3603C"/>
<path opacity="0.2" d="M370.876 285.304L358.821 321.847L360.042 400.155H362.723L364.096 326.36L375.004 303.014C377.425 298.451 378.924 291.314 378.924 291.314L379.364 284.505L370.876 285.304Z" fill="black"/>
<path d="M350.334 284.08L333.131 335.368C332.625 336.775 332.422 338.294 332.539 339.803L335.991 400.108H347.916L348.096 340.672L371.647 303.209C371.647 303.209 380.092 293.014 378.515 281.911L350.334 284.08Z" fill="#F3603C"/>
<path opacity="0.2" d="M355.003 286.459L349.996 285.023L333.131 335.369C332.625 336.775 332.422 338.294 332.539 339.803L335.991 400.109H339.461L336.146 339.635C336.059 338.495 336.23 337.349 336.642 336.301L355.003 286.459Z" fill="black"/>
<path d="M375.767 192.843L375.416 201.107L376.7 214.192L364.701 216.532L364.191 208.369L361.235 208.935C361.136 208.958 361.034 208.981 360.932 208.997C359.011 209.305 357.875 209.192 357.245 205.818L356.71 201.716L355.506 201.193L355.44 201.158C355.281 201.059 355.165 200.897 355.112 200.704C355.06 200.511 355.077 200.304 355.158 200.124L356.808 196.755V196.56L356.668 196.084C356.087 194.082 356.02 191.941 356.471 189.899C357.174 187.001 359.286 183.986 361.904 183.269L363.962 182.711C365.545 182.282 368.382 182.212 369.831 183.035L371.355 183.9C373.621 185.187 375.479 188.818 375.739 191.587C375.778 192.005 375.789 192.424 375.767 192.843Z" fill="#FC9D9D"/>
<path d="M375.405 201.107L375.757 192.843C375.781 192.424 375.774 192.004 375.736 191.587C375.475 188.818 373.624 185.187 371.351 183.9L369.972 183.12C368.441 182.254 365.471 182.305 363.8 182.758L361.9 183.272C359.806 183.842 358.068 186.151 357.079 188.21L361.77 188.6C362.012 188.661 362.238 188.799 362.41 188.997C362.586 189.194 362.706 189.444 362.758 189.715L362.962 190.741C363.198 192.098 364.081 192.691 365.327 192.855L366.569 192.944L366.833 197.347C366.854 197.519 366.932 197.678 367.048 197.794C367.164 197.911 367.312 197.977 367.47 197.983C367.554 197.984 367.635 197.966 367.713 197.931C367.79 197.896 367.861 197.844 367.92 197.779C367.98 197.714 368.029 197.636 368.061 197.551C368.093 197.466 368.11 197.374 368.11 197.281V196.337L371.052 196.727L371.46 199.372C372.442 201.505 375.387 201.758 375.475 201.766L375.405 201.107Z" fill="#868A91"/>
<path opacity="0.15" d="M364.303 211.212L366.833 208.412C366.882 208.347 366.914 208.269 366.928 208.186C366.942 208.103 366.939 208.017 366.914 207.936C366.896 207.874 366.865 207.816 366.826 207.766C366.787 207.716 366.742 207.676 366.689 207.646C366.636 207.617 366.576 207.599 366.52 207.595C366.46 207.591 366.4 207.599 366.344 207.621L364.205 208.334L364.303 211.212Z" fill="black"/>
<path opacity="0.15" d="M373.184 201.213L370.486 200.796C370.862 200.372 371.189 199.898 371.457 199.384C371.619 199.803 371.854 200.181 372.15 200.495C372.449 200.81 372.801 201.054 373.184 201.213Z" fill="black"/>
<path d="M358.891 196.947C358.895 196.467 358.578 196.074 358.188 196.07C357.793 196.066 357.473 196.453 357.47 196.933C357.466 197.413 357.779 197.805 358.174 197.81C358.564 197.814 358.888 197.428 358.891 196.947Z" fill="#21252B"/>
<path d="M357.766 196.685C357.826 196.685 357.872 196.633 357.872 196.568C357.872 196.503 357.826 196.451 357.766 196.451C357.706 196.451 357.66 196.503 357.66 196.568C357.66 196.633 357.706 196.685 357.766 196.685Z" fill="white"/>
<path d="M368.061 201.716L368.104 196.513C368.111 195.96 368.315 195.432 368.67 195.045C369.025 194.657 369.504 194.44 370.004 194.442C370.503 194.449 370.978 194.675 371.33 195.069C371.679 195.464 371.876 195.995 371.872 196.548V197.574C371.869 198.122 371.767 198.665 371.573 199.17C371.379 199.675 371.098 200.133 370.746 200.517C370.394 200.902 369.975 201.206 369.518 201.411C369.057 201.617 368.568 201.721 368.072 201.716H368.061Z" fill="#FC9D9D"/>
<g opacity="0.3">
<path opacity="0.3" d="M368.811 197.621V196.755C368.818 196.39 368.951 196.042 369.187 195.786C369.423 195.531 369.736 195.387 370.067 195.386C370.25 195.383 370.429 195.425 370.595 195.508C370.757 195.592 370.904 195.715 371.02 195.87L371.045 195.905C371.07 195.937 371.084 195.975 371.094 196.015C371.105 196.056 371.105 196.098 371.098 196.139C371.094 196.18 371.08 196.219 371.063 196.254C371.042 196.29 371.017 196.32 370.985 196.344C370.954 196.368 370.918 196.385 370.883 196.394C370.848 196.402 370.809 196.403 370.771 196.395C370.735 196.387 370.7 196.371 370.669 196.348C370.637 196.324 370.612 196.294 370.591 196.26C370.528 196.169 370.447 196.096 370.355 196.047C370.26 195.999 370.158 195.975 370.056 195.979C369.87 195.979 369.69 196.061 369.56 196.207C369.426 196.354 369.353 196.552 369.353 196.759V197.628C369.349 197.711 369.314 197.788 369.261 197.845C369.208 197.903 369.138 197.937 369.064 197.94C369.025 197.948 368.987 197.944 368.951 197.93C368.916 197.915 368.881 197.891 368.856 197.859C368.832 197.827 368.814 197.788 368.807 197.747C368.797 197.705 368.8 197.662 368.811 197.621Z" fill="#21252B"/>
</g>
<path d="M356.875 203.303C357.477 203.255 358.072 203.105 358.635 202.859C358.663 202.844 358.698 202.841 358.73 202.85C358.761 202.859 358.789 202.88 358.811 202.909C358.828 202.937 358.839 202.973 358.839 203.01C358.835 203.046 358.825 203.081 358.804 203.108C358.339 203.751 357.72 204.237 357.02 204.512L356.875 203.303Z" fill="white"/>
<path d="M359.842 194.419C357.889 193.354 356.932 194.107 356.932 194.107L356.875 194.349C356.875 194.349 358.691 194.08 359.662 194.567L359.842 194.419Z" fill="#868A91"/>
<path d="M326.748 217.401C326.748 217.401 326.009 213.326 325.956 212.019C325.917 211.017 323.169 208.876 321.895 207.94C321.821 207.885 321.736 207.85 321.648 207.837C321.559 207.824 321.47 207.835 321.385 207.867C321.301 207.899 321.224 207.952 321.161 208.022C321.098 208.092 321.051 208.178 321.023 208.271C320.989 208.385 320.985 208.507 321.01 208.623C321.034 208.739 321.088 208.845 321.163 208.93L323.373 211.38C323.373 211.38 323.567 212.089 323.021 211.891C322.476 211.692 316.586 207.37 316.586 207.37C315.326 206.446 314.928 207.328 314.928 207.328C314.928 207.328 314.084 206.665 313.626 207.257C313.334 207.647 313.904 208.661 313.904 208.661C313.904 208.661 313.109 207.78 312.444 208.303C311.779 208.825 313.193 210.526 313.193 210.526C312.75 211.672 315.424 214.987 316.114 215.9C316.804 216.812 324.01 223.232 324.01 223.232L328.053 219.277L326.748 217.401Z" fill="#FC9D9D"/>
<g opacity="0.15">
<path opacity="0.15" d="M320.628 212.71C320.285 212.557 319.958 212.36 319.657 212.121C318.908 211.586 318.194 210.991 317.521 210.343C316.847 209.698 316.208 209.009 315.607 208.28C315.342 207.992 315.106 207.673 314.903 207.328C315.187 207.587 315.454 207.869 315.702 208.171C316.188 208.701 316.86 209.426 317.644 210.175C318.429 210.924 319.175 211.556 319.728 211.989C320.041 212.208 320.342 212.448 320.628 212.71Z" fill="black"/>
</g>
<g opacity="0.15">
<path opacity="0.15" d="M319.263 214.184C318.96 213.984 318.675 213.753 318.412 213.493C317.901 213.041 317.205 212.405 316.466 211.664C315.727 210.923 315.093 210.206 314.657 209.664C314.405 209.387 314.183 209.08 313.996 208.747C314.268 208.996 314.523 209.267 314.759 209.558C315.22 210.069 315.864 210.759 316.599 211.508L318.503 213.38C318.779 213.621 319.033 213.89 319.263 214.184Z" fill="black"/>
</g>
<g opacity="0.15">
<path opacity="0.15" d="M317.666 215.486C317.378 215.348 317.109 215.165 316.867 214.944C316.258 214.449 315.687 213.898 315.16 213.298C314.633 212.699 314.141 212.062 313.689 211.391C313.487 211.127 313.314 210.836 313.176 210.525C313.225 210.483 314.08 211.75 315.305 213.142C315.826 213.735 316.375 214.296 316.951 214.823C317.204 215.024 317.443 215.246 317.666 215.486Z" fill="black"/>
</g>
<path d="M381.035 231.395L378.044 264.272C378.044 264.272 377.973 264.112 380.233 275.788C380.901 279.248 380.131 284.524 380.131 284.524L348.11 286.989C348.11 286.989 349.517 245.536 351.417 238.407C354.123 228.345 363.698 216.657 363.698 216.657L363.828 214.527C363.835 214.393 363.891 214.267 363.979 214.174C364.067 214.082 364.184 214.03 364.307 214.028L376.974 213.755C377.094 213.752 377.21 213.798 377.298 213.883C377.389 213.969 377.449 214.088 377.463 214.219L377.815 216.949C377.815 216.949 382.759 223.162 381.035 231.395Z" fill="#3F4249"/>
<path opacity="0.3" d="M353.93 245.31C360.225 244.237 369.089 239.347 369.089 239.347L351.467 238.22C351.467 238.278 351.435 238.337 351.417 238.395C349.503 245.524 348.11 286.978 348.11 286.978L355.003 286.447L353.796 275.071C353.082 268.304 352.931 261.479 353.353 254.682L353.93 245.31Z" fill="black"/>
<path opacity="0.3" d="M358.047 224.659C362.079 223.766 365.827 222.799 369.909 222.245L375.275 221.801L356.375 227.261L358.047 224.659Z" fill="black"/>
<path d="M344.633 243.485L367.586 239.663C370.968 239.103 374.205 237.762 377.087 235.728C377.611 235.359 378.065 234.879 378.42 234.315C378.776 233.752 379.029 233.116 379.163 232.444C379.645 230.014 380.095 226.204 378.66 224.499C376.457 221.89 376.499 221.064 374.613 220.806L346.882 230.747L326.505 215.623L321.638 222.039L340.316 241.219C340.777 242.001 341.424 242.626 342.187 243.026C342.948 243.426 343.795 243.584 344.633 243.485Z" fill="#3F4249"/>
<g opacity="0.3">
<path opacity="0.3" d="M379.173 233.243C379.187 233.199 379.198 233.153 379.205 233.107C379.226 232.986 379.251 232.857 379.279 232.717C379.335 232.378 379.416 231.886 379.494 231.27C379.729 229.668 379.694 228.031 379.381 226.446C379.033 224.85 378.174 223.449 376.96 222.507C376.591 222.232 376.179 222.027 375.75 221.898C375.595 221.851 375.437 221.818 375.275 221.801C375.859 221.952 376.411 222.216 376.911 222.581C378.09 223.528 378.927 224.911 379.268 226.481C379.575 228.051 379.624 229.669 379.413 231.258C379.346 231.871 379.279 232.366 379.233 232.709C379.233 232.85 379.198 232.978 379.18 233.099C379.163 233.22 379.166 233.24 379.173 233.243Z" fill="black"/>
</g>
<g opacity="0.3">
<path opacity="0.3" d="M345.14 235.611C345.165 235.542 345.181 235.47 345.186 235.396C345.218 235.209 345.249 235.006 345.288 234.804C345.524 233.504 345.978 232.265 346.629 231.153L346.931 230.646C346.975 230.589 347.01 230.524 347.037 230.455C346.982 230.505 346.933 230.562 346.892 230.627C346.768 230.783 346.65 230.948 346.541 231.118C346.196 231.665 345.907 232.252 345.678 232.869C345.454 233.483 345.292 234.123 345.196 234.776C345.161 235.03 345.14 235.237 345.133 235.381C345.126 235.458 345.128 235.535 345.14 235.611Z" fill="black"/>
</g>
<path opacity="0.3" d="M364.191 216.536C364.191 216.536 373.617 215.034 377.446 216.762" stroke="black" stroke-width="0.69" stroke-miterlimit="10"/>
<path opacity="0.15" d="M358.167 201.446C358.167 201.446 359.863 202.254 360.348 204.129" stroke="black" stroke-width="0.69" stroke-miterlimit="10" stroke-linecap="round"/>
<path d="M355.084 251.039C355.021 251.066 354.761 250.504 354.5 249.787C354.24 249.069 354.088 248.457 354.148 248.43C354.208 248.402 354.472 248.964 354.729 249.685C354.986 250.407 355.148 251.011 355.084 251.039Z" fill="#FAFAFA"/>
<path d="M359.306 261.179C359.243 261.207 358.983 260.645 358.722 259.927C358.462 259.21 358.311 258.598 358.37 258.57C358.43 258.543 358.694 259.105 358.951 259.826C359.208 260.548 359.37 261.152 359.306 261.179Z" fill="#FAFAFA"/>
<path d="M357.984 245.174C357.924 245.143 358.096 244.542 358.374 243.832C358.652 243.123 358.927 242.569 358.99 242.6C359.053 242.631 358.877 243.228 358.603 243.941C358.328 244.655 358.047 245.205 357.984 245.174Z" fill="#FAFAFA"/>
<path d="M360.798 237.373C360.739 237.342 360.911 236.741 361.189 236.032C361.467 235.322 361.741 234.768 361.805 234.799C361.868 234.83 361.692 235.427 361.418 236.141C361.143 236.854 360.862 237.404 360.798 237.373Z" fill="#FAFAFA"/>
<path d="M328.426 225.674C328.366 225.643 328.539 225.042 328.817 224.332C329.095 223.622 329.369 223.069 329.432 223.1C329.496 223.131 329.32 223.728 329.045 224.441C328.771 225.155 328.489 225.705 328.426 225.674Z" fill="#FAFAFA"/>
<path d="M361.34 251.351C361.302 251.293 361.724 250.868 362.283 250.403C362.843 249.939 363.339 249.623 363.374 249.678C363.409 249.733 362.994 250.162 362.431 250.626C361.868 251.09 361.376 251.414 361.34 251.351Z" fill="#FAFAFA"/>
<path d="M350.946 258.434C350.886 258.403 351.059 257.802 351.337 257.092C351.614 256.382 351.889 255.828 351.952 255.86C352.016 255.891 351.84 256.488 351.565 257.201C351.291 257.915 351.009 258.465 350.946 258.434Z" fill="#FAFAFA"/>
<path d="M367.896 256.952C367.864 256.886 368.357 256.562 368.99 256.242C369.624 255.922 370.166 255.708 370.194 255.778C370.222 255.848 369.729 256.168 369.096 256.492C368.462 256.815 367.924 257.01 367.896 256.952Z" fill="#FAFAFA"/>
<path d="M351.565 276.779C351.502 276.806 351.242 276.245 350.981 275.527C350.721 274.809 350.57 274.197 350.629 274.17C350.689 274.143 350.953 274.704 351.21 275.426C351.467 276.147 351.629 276.752 351.565 276.779Z" fill="#FAFAFA"/>
<path d="M353.599 266.951C353.56 266.892 353.983 266.467 354.542 266.003C355.102 265.539 355.598 265.223 355.633 265.278C355.668 265.332 355.253 265.761 354.69 266.225C354.127 266.689 353.634 267.013 353.599 266.951Z" fill="#FAFAFA"/>
<path d="M360.155 272.551C360.123 272.485 360.616 272.161 361.249 271.842C361.882 271.522 362.424 271.307 362.453 271.378C362.481 271.448 361.988 271.768 361.355 272.091C360.721 272.415 360.183 272.61 360.155 272.551Z" fill="#FAFAFA"/>
<path d="M353.469 284.641C353.437 284.575 353.93 284.251 354.563 283.932C355.197 283.612 355.739 283.397 355.767 283.467C355.795 283.538 355.302 283.857 354.669 284.181C354.035 284.505 353.497 284.7 353.469 284.641Z" fill="#FAFAFA"/>
<path d="M367.358 266.725C367.301 266.768 366.932 266.285 366.534 265.649C366.137 265.013 365.862 264.479 365.918 264.416C365.975 264.354 366.341 264.853 366.738 265.493C367.136 266.132 367.428 266.682 367.358 266.725Z" fill="#FAFAFA"/>
<path d="M371.767 239.401C371.735 239.335 372.228 239.011 372.861 238.691C373.494 238.372 374.036 238.157 374.064 238.227C374.092 238.297 373.6 238.617 372.966 238.941C372.333 239.265 371.795 239.46 371.767 239.401Z" fill="#FAFAFA"/>
<path d="M371.228 249.174C371.172 249.217 370.802 248.734 370.405 248.098C370.007 247.462 369.733 246.928 369.789 246.866C369.845 246.803 370.211 247.302 370.609 247.942C371.006 248.582 371.299 249.132 371.228 249.174Z" fill="#FAFAFA"/>
<path d="M350.819 234.355C350.763 234.398 350.393 233.914 349.996 233.279C349.598 232.643 349.324 232.109 349.38 232.046C349.436 231.984 349.802 232.483 350.2 233.123C350.597 233.762 350.89 234.312 350.819 234.355Z" fill="#FAFAFA"/>
<path d="M360.507 283.082C360.475 283.015 360.968 282.692 361.601 282.372C362.234 282.052 362.776 281.838 362.804 281.908C362.833 281.978 362.34 282.298 361.706 282.622C361.073 282.945 360.535 283.14 360.507 283.082Z" fill="#FAFAFA"/>
<path d="M367.709 277.255C367.653 277.297 367.284 276.814 366.886 276.178C366.488 275.542 366.214 275.008 366.27 274.946C366.327 274.883 366.692 275.383 367.09 276.022C367.488 276.662 367.78 277.212 367.709 277.255Z" fill="#FAFAFA"/>
<path d="M373.667 264.066C373.688 263.995 374.244 264.128 374.909 264.37C375.574 264.612 376.095 264.861 376.073 264.931C376.052 265.002 375.496 264.869 374.831 264.631C374.166 264.393 373.646 264.14 373.667 264.066Z" fill="#FAFAFA"/>
<path d="M376.13 247.295C376.151 247.225 376.707 247.357 377.372 247.599C378.037 247.841 378.558 248.091 378.537 248.161C378.515 248.231 377.959 248.099 377.294 247.861C376.629 247.623 376.109 247.369 376.13 247.295Z" fill="#FAFAFA"/>
<path d="M340.59 237.935C340.611 237.865 341.167 237.997 341.832 238.239C342.497 238.481 343.018 238.73 342.997 238.801C342.976 238.871 342.42 238.738 341.755 238.5C341.09 238.262 340.569 238.009 340.59 237.935Z" fill="#FAFAFA"/>
<path d="M363.673 220.681C363.642 220.615 364.134 220.291 364.768 219.972C365.401 219.652 365.943 219.437 365.971 219.507C365.999 219.578 365.507 219.897 364.873 220.221C364.24 220.545 363.701 220.74 363.673 220.681Z" fill="#FAFAFA"/>
<path d="M368.037 228.575C368.058 228.505 368.614 228.638 369.279 228.88C369.944 229.121 370.465 229.371 370.444 229.441C370.422 229.511 369.866 229.379 369.201 229.141C368.536 228.903 368.016 228.649 368.037 228.575Z" fill="#FAFAFA"/>
<path d="M336.368 227.405C336.389 227.335 336.945 227.468 337.61 227.71C338.275 227.951 338.796 228.201 338.775 228.271C338.754 228.341 338.197 228.209 337.532 227.971C336.867 227.733 336.346 227.48 336.368 227.405Z" fill="#FAFAFA"/>
<path d="M375.074 219.605C375.095 219.534 375.651 219.667 376.316 219.909C376.981 220.151 377.502 220.4 377.481 220.47C377.46 220.541 376.904 220.408 376.239 220.17C375.574 219.932 375.053 219.679 375.074 219.605Z" fill="#FAFAFA"/>
<path d="M373.667 283.175C373.688 283.105 374.244 283.237 374.909 283.479C375.574 283.721 376.095 283.971 376.073 284.041C376.052 284.111 375.496 283.978 374.831 283.74C374.166 283.503 373.646 283.249 373.667 283.175Z" fill="#FAFAFA"/>
<path d="M376.154 272.567C376.221 272.586 376.154 273.21 375.968 273.959C375.781 274.708 375.616 275.309 375.539 275.289C375.461 275.27 375.539 274.646 375.725 273.893C375.912 273.14 376.087 272.547 376.154 272.567Z" fill="#FAFAFA"/>
<path d="M121.749 399.454C121.749 399.454 124.039 379.197 129.293 368.133" stroke="#868A91" stroke-width="0.59" stroke-miterlimit="10"/>
<path d="M117.878 364.65C117.878 364.65 121.446 380.952 120.883 392.227" stroke="#868A91" stroke-width="0.59" stroke-miterlimit="10"/>
<path d="M128.786 369.131C128.786 369.131 128.825 358.188 137.456 357.564C137.456 357.525 138.16 367.134 128.786 369.131Z" fill="#F3603C"/>
<path d="M108.107 366.76C108.107 366.76 105.781 356.358 95.5728 359.311C95.5728 359.311 97.5257 366.924 108.107 366.76Z" fill="#F3603C"/>
<path d="M119.18 371.042C119.18 371.042 122.22 362.181 115.165 357.568C115.165 357.525 112.047 366.261 119.18 371.042Z" fill="#F3603C"/>
<path d="M108.106 366.76C108.106 366.76 117.491 378.655 117.491 399.453" stroke="#868A91" stroke-width="0.59" stroke-miterlimit="10"/>
<path d="M124.62 365.138C122.558 374.287 121.657 376.284 120.454 399.458" stroke="#868A91" stroke-width="0.59" stroke-miterlimit="10"/>
<path d="M100.341 352.451C104.468 354.53 117.491 369.67 115.313 399.08" stroke="#868A91" stroke-width="0.59" stroke-miterlimit="10"/>
<path d="M113.737 399.08C113.737 399.08 116.439 378.698 105.067 371.916" stroke="#868A91" stroke-width="0.59" stroke-miterlimit="10"/>
<path d="M122.101 396.372C122.962 394.009 124.389 391.954 126.228 390.425" stroke="#868A91" stroke-width="0.59" stroke-miterlimit="10"/>
<path d="M123.121 390.051C123.121 390.051 129.536 383.772 132.766 382.73" stroke="#868A91" stroke-width="0.59" stroke-miterlimit="10"/>
<path d="M110.172 377.076C110.172 377.076 107.656 366.386 97.5996 368.886C97.5996 368.886 99.3273 377.992 110.172 377.076Z" fill="#F3603C"/>
<g opacity="0.4">
<g opacity="0.4">
<path opacity="0.4" d="M110.172 377.076C110.172 377.076 107.656 366.386 97.5996 368.886C97.5996 368.886 99.3273 377.992 110.172 377.076Z" fill="white"/>
</g>
</g>
<path d="M115.313 388.05C115.313 388.05 113.589 380.437 104.405 382.98C104.44 382.937 107.441 390.55 115.313 388.05Z" fill="#F3603C"/>
<path d="M121.58 383.105C121.58 383.105 122.453 371.167 133.663 369.72C133.628 369.72 134.191 381.42 121.58 383.112" fill="#F3603C"/>
<path d="M118.991 346.749C118.991 346.749 118.54 390.885 118.466 399.454" stroke="#868A91" stroke-width="0.59" stroke-miterlimit="10"/>
<path d="M120.644 379.946C120.644 379.946 111.073 380.484 111.073 368.757C111.073 368.757 120.341 368.878 120.644 379.946Z" fill="#F3603C"/>
<g opacity="0.4">
<g opacity="0.4">
<path opacity="0.4" d="M120.644 379.946C120.644 379.946 111.073 380.484 111.073 368.757C111.073 368.757 120.341 368.878 120.644 379.946Z" fill="white"/>
</g>
</g>
<path d="M129.726 384.478C129.726 384.478 132.315 376.409 140.57 378.449C140.532 378.449 139.18 385.27 129.726 384.478Z" fill="#F3603C"/>
<g opacity="0.4">
<g opacity="0.4">
<path opacity="0.4" d="M129.726 384.478C129.726 384.478 132.315 376.409 140.57 378.449C140.532 378.449 139.18 385.27 129.726 384.478Z" fill="white"/>
</g>
</g>
<path d="M125.897 399.243H108.934V401.614H125.897V399.243Z" fill="#868A91"/>
<path d="M123.758 417.004H111.073L110.133 401.575H124.697L123.758 417.004Z" fill="#868A91"/>
<path d="M123.758 417.004H111.073L110.133 401.575H124.697L123.758 417.004Z" fill="#868A91"/>
<path d="M125.897 399.243H123.156V401.575H120.605H110.133L110.172 402.238H120.605L120.644 417.004H123.758L124.694 401.575H125.897V399.243Z" fill="#61656D"/>
<path d="M118.878 355.859C118.878 355.859 114.187 347.997 120.306 340.47C120.268 340.47 124.321 348.122 118.878 355.859Z" fill="#F3603C"/>
<g opacity="0.4">
<g opacity="0.4">
<path opacity="0.4" d="M118.878 355.859C118.878 355.859 114.187 347.997 120.306 340.47C120.268 340.47 124.321 348.122 118.878 355.859Z" fill="white"/>
</g>
</g>
<path d="M123.118 371.67C123.118 371.67 117.977 359.482 127.171 351.994C127.171 351.994 133.505 363.019 123.118 371.67Z" fill="#F3603C"/>
<g opacity="0.4">
<g opacity="0.4">
<path opacity="0.4" d="M123.118 371.67C123.118 371.67 117.977 359.482 127.171 351.994C127.171 351.994 133.505 363.019 123.118 371.67Z" fill="white"/>
</g>
</g>
<path d="M124.36 392.503C124.36 392.503 125.598 387.18 132.164 388.303C132.164 388.303 131.077 393.712 124.36 392.503Z" fill="#F3603C"/>
<path d="M115.415 394.918C115.415 394.918 114.007 384.646 122.47 383.437C122.47 383.437 124.497 392.379 115.415 394.918Z" fill="#F3603C"/>
<g opacity="0.4">
<g opacity="0.4">
<path opacity="0.4" d="M115.415 394.918C115.415 394.918 114.007 384.646 122.47 383.437C122.47 383.437 124.497 392.379 115.415 394.918Z" fill="white"/>
</g>
</g>
<path d="M98.0112 350.868C98.0112 350.868 103.117 350.286 104.092 355.735C104.13 355.696 99.5173 356.32 98.0112 350.868Z" fill="#F3603C"/>
<g opacity="0.3">
<g opacity="0.3">
<path opacity="0.3" d="M98.0112 350.868C98.0112 350.868 103.117 350.286 104.092 355.735C104.13 355.696 99.5173 356.32 98.0112 350.868Z" fill="white"/>
</g>
</g>
<path d="M110.489 350.286C110.489 350.286 104.155 357.606 110.341 365.594C110.341 365.594 116.608 357.794 110.489 350.286Z" fill="#F3603C"/>
<g opacity="0.4">
<g opacity="0.4">
<path opacity="0.4" d="M110.489 350.286C110.489 350.286 104.155 357.606 110.341 365.594C110.341 365.594 116.608 357.794 110.489 350.286Z" fill="white"/>
</g>
</g>
<path d="M452.627 357.907H455.386L460.207 342.678H452.627V357.907Z" fill="#DADDDF"/>
<path d="M404.618 376.226V392.461H444.443L449.584 376.226H404.618Z" fill="#DADDDF"/>
<path d="M404.618 358.772V375.359H449.858L451.899 368.916C451.702 368.767 451.54 368.566 451.431 368.331C451.319 368.097 451.262 367.836 451.262 367.571C451.255 367.16 451.392 366.763 451.646 366.464C451.899 366.165 452.251 365.99 452.62 365.976C452.687 365.978 452.758 365.986 452.825 365.999L455.112 358.772H404.618Z" fill="#DADDDF"/>
<path d="M451.892 357.907V342.678H404.618V357.907H451.892ZM427.919 348.302C428.207 348.284 428.492 348.362 428.739 348.526C428.985 348.69 429.182 348.933 429.305 349.222C429.425 349.512 429.467 349.835 429.421 350.151C429.372 350.466 429.242 350.758 429.045 350.99C428.848 351.222 428.591 351.383 428.309 351.452C428.028 351.521 427.736 351.494 427.468 351.376C427.197 351.258 426.969 351.053 426.807 350.789C426.645 350.524 426.561 350.212 426.561 349.893C426.554 349.483 426.691 349.086 426.944 348.788C427.201 348.491 427.549 348.316 427.919 348.302Z" fill="#DADDDF"/>
<path d="M401.852 395.916H410.814H418.432H432.926H440.544H443.348L444.2 393.229H404.026V341.909H460.45L461.4 338.91H401.852V395.916Z" fill="#DADDDF"/>
<path d="M404.026 393.229H444.2L444.443 392.449H404.618V376.225H404.322C404.171 376.225 404.171 375.359 404.322 375.359H404.618V358.773H404.322C404.171 358.773 404.171 357.907 404.322 357.907H404.618V342.677H451.892V342.287L452.627 342.241V342.689H460.207L460.45 341.909H404.026V393.229Z" fill="#B2B6BB"/>
<path d="M452.627 358.555C452.627 358.754 451.892 358.754 451.892 358.555V357.907H404.322C404.171 357.907 404.171 358.773 404.322 358.773H455.112L455.386 357.907H452.627V358.555Z" fill="#B2B6BB"/>
<path d="M451.892 358.554C451.892 358.753 452.628 358.753 452.628 358.554V342.229L451.892 342.275V358.554Z" fill="#B2B6BB"/>
<path d="M404.618 375.359H404.322C404.171 375.359 404.171 376.225 404.322 376.225H449.584L449.858 375.359H404.618Z" fill="#B2B6BB"/>
<path d="M427.919 351.487C428.207 351.505 428.492 351.427 428.739 351.263C428.985 351.099 429.182 350.857 429.305 350.567C429.425 350.278 429.467 349.955 429.421 349.64C429.376 349.325 429.245 349.032 429.045 348.8C428.848 348.568 428.594 348.407 428.313 348.338C428.031 348.268 427.736 348.295 427.468 348.412C427.201 348.53 426.972 348.734 426.81 348.998C426.649 349.261 426.561 349.573 426.561 349.892C426.554 350.303 426.691 350.7 426.944 350.999C427.197 351.298 427.549 351.473 427.919 351.487Z" fill="#B2B6BB"/>
<path d="M451.262 367.571C451.262 367.835 451.319 368.097 451.431 368.331C451.54 368.566 451.702 368.766 451.899 368.916L452.825 365.999C452.758 365.985 452.691 365.978 452.62 365.976C452.251 365.99 451.899 366.165 451.646 366.464C451.392 366.763 451.255 367.16 451.262 367.571Z" fill="#B2B6BB"/>
<path d="M409.861 399.602L405.395 416.875H407.081L412.76 400.175L409.861 399.602Z" fill="#DADDDF"/>
<path d="M408.442 416.875L410.167 413.256L408.414 416.875H408.442Z" fill="#DADDDF"/>
<path d="M410.072 398.786L410.948 395.936H418.422L418.432 395.916H410.814L410.072 398.786Z" fill="#DADDDF"/>
<path d="M430.554 416.875L432.278 413.256L430.526 416.875H430.554Z" fill="#DADDDF"/>
<path d="M427.507 416.875H429.298L433.422 405.908L430.86 404.59L433.06 395.936H440.534L440.544 395.916H432.926L427.507 416.875Z" fill="#DADDDF"/>
<path opacity="0.2" d="M418.562 395.936H418.422L410.167 413.255L418.562 395.936Z" fill="black"/>
<path opacity="0.2" d="M409.822 399.594L409.861 399.602L410.073 398.787L409.822 399.594Z" fill="black"/>
<path opacity="0.2" d="M410.072 398.786L409.86 399.602L412.76 400.175L407.081 416.875H408.414L410.167 413.255L418.422 395.936H410.948L410.072 398.786Z" fill="black"/>
<path opacity="0.2" d="M440.674 395.936H440.533L432.278 413.255L440.674 395.936Z" fill="black"/>
<path d="M430.86 404.59L433.422 405.908L429.298 416.875H430.526L432.278 413.255L440.533 395.936H433.06L430.86 404.59Z" fill="#DADDDF"/>
<path opacity="0.2" d="M430.86 404.59L433.422 405.908L429.298 416.875H430.526L432.278 413.255L440.533 395.936H433.06L430.86 404.59Z" fill="black"/>
</svg>
