<svg width="42" height="42" viewBox="0 0 42 42" fill="none" xmlns="http://www.w3.org/2000/svg">
<path d="M42 4.97172C40.456 5.81626 38.7943 6.38592 37.0508 6.64086C38.831 5.32947 40.196 3.25224 40.8397 0.774242C39.1746 1.99016 37.3313 2.87246 35.3679 3.34875C33.7966 1.2883 31.5569 0 29.0785 0C24.3203 0 20.4625 4.74722 20.4625 10.6033C20.4625 11.4332 20.5383 12.242 20.6858 13.0194C13.5243 12.5767 7.17435 8.35615 2.9243 1.94085C2.18257 3.50612 1.75799 5.32737 1.75799 7.27242C1.75799 10.9506 3.27897 14.1965 5.59113 16.0975C4.17928 16.0419 2.85013 15.5646 1.68808 14.7704C1.68723 14.8145 1.68723 14.8596 1.68723 14.9047C1.68723 20.0411 4.65757 24.3257 8.59984 25.3013C7.87687 25.5426 7.11552 25.6727 6.32946 25.6727C5.77358 25.6727 5.23391 25.6066 4.70787 25.4818C5.80513 29.694 8.98691 32.7605 12.757 32.8455C9.80793 35.6896 6.0933 37.385 2.05554 37.385C1.3607 37.385 0.67438 37.3346 0 37.236C3.81438 40.2459 8.34322 42 13.2088 42C29.0589 42 37.7252 25.8437 37.7252 11.8318C37.7252 11.3723 37.7176 10.9139 37.7014 10.4586C39.3843 8.96673 40.8456 7.09827 42 4.97172Z" fill="#D65A31"/>
</svg>
