<svg width="42" height="42" viewBox="0 0 42 42" fill="none" xmlns="http://www.w3.org/2000/svg">
<path fill-rule="evenodd" clip-rule="evenodd" d="M27.2386 14.5126C29.2487 14.5126 30.9597 15.2322 32.3743 16.6214C33.5652 17.8371 34.1358 19.5983 34.1358 21.93V35.3271H29.0993V26.4453C29.0993 24.0396 28.9753 22.4266 28.7771 21.632C28.5542 20.8388 28.1817 20.2186 27.6358 19.8217C27.0901 19.4001 26.4203 19.2014 25.6266 19.2014C24.6092 19.2014 23.7157 19.5242 22.9716 20.2185C22.2277 20.9133 21.7312 21.8563 21.434 23.072C21.2846 23.7159 21.2102 25.0806 21.2102 27.1902V35.327H16.1249V15.0088H21.2102V17.1175C22.3762 16.1501 23.4184 15.4801 24.3615 15.0833C25.3037 14.7113 26.2468 14.5126 27.2386 14.5126ZM2.10829 42H39.9157C41.0569 42 42 41.0583 42 39.9162V2.1087C42 0.942621 41.0569 0 39.9157 0H2.10829C0.942211 0 0 0.942621 0 2.1087V39.9162C0 41.0582 0.942211 42 2.10829 42ZM11.1138 6.67324C12.0065 6.67324 12.7761 6.99563 13.4211 7.64072C14.0661 8.28581 14.3633 9.07946 14.3633 9.99764C14.3633 10.8906 14.0661 11.6599 13.4211 12.3046C12.8009 12.9497 12.0313 13.2477 11.1385 13.2477C10.2458 13.2477 9.47617 12.9249 8.83124 12.2798C8.18631 11.6351 7.86417 10.841 7.86417 9.89838C7.86417 9.00539 8.18623 8.26104 8.80647 7.61586C9.4514 6.99563 10.2203 6.67324 11.1138 6.67324ZM8.55873 15.0088H13.6441V35.3271H8.55873V15.0088Z" fill="#D65A31"/>
</svg>
